<?xml version="1.0" encoding="UTF-8" standalone="no"?><svg xmlns="http://www.w3.org/2000/svg" xmlns:xlink="http://www.w3.org/1999/xlink" contentScriptType="application/ecmascript" contentStyleType="text/css" height="701px" preserveAspectRatio="none" style="width:1211px;height:701px;" version="1.1" viewBox="0 0 1211 701" width="1211px" zoomAndPan="magnify"><defs><filter height="300%" id="f1o1tr2ctygzi5" width="300%" x="-1" y="-1"><feGaussianBlur result="blurOut" stdDeviation="2.0"/><feColorMatrix in="blurOut" result="blurOut2" type="matrix" values="0 0 0 0 0 0 0 0 0 0 0 0 0 0 0 0 0 0 .4 0"/><feOffset dx="4.0" dy="4.0" in="blurOut2" result="blurOut3"/><feBlend in="SourceGraphic" in2="blurOut3" mode="normal"/></filter></defs><g><!--MD5=[2a013135f1f90689be40a3c084fed702]
cluster entities--><polygon fill="#FFFFFF" filter="url(#f1o1tr2ctygzi5)" points="377,130,436,130,443,153.6094,596,153.6094,596,230,377,230,377,130" style="stroke:#000000;stroke-width:1.5;"/><line style="stroke:#000000;stroke-width:1.5;" x1="377" x2="443" y1="153.6094" y2="153.6094"/><text fill="#000000" font-family="sans-serif" font-size="14" font-weight="bold" lengthAdjust="spacing" textLength="53" x="381" y="146.5332">entities</text><!--MD5=[1cda01132c61fe02d01ee0e1238bf64b]
cluster entities.items--><polygon fill="#FFFFFF" filter="url(#f1o1tr2ctygzi5)" points="167,254,268,254,275,277.6094,469,277.6094,469,462,167,462,167,254" style="stroke:#000000;stroke-width:1.5;"/><line style="stroke:#000000;stroke-width:1.5;" x1="167" x2="275" y1="277.6094" y2="277.6094"/><text fill="#000000" font-family="sans-serif" font-size="14" font-weight="bold" lengthAdjust="spacing" textLength="95" x="171" y="270.5332">entities.items</text><!--MD5=[b47934f7eddf50b05bebba079a2d5c33]
cluster entities.creatures--><polygon fill="#FFFFFF" filter="url(#f1o1tr2ctygzi5)" points="493,254,624,254,631,277.6094,634,277.6094,634,462,493,462,493,254" style="stroke:#000000;stroke-width:1.5;"/><line style="stroke:#000000;stroke-width:1.5;" x1="493" x2="631" y1="277.6094" y2="277.6094"/><text fill="#000000" font-family="sans-serif" font-size="14" font-weight="bold" lengthAdjust="spacing" textLength="125" x="497" y="270.5332">entities.creatures</text><!--MD5=[67f236fd0af0b11b2ef5a832d8415319]
cluster gfx--><polygon fill="#FFFFFF" filter="url(#f1o1tr2ctygzi5)" points="242,486,270,486,277,509.6094,740,509.6094,740,694,242,694,242,486" style="stroke:#000000;stroke-width:1.5;"/><line style="stroke:#000000;stroke-width:1.5;" x1="242" x2="277" y1="509.6094" y2="509.6094"/><text fill="#000000" font-family="sans-serif" font-size="14" font-weight="bold" lengthAdjust="spacing" textLength="22" x="246" y="502.5332">gfx</text><!--MD5=[38fe1c859229b9f23ba24ebfd54228a3]
cluster world--><polygon fill="#FFFFFF" filter="url(#f1o1tr2ctygzi5)" points="764,6,809,6,816,29.6094,975,29.6094,975,586,764,586,764,6" style="stroke:#000000;stroke-width:1.5;"/><line style="stroke:#000000;stroke-width:1.5;" x1="764" x2="816" y1="29.6094" y2="29.6094"/><text fill="#000000" font-family="sans-serif" font-size="14" font-weight="bold" lengthAdjust="spacing" textLength="39" x="768" y="22.5332">world</text><!--MD5=[61ef0e7cedb036059990bfe942fe9360]
cluster states--><polygon fill="#FFFFFF" filter="url(#f1o1tr2ctygzi5)" points="999,6,1048,6,1055,29.6094,1194,29.6094,1194,106,999,106,999,6" style="stroke:#000000;stroke-width:1.5;"/><line style="stroke:#000000;stroke-width:1.5;" x1="999" x2="1055" y1="29.6094" y2="29.6094"/><text fill="#000000" font-family="sans-serif" font-size="14" font-weight="bold" lengthAdjust="spacing" textLength="43" x="1003" y="22.5332">states</text><!--MD5=[c52f45833d539af9e29a9d34b8b7302b]
cluster utils--><polygon fill="#FFFFFF" filter="url(#f1o1tr2ctygzi5)" points="16,6,52,6,59,29.6094,353,29.6094,353,230,16,230,16,6" style="stroke:#000000;stroke-width:1.5;"/><line style="stroke:#000000;stroke-width:1.5;" x1="16" x2="59" y1="29.6094" y2="29.6094"/><text fill="#000000" font-family="sans-serif" font-size="14" font-weight="bold" lengthAdjust="spacing" textLength="30" x="20" y="22.5332">utils</text><!--MD5=[6ea7ee656260804a75c4cf9e9f7baa9f]
class entities.Entity--><rect codeLine="2" fill="#FEFECE" filter="url(#f1o1tr2ctygzi5)" height="48" id="entities.Entity" style="stroke:#A80036;stroke-width:1.5;" width="62" x="518" y="166"/><ellipse cx="533" cy="182" fill="#A9DCDF" rx="11" ry="11" style="stroke:#A80036;stroke-width:1.0;"/><path d="M534.75,183.5 L531.4531,183.5 L531.0156,184.5 L531.0156,184.5 L531.4844,184.5 L532,185.125 L532,185.5 L532,185.875 L531.4844,186.5 L531.0156,186.5 L529.125,186.5 L528.5156,186.5 L528,185.875 L528,185.5 L528,185.125 L528.5156,184.5 L529.125,184.5 L531.4375,178.5 L530.5625,178.5 L529.5156,178.5 L529,177.875 L529,177.5 L529,177.125 L529.5156,176.5 L530.5625,176.5 L534.2344,176.5 L536.9219,184.5 L537.4844,184.5 L537.4844,184.5 L538,185.125 L538,185.5 L538,185.875 L537.4844,186.5 L536.9219,186.5 L535.0313,186.5 L534.5156,186.5 L534,185.875 L534,185.5 L534,185.125 L534.5156,184.5 L535.0313,184.5 L535.0313,184.5 L534.75,183.5 Z M534.2031,181.5 L533,177.9219 L531.9688,181.5 L534.2031,181.5 Z " fill="#000000"/><text fill="#000000" font-family="sans-serif" font-size="12" font-style="italic" lengthAdjust="spacing" textLength="30" x="547" y="186.9102">Entity</text><line style="stroke:#A80036;stroke-width:1.5;" x1="519" x2="579" y1="198" y2="198"/><line style="stroke:#A80036;stroke-width:1.5;" x1="519" x2="579" y1="206" y2="206"/><!--MD5=[70e37a7b411d2923c69276d426f1144b]
class entities.Properties--><rect codeLine="51" fill="#FEFECE" filter="url(#f1o1tr2ctygzi5)" height="48" id="entities.Properties" style="stroke:#A80036;stroke-width:1.5;" width="89" x="393.5" y="166"/><ellipse cx="408.5" cy="182" fill="#ADD1B2" rx="11" ry="11" style="stroke:#A80036;stroke-width:1.0;"/><path d="M410.5,178.5 Q410.7031,178 410.9375,177.75 Q411.1719,177.5 411.4375,177.5 Q411.9063,177.5 412.2031,177.7813 Q412.5,178.0625 412.5,178.7188 L412.5,180.2813 Q412.5,180.9375 412.2188,181.2188 Q411.9375,181.5 411.5,181.5 Q411.1094,181.5 410.8594,181.3281 Q410.6094,181.1563 410.5,180.7031 Q410.4531,180.3906 410.2813,180.2188 Q409.9688,179.8906 409.4063,179.7031 Q408.8438,179.5 408.2813,179.5 Q407.5781,179.5 406.9844,179.7813 Q406.4063,180.0625 405.9531,180.6875 Q405.5,181.3125 405.5,182.1719 L405.5,183.0938 Q405.5,184.125 406.3438,184.8125 Q407.1875,185.5 408.6875,185.5 Q409.5781,185.5 410.2031,185.2969 Q410.5625,185.1875 410.9688,184.8281 Q411.2344,184.625 411.375,184.5625 Q411.5156,184.5 411.6875,184.5 Q412.0156,184.5 412.25,184.7656 Q412.5,185.0156 412.5,185.375 Q412.5,185.7188 412.1563,186.125 Q411.6563,186.7188 410.8594,187.0469 Q409.8125,187.5 408.5313,187.5 Q407.0313,187.5 405.8281,186.9063 Q404.8594,186.4375 404.1719,185.4219 Q403.5,184.4063 403.5,183.2031 L403.5,182.1094 Q403.5,180.8594 404.0938,179.7656 Q404.7031,178.6719 405.75,178.0938 Q406.8125,177.5 408,177.5 Q408.7188,177.5 409.3438,177.75 Q409.9688,178 410.5,178.5 Z " fill="#000000"/><text fill="#000000" font-family="sans-serif" font-size="12" lengthAdjust="spacing" textLength="57" x="422.5" y="186.9102">Properties</text><line style="stroke:#A80036;stroke-width:1.5;" x1="394.5" x2="481.5" y1="198" y2="198"/><line style="stroke:#A80036;stroke-width:1.5;" x1="394.5" x2="481.5" y1="206" y2="206"/><!--MD5=[940610cbb1f849f08cd09d0d13097334]
class entities.items.Item--><rect codeLine="5" fill="#FEFECE" filter="url(#f1o1tr2ctygzi5)" height="48" id="entities.items.Item" style="stroke:#A80036;stroke-width:1.5;" width="57" x="370.5" y="290"/><ellipse cx="385.5" cy="306" fill="#A9DCDF" rx="11" ry="11" style="stroke:#A80036;stroke-width:1.0;"/><path d="M387.25,307.5 L383.9531,307.5 L383.5156,308.5 L383.5156,308.5 L383.9844,308.5 L384.5,309.125 L384.5,309.5 L384.5,309.875 L383.9844,310.5 L383.5156,310.5 L381.625,310.5 L381.0156,310.5 L380.5,309.875 L380.5,309.5 L380.5,309.125 L381.0156,308.5 L381.625,308.5 L383.9375,302.5 L383.0625,302.5 L382.0156,302.5 L381.5,301.875 L381.5,301.5 L381.5,301.125 L382.0156,300.5 L383.0625,300.5 L386.7344,300.5 L389.4219,308.5 L389.9844,308.5 L389.9844,308.5 L390.5,309.125 L390.5,309.5 L390.5,309.875 L389.9844,310.5 L389.4219,310.5 L387.5313,310.5 L387.0156,310.5 L386.5,309.875 L386.5,309.5 L386.5,309.125 L387.0156,308.5 L387.5313,308.5 L387.5313,308.5 L387.25,307.5 Z M386.7031,305.5 L385.5,301.9219 L384.4688,305.5 L386.7031,305.5 Z " fill="#000000"/><text fill="#000000" font-family="sans-serif" font-size="12" font-style="italic" lengthAdjust="spacing" textLength="25" x="399.5" y="310.9102">Item</text><line style="stroke:#A80036;stroke-width:1.5;" x1="371.5" x2="426.5" y1="322" y2="322"/><line style="stroke:#A80036;stroke-width:1.5;" x1="371.5" x2="426.5" y1="330" y2="330"/><!--MD5=[20708c2183c059c6e7611171a8a57f32]
class entities.items.BombCollectable--><rect codeLine="8" fill="#FEFECE" filter="url(#f1o1tr2ctygzi5)" height="48" id="entities.items.BombCollectable" style="stroke:#A80036;stroke-width:1.5;" width="127" x="183.5" y="398"/><ellipse cx="198.5" cy="414" fill="#ADD1B2" rx="11" ry="11" style="stroke:#A80036;stroke-width:1.0;"/><path d="M200.5,410.5 Q200.7031,410 200.9375,409.75 Q201.1719,409.5 201.4375,409.5 Q201.9063,409.5 202.2031,409.7813 Q202.5,410.0625 202.5,410.7188 L202.5,412.2813 Q202.5,412.9375 202.2188,413.2188 Q201.9375,413.5 201.5,413.5 Q201.1094,413.5 200.8594,413.3281 Q200.6094,413.1563 200.5,412.7031 Q200.4531,412.3906 200.2813,412.2188 Q199.9688,411.8906 199.4063,411.7031 Q198.8438,411.5 198.2813,411.5 Q197.5781,411.5 196.9844,411.7813 Q196.4063,412.0625 195.9531,412.6875 Q195.5,413.3125 195.5,414.1719 L195.5,415.0938 Q195.5,416.125 196.3438,416.8125 Q197.1875,417.5 198.6875,417.5 Q199.5781,417.5 200.2031,417.2969 Q200.5625,417.1875 200.9688,416.8281 Q201.2344,416.625 201.375,416.5625 Q201.5156,416.5 201.6875,416.5 Q202.0156,416.5 202.25,416.7656 Q202.5,417.0156 202.5,417.375 Q202.5,417.7188 202.1563,418.125 Q201.6563,418.7188 200.8594,419.0469 Q199.8125,419.5 198.5313,419.5 Q197.0313,419.5 195.8281,418.9063 Q194.8594,418.4375 194.1719,417.4219 Q193.5,416.4063 193.5,415.2031 L193.5,414.1094 Q193.5,412.8594 194.0938,411.7656 Q194.7031,410.6719 195.75,410.0938 Q196.8125,409.5 198,409.5 Q198.7188,409.5 199.3438,409.75 Q199.9688,410 200.5,410.5 Z " fill="#000000"/><text fill="#000000" font-family="sans-serif" font-size="12" lengthAdjust="spacing" textLength="95" x="212.5" y="418.9102">BombCollectable</text><line style="stroke:#A80036;stroke-width:1.5;" x1="184.5" x2="309.5" y1="430" y2="430"/><line style="stroke:#A80036;stroke-width:1.5;" x1="184.5" x2="309.5" y1="438" y2="438"/><!--MD5=[165d5a49fb56ee5d873275063b7611fd]
class entities.items.BombPlanted--><rect codeLine="12" fill="#FEFECE" filter="url(#f1o1tr2ctygzi5)" height="48" id="entities.items.BombPlanted" style="stroke:#A80036;stroke-width:1.5;" width="107" x="345.5" y="398"/><ellipse cx="360.5" cy="414" fill="#ADD1B2" rx="11" ry="11" style="stroke:#A80036;stroke-width:1.0;"/><path d="M362.5,410.5 Q362.7031,410 362.9375,409.75 Q363.1719,409.5 363.4375,409.5 Q363.9063,409.5 364.2031,409.7813 Q364.5,410.0625 364.5,410.7188 L364.5,412.2813 Q364.5,412.9375 364.2188,413.2188 Q363.9375,413.5 363.5,413.5 Q363.1094,413.5 362.8594,413.3281 Q362.6094,413.1563 362.5,412.7031 Q362.4531,412.3906 362.2813,412.2188 Q361.9688,411.8906 361.4063,411.7031 Q360.8438,411.5 360.2813,411.5 Q359.5781,411.5 358.9844,411.7813 Q358.4063,412.0625 357.9531,412.6875 Q357.5,413.3125 357.5,414.1719 L357.5,415.0938 Q357.5,416.125 358.3438,416.8125 Q359.1875,417.5 360.6875,417.5 Q361.5781,417.5 362.2031,417.2969 Q362.5625,417.1875 362.9688,416.8281 Q363.2344,416.625 363.375,416.5625 Q363.5156,416.5 363.6875,416.5 Q364.0156,416.5 364.25,416.7656 Q364.5,417.0156 364.5,417.375 Q364.5,417.7188 364.1563,418.125 Q363.6563,418.7188 362.8594,419.0469 Q361.8125,419.5 360.5313,419.5 Q359.0313,419.5 357.8281,418.9063 Q356.8594,418.4375 356.1719,417.4219 Q355.5,416.4063 355.5,415.2031 L355.5,414.1094 Q355.5,412.8594 356.0938,411.7656 Q356.7031,410.6719 357.75,410.0938 Q358.8125,409.5 360,409.5 Q360.7188,409.5 361.3438,409.75 Q361.9688,410 362.5,410.5 Z " fill="#000000"/><text fill="#000000" font-family="sans-serif" font-size="12" lengthAdjust="spacing" textLength="75" x="374.5" y="418.9102">BombPlanted</text><line style="stroke:#A80036;stroke-width:1.5;" x1="346.5" x2="451.5" y1="430" y2="430"/><line style="stroke:#A80036;stroke-width:1.5;" x1="346.5" x2="451.5" y1="438" y2="438"/><!--MD5=[fff4fbefb74200d5cc792fdc24d62f59]
class entities.creatures.Creature--><rect codeLine="16" fill="#FEFECE" filter="url(#f1o1tr2ctygzi5)" height="48" id="entities.creatures.Creature" style="stroke:#A80036;stroke-width:1.5;" width="80" x="509" y="290"/><ellipse cx="524" cy="306" fill="#A9DCDF" rx="11" ry="11" style="stroke:#A80036;stroke-width:1.0;"/><path d="M525.75,307.5 L522.4531,307.5 L522.0156,308.5 L522.0156,308.5 L522.4844,308.5 L523,309.125 L523,309.5 L523,309.875 L522.4844,310.5 L522.0156,310.5 L520.125,310.5 L519.5156,310.5 L519,309.875 L519,309.5 L519,309.125 L519.5156,308.5 L520.125,308.5 L522.4375,302.5 L521.5625,302.5 L520.5156,302.5 L520,301.875 L520,301.5 L520,301.125 L520.5156,300.5 L521.5625,300.5 L525.2344,300.5 L527.9219,308.5 L528.4844,308.5 L528.4844,308.5 L529,309.125 L529,309.5 L529,309.875 L528.4844,310.5 L527.9219,310.5 L526.0313,310.5 L525.5156,310.5 L525,309.875 L525,309.5 L525,309.125 L525.5156,308.5 L526.0313,308.5 L526.0313,308.5 L525.75,307.5 Z M525.2031,305.5 L524,301.9219 L522.9688,305.5 L525.2031,305.5 Z " fill="#000000"/><text fill="#000000" font-family="sans-serif" font-size="12" font-style="italic" lengthAdjust="spacing" textLength="48" x="538" y="310.9102">Creature</text><line style="stroke:#A80036;stroke-width:1.5;" x1="510" x2="588" y1="322" y2="322"/><line style="stroke:#A80036;stroke-width:1.5;" x1="510" x2="588" y1="330" y2="330"/><!--MD5=[79e611175aab30d878e28b1060269c5b]
class entities.creatures.Player--><rect codeLine="19" fill="#FEFECE" filter="url(#f1o1tr2ctygzi5)" height="48" id="entities.creatures.Player" style="stroke:#A80036;stroke-width:1.5;" width="66" x="512" y="398"/><ellipse cx="527" cy="414" fill="#ADD1B2" rx="11" ry="11" style="stroke:#A80036;stroke-width:1.0;"/><path d="M529,410.5 Q529.2031,410 529.4375,409.75 Q529.6719,409.5 529.9375,409.5 Q530.4063,409.5 530.7031,409.7813 Q531,410.0625 531,410.7188 L531,412.2813 Q531,412.9375 530.7188,413.2188 Q530.4375,413.5 530,413.5 Q529.6094,413.5 529.3594,413.3281 Q529.1094,413.1563 529,412.7031 Q528.9531,412.3906 528.7813,412.2188 Q528.4688,411.8906 527.9063,411.7031 Q527.3438,411.5 526.7813,411.5 Q526.0781,411.5 525.4844,411.7813 Q524.9063,412.0625 524.4531,412.6875 Q524,413.3125 524,414.1719 L524,415.0938 Q524,416.125 524.8438,416.8125 Q525.6875,417.5 527.1875,417.5 Q528.0781,417.5 528.7031,417.2969 Q529.0625,417.1875 529.4688,416.8281 Q529.7344,416.625 529.875,416.5625 Q530.0156,416.5 530.1875,416.5 Q530.5156,416.5 530.75,416.7656 Q531,417.0156 531,417.375 Q531,417.7188 530.6563,418.125 Q530.1563,418.7188 529.3594,419.0469 Q528.3125,419.5 527.0313,419.5 Q525.5313,419.5 524.3281,418.9063 Q523.3594,418.4375 522.6719,417.4219 Q522,416.4063 522,415.2031 L522,414.1094 Q522,412.8594 522.5938,411.7656 Q523.2031,410.6719 524.25,410.0938 Q525.3125,409.5 526.5,409.5 Q527.2188,409.5 527.8438,409.75 Q528.4688,410 529,410.5 Z " fill="#000000"/><text fill="#000000" font-family="sans-serif" font-size="12" lengthAdjust="spacing" textLength="34" x="541" y="418.9102">Player</text><line style="stroke:#A80036;stroke-width:1.5;" x1="513" x2="577" y1="430" y2="430"/><line style="stroke:#A80036;stroke-width:1.5;" x1="513" x2="577" y1="438" y2="438"/><!--MD5=[31b39ed9b6cb36778e2b2be9841862c5]
class gfx.Animation--><rect codeLine="22" fill="#FEFECE" filter="url(#f1o1tr2ctygzi5)" height="48" id="gfx.Animation" style="stroke:#A80036;stroke-width:1.5;" width="87" x="368.5" y="522"/><ellipse cx="383.5" cy="538" fill="#ADD1B2" rx="11" ry="11" style="stroke:#A80036;stroke-width:1.0;"/><path d="M385.5,534.5 Q385.7031,534 385.9375,533.75 Q386.1719,533.5 386.4375,533.5 Q386.9063,533.5 387.2031,533.7813 Q387.5,534.0625 387.5,534.7188 L387.5,536.2813 Q387.5,536.9375 387.2188,537.2188 Q386.9375,537.5 386.5,537.5 Q386.1094,537.5 385.8594,537.3281 Q385.6094,537.1563 385.5,536.7031 Q385.4531,536.3906 385.2813,536.2188 Q384.9688,535.8906 384.4063,535.7031 Q383.8438,535.5 383.2813,535.5 Q382.5781,535.5 381.9844,535.7813 Q381.4063,536.0625 380.9531,536.6875 Q380.5,537.3125 380.5,538.1719 L380.5,539.0938 Q380.5,540.125 381.3438,540.8125 Q382.1875,541.5 383.6875,541.5 Q384.5781,541.5 385.2031,541.2969 Q385.5625,541.1875 385.9688,540.8281 Q386.2344,540.625 386.375,540.5625 Q386.5156,540.5 386.6875,540.5 Q387.0156,540.5 387.25,540.7656 Q387.5,541.0156 387.5,541.375 Q387.5,541.7188 387.1563,542.125 Q386.6563,542.7188 385.8594,543.0469 Q384.8125,543.5 383.5313,543.5 Q382.0313,543.5 380.8281,542.9063 Q379.8594,542.4375 379.1719,541.4219 Q378.5,540.4063 378.5,539.2031 L378.5,538.1094 Q378.5,536.8594 379.0938,535.7656 Q379.7031,534.6719 380.75,534.0938 Q381.8125,533.5 383,533.5 Q383.7188,533.5 384.3438,533.75 Q384.9688,534 385.5,534.5 Z " fill="#000000"/><text fill="#000000" font-family="sans-serif" font-size="12" lengthAdjust="spacing" textLength="55" x="397.5" y="542.9102">Animation</text><line style="stroke:#A80036;stroke-width:1.5;" x1="369.5" x2="454.5" y1="554" y2="554"/><line style="stroke:#A80036;stroke-width:1.5;" x1="369.5" x2="454.5" y1="562" y2="562"/><!--MD5=[61c3fa5585ca85434ecfc87dbde0af51]
class gfx.DrawManager--><rect codeLine="26" fill="#FEFECE" filter="url(#f1o1tr2ctygzi5)" height="48" id="gfx.DrawManager" style="stroke:#A80036;stroke-width:1.5;" width="109" x="490.5" y="522"/><ellipse cx="505.5" cy="538" fill="#ADD1B2" rx="11" ry="11" style="stroke:#A80036;stroke-width:1.0;"/><path d="M507.5,534.5 Q507.7031,534 507.9375,533.75 Q508.1719,533.5 508.4375,533.5 Q508.9063,533.5 509.2031,533.7813 Q509.5,534.0625 509.5,534.7188 L509.5,536.2813 Q509.5,536.9375 509.2188,537.2188 Q508.9375,537.5 508.5,537.5 Q508.1094,537.5 507.8594,537.3281 Q507.6094,537.1563 507.5,536.7031 Q507.4531,536.3906 507.2813,536.2188 Q506.9688,535.8906 506.4063,535.7031 Q505.8438,535.5 505.2813,535.5 Q504.5781,535.5 503.9844,535.7813 Q503.4063,536.0625 502.9531,536.6875 Q502.5,537.3125 502.5,538.1719 L502.5,539.0938 Q502.5,540.125 503.3438,540.8125 Q504.1875,541.5 505.6875,541.5 Q506.5781,541.5 507.2031,541.2969 Q507.5625,541.1875 507.9688,540.8281 Q508.2344,540.625 508.375,540.5625 Q508.5156,540.5 508.6875,540.5 Q509.0156,540.5 509.25,540.7656 Q509.5,541.0156 509.5,541.375 Q509.5,541.7188 509.1563,542.125 Q508.6563,542.7188 507.8594,543.0469 Q506.8125,543.5 505.5313,543.5 Q504.0313,543.5 502.8281,542.9063 Q501.8594,542.4375 501.1719,541.4219 Q500.5,540.4063 500.5,539.2031 L500.5,538.1094 Q500.5,536.8594 501.0938,535.7656 Q501.7031,534.6719 502.75,534.0938 Q503.8125,533.5 505,533.5 Q505.7188,533.5 506.3438,533.75 Q506.9688,534 507.5,534.5 Z " fill="#000000"/><text fill="#000000" font-family="sans-serif" font-size="12" lengthAdjust="spacing" textLength="77" x="519.5" y="542.9102">DrawManager</text><line style="stroke:#A80036;stroke-width:1.5;" x1="491.5" x2="598.5" y1="554" y2="554"/><line style="stroke:#A80036;stroke-width:1.5;" x1="491.5" x2="598.5" y1="562" y2="562"/><!--MD5=[15af45a6dbda0b46b9bcc7341b4758d2]
class gfx.TextureManager--><rect codeLine="40" fill="#FEFECE" filter="url(#f1o1tr2ctygzi5)" height="48" id="gfx.TextureManager" style="stroke:#A80036;stroke-width:1.5;" width="120" x="304" y="630"/><ellipse cx="319" cy="646" fill="#ADD1B2" rx="11" ry="11" style="stroke:#A80036;stroke-width:1.0;"/><path d="M321,642.5 Q321.2031,642 321.4375,641.75 Q321.6719,641.5 321.9375,641.5 Q322.4063,641.5 322.7031,641.7813 Q323,642.0625 323,642.7188 L323,644.2813 Q323,644.9375 322.7188,645.2188 Q322.4375,645.5 322,645.5 Q321.6094,645.5 321.3594,645.3281 Q321.1094,645.1563 321,644.7031 Q320.9531,644.3906 320.7813,644.2188 Q320.4688,643.8906 319.9063,643.7031 Q319.3438,643.5 318.7813,643.5 Q318.0781,643.5 317.4844,643.7813 Q316.9063,644.0625 316.4531,644.6875 Q316,645.3125 316,646.1719 L316,647.0938 Q316,648.125 316.8438,648.8125 Q317.6875,649.5 319.1875,649.5 Q320.0781,649.5 320.7031,649.2969 Q321.0625,649.1875 321.4688,648.8281 Q321.7344,648.625 321.875,648.5625 Q322.0156,648.5 322.1875,648.5 Q322.5156,648.5 322.75,648.7656 Q323,649.0156 323,649.375 Q323,649.7188 322.6563,650.125 Q322.1563,650.7188 321.3594,651.0469 Q320.3125,651.5 319.0313,651.5 Q317.5313,651.5 316.3281,650.9063 Q315.3594,650.4375 314.6719,649.4219 Q314,648.4063 314,647.2031 L314,646.1094 Q314,644.8594 314.5938,643.7656 Q315.2031,642.6719 316.25,642.0938 Q317.3125,641.5 318.5,641.5 Q319.2188,641.5 319.8438,641.75 Q320.4688,642 321,642.5 Z " fill="#000000"/><text fill="#000000" font-family="sans-serif" font-size="12" lengthAdjust="spacing" textLength="88" x="333" y="650.9102">TextureManager</text><line style="stroke:#A80036;stroke-width:1.5;" x1="305" x2="423" y1="662" y2="662"/><line style="stroke:#A80036;stroke-width:1.5;" x1="305" x2="423" y1="670" y2="670"/><!--MD5=[4c7c7f33a1ec25f7be8040bd6777f2d6]
class gfx.Transform--><rect codeLine="44" fill="#FEFECE" filter="url(#f1o1tr2ctygzi5)" height="48" id="gfx.Transform" style="stroke:#A80036;stroke-width:1.5;" width="89" x="634.5" y="522"/><ellipse cx="649.5" cy="538" fill="#ADD1B2" rx="11" ry="11" style="stroke:#A80036;stroke-width:1.0;"/><path d="M651.5,534.5 Q651.7031,534 651.9375,533.75 Q652.1719,533.5 652.4375,533.5 Q652.9063,533.5 653.2031,533.7813 Q653.5,534.0625 653.5,534.7188 L653.5,536.2813 Q653.5,536.9375 653.2188,537.2188 Q652.9375,537.5 652.5,537.5 Q652.1094,537.5 651.8594,537.3281 Q651.6094,537.1563 651.5,536.7031 Q651.4531,536.3906 651.2813,536.2188 Q650.9688,535.8906 650.4063,535.7031 Q649.8438,535.5 649.2813,535.5 Q648.5781,535.5 647.9844,535.7813 Q647.4063,536.0625 646.9531,536.6875 Q646.5,537.3125 646.5,538.1719 L646.5,539.0938 Q646.5,540.125 647.3438,540.8125 Q648.1875,541.5 649.6875,541.5 Q650.5781,541.5 651.2031,541.2969 Q651.5625,541.1875 651.9688,540.8281 Q652.2344,540.625 652.375,540.5625 Q652.5156,540.5 652.6875,540.5 Q653.0156,540.5 653.25,540.7656 Q653.5,541.0156 653.5,541.375 Q653.5,541.7188 653.1563,542.125 Q652.6563,542.7188 651.8594,543.0469 Q650.8125,543.5 649.5313,543.5 Q648.0313,543.5 646.8281,542.9063 Q645.8594,542.4375 645.1719,541.4219 Q644.5,540.4063 644.5,539.2031 L644.5,538.1094 Q644.5,536.8594 645.0938,535.7656 Q645.7031,534.6719 646.75,534.0938 Q647.8125,533.5 649,533.5 Q649.7188,533.5 650.3438,533.75 Q650.9688,534 651.5,534.5 Z " fill="#000000"/><text fill="#000000" font-family="sans-serif" font-size="12" lengthAdjust="spacing" textLength="57" x="663.5" y="542.9102">Transform</text><line style="stroke:#A80036;stroke-width:1.5;" x1="635.5" x2="722.5" y1="554" y2="554"/><line style="stroke:#A80036;stroke-width:1.5;" x1="635.5" x2="722.5" y1="562" y2="562"/><!--MD5=[408c1a95a6004acb5e587067bbcd0af8]
class gfx.Vector2D--><rect codeLine="48" fill="#FEFECE" filter="url(#f1o1tr2ctygzi5)" height="48" id="gfx.Vector2D" style="stroke:#A80036;stroke-width:1.5;" width="82" x="504" y="630"/><ellipse cx="519" cy="646" fill="#ADD1B2" rx="11" ry="11" style="stroke:#A80036;stroke-width:1.0;"/><path d="M521,642.5 Q521.2031,642 521.4375,641.75 Q521.6719,641.5 521.9375,641.5 Q522.4063,641.5 522.7031,641.7813 Q523,642.0625 523,642.7188 L523,644.2813 Q523,644.9375 522.7188,645.2188 Q522.4375,645.5 522,645.5 Q521.6094,645.5 521.3594,645.3281 Q521.1094,645.1563 521,644.7031 Q520.9531,644.3906 520.7813,644.2188 Q520.4688,643.8906 519.9063,643.7031 Q519.3438,643.5 518.7813,643.5 Q518.0781,643.5 517.4844,643.7813 Q516.9063,644.0625 516.4531,644.6875 Q516,645.3125 516,646.1719 L516,647.0938 Q516,648.125 516.8438,648.8125 Q517.6875,649.5 519.1875,649.5 Q520.0781,649.5 520.7031,649.2969 Q521.0625,649.1875 521.4688,648.8281 Q521.7344,648.625 521.875,648.5625 Q522.0156,648.5 522.1875,648.5 Q522.5156,648.5 522.75,648.7656 Q523,649.0156 523,649.375 Q523,649.7188 522.6563,650.125 Q522.1563,650.7188 521.3594,651.0469 Q520.3125,651.5 519.0313,651.5 Q517.5313,651.5 516.3281,650.9063 Q515.3594,650.4375 514.6719,649.4219 Q514,648.4063 514,647.2031 L514,646.1094 Q514,644.8594 514.5938,643.7656 Q515.2031,642.6719 516.25,642.0938 Q517.3125,641.5 518.5,641.5 Q519.2188,641.5 519.8438,641.75 Q520.4688,642 521,642.5 Z " fill="#000000"/><text fill="#000000" font-family="sans-serif" font-size="12" lengthAdjust="spacing" textLength="50" x="533" y="650.9102">Vector2D</text><line style="stroke:#A80036;stroke-width:1.5;" x1="505" x2="585" y1="662" y2="662"/><line style="stroke:#A80036;stroke-width:1.5;" x1="505" x2="585" y1="670" y2="670"/><!--MD5=[57210c06e20415b9d54619e815cd0c71]
class gfx.UILabel--><rect codeLine="64" fill="#FEFECE" filter="url(#f1o1tr2ctygzi5)" height="48" id="gfx.UILabel" style="stroke:#A80036;stroke-width:1.5;" width="75" x="258.5" y="522"/><ellipse cx="273.5" cy="538" fill="#ADD1B2" rx="11" ry="11" style="stroke:#A80036;stroke-width:1.0;"/><path d="M275.5,534.5 Q275.7031,534 275.9375,533.75 Q276.1719,533.5 276.4375,533.5 Q276.9063,533.5 277.2031,533.7813 Q277.5,534.0625 277.5,534.7188 L277.5,536.2813 Q277.5,536.9375 277.2188,537.2188 Q276.9375,537.5 276.5,537.5 Q276.1094,537.5 275.8594,537.3281 Q275.6094,537.1563 275.5,536.7031 Q275.4531,536.3906 275.2813,536.2188 Q274.9688,535.8906 274.4063,535.7031 Q273.8438,535.5 273.2813,535.5 Q272.5781,535.5 271.9844,535.7813 Q271.4063,536.0625 270.9531,536.6875 Q270.5,537.3125 270.5,538.1719 L270.5,539.0938 Q270.5,540.125 271.3438,540.8125 Q272.1875,541.5 273.6875,541.5 Q274.5781,541.5 275.2031,541.2969 Q275.5625,541.1875 275.9688,540.8281 Q276.2344,540.625 276.375,540.5625 Q276.5156,540.5 276.6875,540.5 Q277.0156,540.5 277.25,540.7656 Q277.5,541.0156 277.5,541.375 Q277.5,541.7188 277.1563,542.125 Q276.6563,542.7188 275.8594,543.0469 Q274.8125,543.5 273.5313,543.5 Q272.0313,543.5 270.8281,542.9063 Q269.8594,542.4375 269.1719,541.4219 Q268.5,540.4063 268.5,539.2031 L268.5,538.1094 Q268.5,536.8594 269.0938,535.7656 Q269.7031,534.6719 270.75,534.0938 Q271.8125,533.5 273,533.5 Q273.7188,533.5 274.3438,533.75 Q274.9688,534 275.5,534.5 Z " fill="#000000"/><text fill="#000000" font-family="sans-serif" font-size="12" lengthAdjust="spacing" textLength="43" x="287.5" y="542.9102">UILabel</text><line style="stroke:#A80036;stroke-width:1.5;" x1="259.5" x2="332.5" y1="554" y2="554"/><line style="stroke:#A80036;stroke-width:1.5;" x1="259.5" x2="332.5" y1="562" y2="562"/><!--MD5=[032b4da80d473f4495ac8a06202750d4]
class world.Layer--><rect codeLine="29" fill="#FEFECE" filter="url(#f1o1tr2ctygzi5)" height="48" id="world.Layer" style="stroke:#A80036;stroke-width:1.5;" width="63" x="881.5" y="290"/><ellipse cx="896.5" cy="306" fill="#A9DCDF" rx="11" ry="11" style="stroke:#A80036;stroke-width:1.0;"/><path d="M898.25,307.5 L894.9531,307.5 L894.5156,308.5 L894.5156,308.5 L894.9844,308.5 L895.5,309.125 L895.5,309.5 L895.5,309.875 L894.9844,310.5 L894.5156,310.5 L892.625,310.5 L892.0156,310.5 L891.5,309.875 L891.5,309.5 L891.5,309.125 L892.0156,308.5 L892.625,308.5 L894.9375,302.5 L894.0625,302.5 L893.0156,302.5 L892.5,301.875 L892.5,301.5 L892.5,301.125 L893.0156,300.5 L894.0625,300.5 L897.7344,300.5 L900.4219,308.5 L900.9844,308.5 L900.9844,308.5 L901.5,309.125 L901.5,309.5 L901.5,309.875 L900.9844,310.5 L900.4219,310.5 L898.5313,310.5 L898.0156,310.5 L897.5,309.875 L897.5,309.5 L897.5,309.125 L898.0156,308.5 L898.5313,308.5 L898.5313,308.5 L898.25,307.5 Z M897.7031,305.5 L896.5,301.9219 L895.4688,305.5 L897.7031,305.5 Z " fill="#000000"/><text fill="#000000" font-family="sans-serif" font-size="12" font-style="italic" lengthAdjust="spacing" textLength="31" x="910.5" y="310.9102">Layer</text><line style="stroke:#A80036;stroke-width:1.5;" x1="882.5" x2="943.5" y1="322" y2="322"/><line style="stroke:#A80036;stroke-width:1.5;" x1="882.5" x2="943.5" y1="330" y2="330"/><!--MD5=[058b60769bf24e6f858063701ad81ab7]
class world.MapParser--><rect codeLine="33" fill="#FEFECE" filter="url(#f1o1tr2ctygzi5)" height="48" id="world.MapParser" style="stroke:#A80036;stroke-width:1.5;" width="92" x="867" y="42"/><ellipse cx="882" cy="58" fill="#ADD1B2" rx="11" ry="11" style="stroke:#A80036;stroke-width:1.0;"/><path d="M884,54.5 Q884.2031,54 884.4375,53.75 Q884.6719,53.5 884.9375,53.5 Q885.4063,53.5 885.7031,53.7813 Q886,54.0625 886,54.7188 L886,56.2813 Q886,56.9375 885.7188,57.2188 Q885.4375,57.5 885,57.5 Q884.6094,57.5 884.3594,57.3281 Q884.1094,57.1563 884,56.7031 Q883.9531,56.3906 883.7813,56.2188 Q883.4688,55.8906 882.9063,55.7031 Q882.3438,55.5 881.7813,55.5 Q881.0781,55.5 880.4844,55.7813 Q879.9063,56.0625 879.4531,56.6875 Q879,57.3125 879,58.1719 L879,59.0938 Q879,60.125 879.8438,60.8125 Q880.6875,61.5 882.1875,61.5 Q883.0781,61.5 883.7031,61.2969 Q884.0625,61.1875 884.4688,60.8281 Q884.7344,60.625 884.875,60.5625 Q885.0156,60.5 885.1875,60.5 Q885.5156,60.5 885.75,60.7656 Q886,61.0156 886,61.375 Q886,61.7188 885.6563,62.125 Q885.1563,62.7188 884.3594,63.0469 Q883.3125,63.5 882.0313,63.5 Q880.5313,63.5 879.3281,62.9063 Q878.3594,62.4375 877.6719,61.4219 Q877,60.4063 877,59.2031 L877,58.1094 Q877,56.8594 877.5938,55.7656 Q878.2031,54.6719 879.25,54.0938 Q880.3125,53.5 881.5,53.5 Q882.2188,53.5 882.8438,53.75 Q883.4688,54 884,54.5 Z " fill="#000000"/><text fill="#000000" font-family="sans-serif" font-size="12" lengthAdjust="spacing" textLength="60" x="896" y="62.9102">MapParser</text><line style="stroke:#A80036;stroke-width:1.5;" x1="868" x2="958" y1="74" y2="74"/><line style="stroke:#A80036;stroke-width:1.5;" x1="868" x2="958" y1="82" y2="82"/><!--MD5=[3558dd23c0f3351bc17b27f38620e6cf]
class world.GameMap--><rect codeLine="61" fill="#FEFECE" filter="url(#f1o1tr2ctygzi5)" height="48" id="world.GameMap" style="stroke:#A80036;stroke-width:1.5;" width="89" x="868.5" y="166"/><ellipse cx="883.5" cy="182" fill="#ADD1B2" rx="11" ry="11" style="stroke:#A80036;stroke-width:1.0;"/><path d="M885.5,178.5 Q885.7031,178 885.9375,177.75 Q886.1719,177.5 886.4375,177.5 Q886.9063,177.5 887.2031,177.7813 Q887.5,178.0625 887.5,178.7188 L887.5,180.2813 Q887.5,180.9375 887.2188,181.2188 Q886.9375,181.5 886.5,181.5 Q886.1094,181.5 885.8594,181.3281 Q885.6094,181.1563 885.5,180.7031 Q885.4531,180.3906 885.2813,180.2188 Q884.9688,179.8906 884.4063,179.7031 Q883.8438,179.5 883.2813,179.5 Q882.5781,179.5 881.9844,179.7813 Q881.4063,180.0625 880.9531,180.6875 Q880.5,181.3125 880.5,182.1719 L880.5,183.0938 Q880.5,184.125 881.3438,184.8125 Q882.1875,185.5 883.6875,185.5 Q884.5781,185.5 885.2031,185.2969 Q885.5625,185.1875 885.9688,184.8281 Q886.2344,184.625 886.375,184.5625 Q886.5156,184.5 886.6875,184.5 Q887.0156,184.5 887.25,184.7656 Q887.5,185.0156 887.5,185.375 Q887.5,185.7188 887.1563,186.125 Q886.6563,186.7188 885.8594,187.0469 Q884.8125,187.5 883.5313,187.5 Q882.0313,187.5 880.8281,186.9063 Q879.8594,186.4375 879.1719,185.4219 Q878.5,184.4063 878.5,183.2031 L878.5,182.1094 Q878.5,180.8594 879.0938,179.7656 Q879.7031,178.6719 880.75,178.0938 Q881.8125,177.5 883,177.5 Q883.7188,177.5 884.3438,177.75 Q884.9688,178 885.5,178.5 Z " fill="#000000"/><text fill="#000000" font-family="sans-serif" font-size="12" lengthAdjust="spacing" textLength="57" x="897.5" y="186.9102">GameMap</text><line style="stroke:#A80036;stroke-width:1.5;" x1="869.5" x2="956.5" y1="198" y2="198"/><line style="stroke:#A80036;stroke-width:1.5;" x1="869.5" x2="956.5" y1="206" y2="206"/><!--MD5=[48516c7a7bc1f05290f510d0ff4cfebc]
class world.Tile--><rect codeLine="67" fill="#FEFECE" filter="url(#f1o1tr2ctygzi5)" height="48" id="world.Tile" style="stroke:#A80036;stroke-width:1.5;" width="52" x="780" y="42"/><ellipse cx="795" cy="58" fill="#ADD1B2" rx="11" ry="11" style="stroke:#A80036;stroke-width:1.0;"/><path d="M797,54.5 Q797.2031,54 797.4375,53.75 Q797.6719,53.5 797.9375,53.5 Q798.4063,53.5 798.7031,53.7813 Q799,54.0625 799,54.7188 L799,56.2813 Q799,56.9375 798.7188,57.2188 Q798.4375,57.5 798,57.5 Q797.6094,57.5 797.3594,57.3281 Q797.1094,57.1563 797,56.7031 Q796.9531,56.3906 796.7813,56.2188 Q796.4688,55.8906 795.9063,55.7031 Q795.3438,55.5 794.7813,55.5 Q794.0781,55.5 793.4844,55.7813 Q792.9063,56.0625 792.4531,56.6875 Q792,57.3125 792,58.1719 L792,59.0938 Q792,60.125 792.8438,60.8125 Q793.6875,61.5 795.1875,61.5 Q796.0781,61.5 796.7031,61.2969 Q797.0625,61.1875 797.4688,60.8281 Q797.7344,60.625 797.875,60.5625 Q798.0156,60.5 798.1875,60.5 Q798.5156,60.5 798.75,60.7656 Q799,61.0156 799,61.375 Q799,61.7188 798.6563,62.125 Q798.1563,62.7188 797.3594,63.0469 Q796.3125,63.5 795.0313,63.5 Q793.5313,63.5 792.3281,62.9063 Q791.3594,62.4375 790.6719,61.4219 Q790,60.4063 790,59.2031 L790,58.1094 Q790,56.8594 790.5938,55.7656 Q791.2031,54.6719 792.25,54.0938 Q793.3125,53.5 794.5,53.5 Q795.2188,53.5 795.8438,53.75 Q796.4688,54 797,54.5 Z " fill="#000000"/><text fill="#000000" font-family="sans-serif" font-size="12" lengthAdjust="spacing" textLength="20" x="809" y="62.9102">Tile</text><line style="stroke:#A80036;stroke-width:1.5;" x1="781" x2="831" y1="74" y2="74"/><line style="stroke:#A80036;stroke-width:1.5;" x1="781" x2="831" y1="82" y2="82"/><!--MD5=[664963052afdfdad2e4e93f6abfb1c33]
class world.TileLayer--><rect codeLine="71" fill="#FEFECE" filter="url(#f1o1tr2ctygzi5)" height="48" id="world.TileLayer" style="stroke:#A80036;stroke-width:1.5;" width="82" x="872" y="398"/><ellipse cx="887" cy="414" fill="#ADD1B2" rx="11" ry="11" style="stroke:#A80036;stroke-width:1.0;"/><path d="M889,410.5 Q889.2031,410 889.4375,409.75 Q889.6719,409.5 889.9375,409.5 Q890.4063,409.5 890.7031,409.7813 Q891,410.0625 891,410.7188 L891,412.2813 Q891,412.9375 890.7188,413.2188 Q890.4375,413.5 890,413.5 Q889.6094,413.5 889.3594,413.3281 Q889.1094,413.1563 889,412.7031 Q888.9531,412.3906 888.7813,412.2188 Q888.4688,411.8906 887.9063,411.7031 Q887.3438,411.5 886.7813,411.5 Q886.0781,411.5 885.4844,411.7813 Q884.9063,412.0625 884.4531,412.6875 Q884,413.3125 884,414.1719 L884,415.0938 Q884,416.125 884.8438,416.8125 Q885.6875,417.5 887.1875,417.5 Q888.0781,417.5 888.7031,417.2969 Q889.0625,417.1875 889.4688,416.8281 Q889.7344,416.625 889.875,416.5625 Q890.0156,416.5 890.1875,416.5 Q890.5156,416.5 890.75,416.7656 Q891,417.0156 891,417.375 Q891,417.7188 890.6563,418.125 Q890.1563,418.7188 889.3594,419.0469 Q888.3125,419.5 887.0313,419.5 Q885.5313,419.5 884.3281,418.9063 Q883.3594,418.4375 882.6719,417.4219 Q882,416.4063 882,415.2031 L882,414.1094 Q882,412.8594 882.5938,411.7656 Q883.2031,410.6719 884.25,410.0938 Q885.3125,409.5 886.5,409.5 Q887.2188,409.5 887.8438,409.75 Q888.4688,410 889,410.5 Z " fill="#000000"/><text fill="#000000" font-family="sans-serif" font-size="12" lengthAdjust="spacing" textLength="50" x="901" y="418.9102">TileLayer</text><line style="stroke:#A80036;stroke-width:1.5;" x1="873" x2="953" y1="430" y2="430"/><line style="stroke:#A80036;stroke-width:1.5;" x1="873" x2="953" y1="438" y2="438"/><!--MD5=[16a2a2eaaa6a5cc5f4df8c56f6e29488]
class world.Tileset--><rect codeLine="74" fill="#FEFECE" filter="url(#f1o1tr2ctygzi5)" height="48" id="world.Tileset" style="stroke:#A80036;stroke-width:1.5;" width="69" x="878.5" y="522"/><ellipse cx="893.5" cy="538" fill="#ADD1B2" rx="11" ry="11" style="stroke:#A80036;stroke-width:1.0;"/><path d="M895.5,534.5 Q895.7031,534 895.9375,533.75 Q896.1719,533.5 896.4375,533.5 Q896.9063,533.5 897.2031,533.7813 Q897.5,534.0625 897.5,534.7188 L897.5,536.2813 Q897.5,536.9375 897.2188,537.2188 Q896.9375,537.5 896.5,537.5 Q896.1094,537.5 895.8594,537.3281 Q895.6094,537.1563 895.5,536.7031 Q895.4531,536.3906 895.2813,536.2188 Q894.9688,535.8906 894.4063,535.7031 Q893.8438,535.5 893.2813,535.5 Q892.5781,535.5 891.9844,535.7813 Q891.4063,536.0625 890.9531,536.6875 Q890.5,537.3125 890.5,538.1719 L890.5,539.0938 Q890.5,540.125 891.3438,540.8125 Q892.1875,541.5 893.6875,541.5 Q894.5781,541.5 895.2031,541.2969 Q895.5625,541.1875 895.9688,540.8281 Q896.2344,540.625 896.375,540.5625 Q896.5156,540.5 896.6875,540.5 Q897.0156,540.5 897.25,540.7656 Q897.5,541.0156 897.5,541.375 Q897.5,541.7188 897.1563,542.125 Q896.6563,542.7188 895.8594,543.0469 Q894.8125,543.5 893.5313,543.5 Q892.0313,543.5 890.8281,542.9063 Q889.8594,542.4375 889.1719,541.4219 Q888.5,540.4063 888.5,539.2031 L888.5,538.1094 Q888.5,536.8594 889.0938,535.7656 Q889.7031,534.6719 890.75,534.0938 Q891.8125,533.5 893,533.5 Q893.7188,533.5 894.3438,533.75 Q894.9688,534 895.5,534.5 Z " fill="#000000"/><text fill="#000000" font-family="sans-serif" font-size="12" lengthAdjust="spacing" textLength="37" x="907.5" y="542.9102">Tileset</text><line style="stroke:#A80036;stroke-width:1.5;" x1="879.5" x2="946.5" y1="554" y2="554"/><line style="stroke:#A80036;stroke-width:1.5;" x1="879.5" x2="946.5" y1="562" y2="562"/><!--MD5=[9b15561b5a79df87694001dece61cd3f]
class states.Menu--><rect codeLine="37" fill="#FEFECE" filter="url(#f1o1tr2ctygzi5)" height="48" id="states.Menu" style="stroke:#A80036;stroke-width:1.5;" width="62" x="1116" y="42"/><ellipse cx="1131" cy="58" fill="#ADD1B2" rx="11" ry="11" style="stroke:#A80036;stroke-width:1.0;"/><path d="M1133,54.5 Q1133.2031,54 1133.4375,53.75 Q1133.6719,53.5 1133.9375,53.5 Q1134.4063,53.5 1134.7031,53.7813 Q1135,54.0625 1135,54.7188 L1135,56.2813 Q1135,56.9375 1134.7188,57.2188 Q1134.4375,57.5 1134,57.5 Q1133.6094,57.5 1133.3594,57.3281 Q1133.1094,57.1563 1133,56.7031 Q1132.9531,56.3906 1132.7813,56.2188 Q1132.4688,55.8906 1131.9063,55.7031 Q1131.3438,55.5 1130.7813,55.5 Q1130.0781,55.5 1129.4844,55.7813 Q1128.9063,56.0625 1128.4531,56.6875 Q1128,57.3125 1128,58.1719 L1128,59.0938 Q1128,60.125 1128.8438,60.8125 Q1129.6875,61.5 1131.1875,61.5 Q1132.0781,61.5 1132.7031,61.2969 Q1133.0625,61.1875 1133.4688,60.8281 Q1133.7344,60.625 1133.875,60.5625 Q1134.0156,60.5 1134.1875,60.5 Q1134.5156,60.5 1134.75,60.7656 Q1135,61.0156 1135,61.375 Q1135,61.7188 1134.6563,62.125 Q1134.1563,62.7188 1133.3594,63.0469 Q1132.3125,63.5 1131.0313,63.5 Q1129.5313,63.5 1128.3281,62.9063 Q1127.3594,62.4375 1126.6719,61.4219 Q1126,60.4063 1126,59.2031 L1126,58.1094 Q1126,56.8594 1126.5938,55.7656 Q1127.2031,54.6719 1128.25,54.0938 Q1129.3125,53.5 1130.5,53.5 Q1131.2188,53.5 1131.8438,53.75 Q1132.4688,54 1133,54.5 Z " fill="#000000"/><text fill="#000000" font-family="sans-serif" font-size="12" lengthAdjust="spacing" textLength="30" x="1145" y="62.9102">Menu</text><line style="stroke:#A80036;stroke-width:1.5;" x1="1117" x2="1177" y1="74" y2="74"/><line style="stroke:#A80036;stroke-width:1.5;" x1="1117" x2="1177" y1="82" y2="82"/><!--MD5=[161adf73dd9d2b0eaa5a51b7c8d9fcc3]
class states.Game--><rect codeLine="54" fill="#FEFECE" filter="url(#f1o1tr2ctygzi5)" height="48" id="states.Game" style="stroke:#A80036;stroke-width:1.5;" width="66" x="1015" y="42"/><ellipse cx="1030" cy="58" fill="#ADD1B2" rx="11" ry="11" style="stroke:#A80036;stroke-width:1.0;"/><path d="M1032,54.5 Q1032.2031,54 1032.4375,53.75 Q1032.6719,53.5 1032.9375,53.5 Q1033.4063,53.5 1033.7031,53.7813 Q1034,54.0625 1034,54.7188 L1034,56.2813 Q1034,56.9375 1033.7188,57.2188 Q1033.4375,57.5 1033,57.5 Q1032.6094,57.5 1032.3594,57.3281 Q1032.1094,57.1563 1032,56.7031 Q1031.9531,56.3906 1031.7813,56.2188 Q1031.4688,55.8906 1030.9063,55.7031 Q1030.3438,55.5 1029.7813,55.5 Q1029.0781,55.5 1028.4844,55.7813 Q1027.9063,56.0625 1027.4531,56.6875 Q1027,57.3125 1027,58.1719 L1027,59.0938 Q1027,60.125 1027.8438,60.8125 Q1028.6875,61.5 1030.1875,61.5 Q1031.0781,61.5 1031.7031,61.2969 Q1032.0625,61.1875 1032.4688,60.8281 Q1032.7344,60.625 1032.875,60.5625 Q1033.0156,60.5 1033.1875,60.5 Q1033.5156,60.5 1033.75,60.7656 Q1034,61.0156 1034,61.375 Q1034,61.7188 1033.6563,62.125 Q1033.1563,62.7188 1032.3594,63.0469 Q1031.3125,63.5 1030.0313,63.5 Q1028.5313,63.5 1027.3281,62.9063 Q1026.3594,62.4375 1025.6719,61.4219 Q1025,60.4063 1025,59.2031 L1025,58.1094 Q1025,56.8594 1025.5938,55.7656 Q1026.2031,54.6719 1027.25,54.0938 Q1028.3125,53.5 1029.5,53.5 Q1030.2188,53.5 1030.8438,53.75 Q1031.4688,54 1032,54.5 Z " fill="#000000"/><text fill="#000000" font-family="sans-serif" font-size="12" lengthAdjust="spacing" textLength="34" x="1044" y="62.9102">Game</text><line style="stroke:#A80036;stroke-width:1.5;" x1="1016" x2="1080" y1="74" y2="74"/><line style="stroke:#A80036;stroke-width:1.5;" x1="1016" x2="1080" y1="82" y2="82"/><!--MD5=[dca5add05f152826089ba23671ae244c]
class utils.Board--><rect codeLine="57" fill="#FEFECE" filter="url(#f1o1tr2ctygzi5)" height="48" id="utils.Board" style="stroke:#A80036;stroke-width:1.5;" width="65" x="32.5" y="42"/><ellipse cx="47.5" cy="58" fill="#ADD1B2" rx="11" ry="11" style="stroke:#A80036;stroke-width:1.0;"/><path d="M49.5,54.5 Q49.7031,54 49.9375,53.75 Q50.1719,53.5 50.4375,53.5 Q50.9063,53.5 51.2031,53.7813 Q51.5,54.0625 51.5,54.7188 L51.5,56.2813 Q51.5,56.9375 51.2188,57.2188 Q50.9375,57.5 50.5,57.5 Q50.1094,57.5 49.8594,57.3281 Q49.6094,57.1563 49.5,56.7031 Q49.4531,56.3906 49.2813,56.2188 Q48.9688,55.8906 48.4063,55.7031 Q47.8438,55.5 47.2813,55.5 Q46.5781,55.5 45.9844,55.7813 Q45.4063,56.0625 44.9531,56.6875 Q44.5,57.3125 44.5,58.1719 L44.5,59.0938 Q44.5,60.125 45.3438,60.8125 Q46.1875,61.5 47.6875,61.5 Q48.5781,61.5 49.2031,61.2969 Q49.5625,61.1875 49.9688,60.8281 Q50.2344,60.625 50.375,60.5625 Q50.5156,60.5 50.6875,60.5 Q51.0156,60.5 51.25,60.7656 Q51.5,61.0156 51.5,61.375 Q51.5,61.7188 51.1563,62.125 Q50.6563,62.7188 49.8594,63.0469 Q48.8125,63.5 47.5313,63.5 Q46.0313,63.5 44.8281,62.9063 Q43.8594,62.4375 43.1719,61.4219 Q42.5,60.4063 42.5,59.2031 L42.5,58.1094 Q42.5,56.8594 43.0938,55.7656 Q43.7031,54.6719 44.75,54.0938 Q45.8125,53.5 47,53.5 Q47.7188,53.5 48.3438,53.75 Q48.9688,54 49.5,54.5 Z " fill="#000000"/><text fill="#000000" font-family="sans-serif" font-size="12" lengthAdjust="spacing" textLength="33" x="61.5" y="62.9102">Board</text><line style="stroke:#A80036;stroke-width:1.5;" x1="33.5" x2="96.5" y1="74" y2="74"/><line style="stroke:#A80036;stroke-width:1.5;" x1="33.5" x2="96.5" y1="82" y2="82"/><!--MD5=[629c6d17119cecbb56307adb03ce148e]
class utils.IOHandler--><rect codeLine="77" fill="#FEFECE" filter="url(#f1o1tr2ctygzi5)" height="48" id="utils.IOHandler" style="stroke:#A80036;stroke-width:1.5;" width="88" x="249" y="42"/><ellipse cx="264" cy="58" fill="#ADD1B2" rx="11" ry="11" style="stroke:#A80036;stroke-width:1.0;"/><path d="M266,54.5 Q266.2031,54 266.4375,53.75 Q266.6719,53.5 266.9375,53.5 Q267.4063,53.5 267.7031,53.7813 Q268,54.0625 268,54.7188 L268,56.2813 Q268,56.9375 267.7188,57.2188 Q267.4375,57.5 267,57.5 Q266.6094,57.5 266.3594,57.3281 Q266.1094,57.1563 266,56.7031 Q265.9531,56.3906 265.7813,56.2188 Q265.4688,55.8906 264.9063,55.7031 Q264.3438,55.5 263.7813,55.5 Q263.0781,55.5 262.4844,55.7813 Q261.9063,56.0625 261.4531,56.6875 Q261,57.3125 261,58.1719 L261,59.0938 Q261,60.125 261.8438,60.8125 Q262.6875,61.5 264.1875,61.5 Q265.0781,61.5 265.7031,61.2969 Q266.0625,61.1875 266.4688,60.8281 Q266.7344,60.625 266.875,60.5625 Q267.0156,60.5 267.1875,60.5 Q267.5156,60.5 267.75,60.7656 Q268,61.0156 268,61.375 Q268,61.7188 267.6563,62.125 Q267.1563,62.7188 266.3594,63.0469 Q265.3125,63.5 264.0313,63.5 Q262.5313,63.5 261.3281,62.9063 Q260.3594,62.4375 259.6719,61.4219 Q259,60.4063 259,59.2031 L259,58.1094 Q259,56.8594 259.5938,55.7656 Q260.2031,54.6719 261.25,54.0938 Q262.3125,53.5 263.5,53.5 Q264.2188,53.5 264.8438,53.75 Q265.4688,54 266,54.5 Z " fill="#000000"/><text fill="#000000" font-family="sans-serif" font-size="12" lengthAdjust="spacing" textLength="56" x="278" y="62.9102">IOHandler</text><line style="stroke:#A80036;stroke-width:1.5;" x1="250" x2="336" y1="74" y2="74"/><line style="stroke:#A80036;stroke-width:1.5;" x1="250" x2="336" y1="82" y2="82"/><!--MD5=[c94bf9e2a94e1f74890cbcf91aab3a62]
class utils.IOObject--><rect codeLine="81" fill="#FEFECE" filter="url(#f1o1tr2ctygzi5)" height="48" id="utils.IOObject" style="stroke:#A80036;stroke-width:1.5;" width="81" x="132.5" y="42"/><ellipse cx="147.5" cy="58" fill="#A9DCDF" rx="11" ry="11" style="stroke:#A80036;stroke-width:1.0;"/><path d="M149.25,59.5 L145.9531,59.5 L145.5156,60.5 L145.5156,60.5 L145.9844,60.5 L146.5,61.125 L146.5,61.5 L146.5,61.875 L145.9844,62.5 L145.5156,62.5 L143.625,62.5 L143.0156,62.5 L142.5,61.875 L142.5,61.5 L142.5,61.125 L143.0156,60.5 L143.625,60.5 L145.9375,54.5 L145.0625,54.5 L144.0156,54.5 L143.5,53.875 L143.5,53.5 L143.5,53.125 L144.0156,52.5 L145.0625,52.5 L148.7344,52.5 L151.4219,60.5 L151.9844,60.5 L151.9844,60.5 L152.5,61.125 L152.5,61.5 L152.5,61.875 L151.9844,62.5 L151.4219,62.5 L149.5313,62.5 L149.0156,62.5 L148.5,61.875 L148.5,61.5 L148.5,61.125 L149.0156,60.5 L149.5313,60.5 L149.5313,60.5 L149.25,59.5 Z M148.7031,57.5 L147.5,53.9219 L146.4688,57.5 L148.7031,57.5 Z " fill="#000000"/><text fill="#000000" font-family="sans-serif" font-size="12" font-style="italic" lengthAdjust="spacing" textLength="49" x="161.5" y="62.9102">IOObject</text><line style="stroke:#A80036;stroke-width:1.5;" x1="133.5" x2="212.5" y1="74" y2="74"/><line style="stroke:#A80036;stroke-width:1.5;" x1="133.5" x2="212.5" y1="82" y2="82"/><!--MD5=[e7d94b46357b5bc331758902d85e5c6c]
class utils.ItemTimer--><rect codeLine="84" fill="#FEFECE" filter="url(#f1o1tr2ctygzi5)" height="48" id="utils.ItemTimer" style="stroke:#A80036;stroke-width:1.5;" width="88" x="32" y="166"/><ellipse cx="47" cy="182" fill="#ADD1B2" rx="11" ry="11" style="stroke:#A80036;stroke-width:1.0;"/><path d="M49,178.5 Q49.2031,178 49.4375,177.75 Q49.6719,177.5 49.9375,177.5 Q50.4063,177.5 50.7031,177.7813 Q51,178.0625 51,178.7188 L51,180.2813 Q51,180.9375 50.7188,181.2188 Q50.4375,181.5 50,181.5 Q49.6094,181.5 49.3594,181.3281 Q49.1094,181.1563 49,180.7031 Q48.9531,180.3906 48.7813,180.2188 Q48.4688,179.8906 47.9063,179.7031 Q47.3438,179.5 46.7813,179.5 Q46.0781,179.5 45.4844,179.7813 Q44.9063,180.0625 44.4531,180.6875 Q44,181.3125 44,182.1719 L44,183.0938 Q44,184.125 44.8438,184.8125 Q45.6875,185.5 47.1875,185.5 Q48.0781,185.5 48.7031,185.2969 Q49.0625,185.1875 49.4688,184.8281 Q49.7344,184.625 49.875,184.5625 Q50.0156,184.5 50.1875,184.5 Q50.5156,184.5 50.75,184.7656 Q51,185.0156 51,185.375 Q51,185.7188 50.6563,186.125 Q50.1563,186.7188 49.3594,187.0469 Q48.3125,187.5 47.0313,187.5 Q45.5313,187.5 44.3281,186.9063 Q43.3594,186.4375 42.6719,185.4219 Q42,184.4063 42,183.2031 L42,182.1094 Q42,180.8594 42.5938,179.7656 Q43.2031,178.6719 44.25,178.0938 Q45.3125,177.5 46.5,177.5 Q47.2188,177.5 47.8438,177.75 Q48.4688,178 49,178.5 Z " fill="#000000"/><text fill="#000000" font-family="sans-serif" font-size="12" lengthAdjust="spacing" textLength="56" x="61" y="186.9102">ItemTimer</text><line style="stroke:#A80036;stroke-width:1.5;" x1="33" x2="119" y1="198" y2="198"/><line style="stroke:#A80036;stroke-width:1.5;" x1="33" x2="119" y1="206" y2="206"/><!--MD5=[10f778e5ada94756d417f03c09e3f7bc]
reverse link entities.creatures.Creature to entities.creatures.Player--><path codeLine="89" d="M547.38,358.02 C546.86,371.58 546.32,386.04 545.88,397.68 " fill="none" id="entities.creatures.Creature-backto-entities.creatures.Player" style="stroke:#A80036;stroke-width:1.0;"/><polygon fill="none" points="540.38,357.72,548.13,338,554.37,358.25,540.38,357.72" style="stroke:#A80036;stroke-width:1.0;"/><!--MD5=[a835d6e75637d0a35a79f17d88e81d24]
reverse link entities.Entity to entities.creatures.Creature--><path codeLine="92" d="M549,234.27 C549,253.01 549,274.18 549,289.85 " fill="none" id="entities.Entity-backto-entities.creatures.Creature" style="stroke:#A80036;stroke-width:1.0;"/><polygon fill="none" points="542,234.23,549,214.23,556,234.23,542,234.23" style="stroke:#A80036;stroke-width:1.0;"/><!--MD5=[04317c9b876fc3e4a5c0fa61d8f86068]
reverse link entities.Entity to entities.items.Item--><path codeLine="95" d="M511.27,228.08 C507.52,231.5 503.72,234.85 500,238 C476.48,257.88 448.23,278.61 427.59,293.23 " fill="none" id="entities.Entity-backto-entities.items.Item" style="stroke:#A80036;stroke-width:1.0;"/><polygon fill="none" points="506.77,222.71,526.13,214.09,516.37,232.9,506.77,222.71" style="stroke:#A80036;stroke-width:1.0;"/><!--MD5=[16d80ee4e8157af449c78820c72f45ec]
reverse link utils.IOObject to entities.Entity--><path codeLine="98" d="M210.7,102.62 C217.37,107.23 224.58,111.28 232,114 C259.97,124.25 473.64,108.12 500,122 C517.85,131.4 530.83,150.56 538.93,165.99 " fill="none" id="utils.IOObject-backto-entities.Entity" style="stroke:#A80036;stroke-width:1.0;"/><polygon fill="none" points="206.23,108.02,194.93,90.09,214.94,97.06,206.23,108.02" style="stroke:#A80036;stroke-width:1.0;"/><!--MD5=[099af974e4d8c4930944301d06aadd20]
reverse link entities.items.Item to entities.items.BombCollectable--><path codeLine="101" d="M353.85,346.49 C330.22,362.96 301.81,382.78 280.22,397.83 " fill="none" id="entities.items.Item-backto-entities.items.BombCollectable" style="stroke:#A80036;stroke-width:1.0;"/><polygon fill="none" points="350,340.64,370.41,334.94,358.01,352.12,350,340.64" style="stroke:#A80036;stroke-width:1.0;"/><!--MD5=[6684e57e27f659cc4f7d8353e9c665cd]
reverse link entities.items.Item to entities.items.BombPlanted--><path codeLine="104" d="M399,358.02 C399,371.58 399,386.04 399,397.68 " fill="none" id="entities.items.Item-backto-entities.items.BombPlanted" style="stroke:#A80036;stroke-width:1.0;"/><polygon fill="none" points="392,358,399,338,406,358,392,358" style="stroke:#A80036;stroke-width:1.0;"/><!--MD5=[17096a5022e9768a8096a03d462e8eef]
reverse link world.Layer to world.TileLayer--><path codeLine="107" d="M913,358.02 C913,371.58 913,386.04 913,397.68 " fill="none" id="world.Layer-backto-world.TileLayer" style="stroke:#A80036;stroke-width:1.0;"/><polygon fill="none" points="906,358,913,338,920,358,906,358" style="stroke:#A80036;stroke-width:1.0;"/><!--MD5=[8d2db7110221b90f4d8ef6a899383274]
reverse link entities.items.BombCollectable to gfx.TextureManager--><path codeLine="112" d="M234.82,458.7 C224.59,495.55 215.35,553.25 241,594 C255,616.25 279.99,630.3 303.8,639.07 " fill="none" id="entities.items.BombCollectable-backto-gfx.TextureManager" style="stroke:#A80036;stroke-width:1.0;"/><polygon fill="#FFFFFF" points="238.57,446.13,233.0224,450.7369,235.1412,457.6297,240.6888,453.0228,238.57,446.13" style="stroke:#A80036;stroke-width:1.0;"/><!--MD5=[7b43d8d9c5e321060e85453c7686acf2]
reverse link entities.items.BombPlanted to gfx.Animation--><path codeLine="115" d="M402.88,459.42 C405.04,479.66 407.66,504.24 409.53,521.85 " fill="none" id="entities.items.BombPlanted-backto-gfx.Animation" style="stroke:#A80036;stroke-width:1.0;"/><polygon fill="#FFFFFF" points="401.48,446.23,398.1352,452.6185,402.7458,458.1631,406.0906,451.7746,401.48,446.23" style="stroke:#A80036;stroke-width:1.0;"/><!--MD5=[1033a3e59b607c4d0988c914c9ff53e9]
reverse link gfx.DrawManager to gfx.Vector2D--><path codeLine="118" d="M545,583.34 C545,598.68 545,616.1 545,629.68 " fill="none" id="gfx.DrawManager-backto-gfx.Vector2D" style="stroke:#A80036;stroke-width:1.0;"/><polygon fill="#FFFFFF" points="545,570,541,576,545,582,549,576,545,570" style="stroke:#A80036;stroke-width:1.0;"/><!--MD5=[06c8f4031f32bc58dc0f9b17d595e51a]
reverse link entities.Entity to gfx.Transform--><path codeLine="121" d="M588.05,223.65 C594.45,230.48 600.46,238.05 605,246 C658,338.89 673.36,469.14 677.54,521.67 " fill="none" id="entities.Entity-backto-gfx.Transform" style="stroke:#A80036;stroke-width:1.0;"/><polygon fill="#FFFFFF" points="578.52,214.19,579.9617,221.2555,587.0382,222.6423,585.5965,215.5767,578.52,214.19" style="stroke:#A80036;stroke-width:1.0;"/><!--MD5=[e6c69a633ed1049a0e7609d1d310e69c]
reverse link states.Game to world.GameMap--><path codeLine="124" d="M1012.47,99.11 C989.27,120.08 959.51,146.97 938.61,165.85 " fill="none" id="states.Game-backto-world.GameMap" style="stroke:#A80036;stroke-width:1.0;"/><polygon fill="#FFFFFF" points="1022.29,90.23,1015.1566,91.2857,1013.3875,98.2765,1020.5209,97.2207,1022.29,90.23" style="stroke:#A80036;stroke-width:1.0;"/><!--MD5=[46ac167ed1ddf2cf564eff04ea1b5b2a]
reverse link world.GameMap to world.Layer--><path codeLine="127" d="M913,227.42 C913,247.66 913,272.24 913,289.85 " fill="none" id="world.GameMap-backto-world.Layer" style="stroke:#A80036;stroke-width:1.0;"/><polygon fill="#FFFFFF" points="913,214.23,909,220.23,913,226.23,917,220.23,913,214.23" style="stroke:#A80036;stroke-width:1.0;"/><!--MD5=[93f83c5ab99c1d2280c924b910bccc7b]
reverse link world.MapParser to world.GameMap--><path codeLine="130" d="M913,103.42 C913,123.66 913,148.24 913,165.85 " fill="none" id="world.MapParser-backto-world.GameMap" style="stroke:#A80036;stroke-width:1.0;"/><polygon fill="#FFFFFF" points="913,90.23,909,96.23,913,102.23,917,96.23,913,90.23" style="stroke:#A80036;stroke-width:1.0;"/><!--MD5=[a7cc82530030d4968bd2040d06b31cef]
reverse link entities.creatures.Player to gfx.Animation--><path codeLine="133" d="M501.45,454.27 C491.81,461.73 481.84,469.89 473,478 C458.16,491.61 442.91,508.36 431.37,521.71 " fill="none" id="entities.creatures.Player-backto-gfx.Animation" style="stroke:#A80036;stroke-width:1.0;"/><polygon fill="#FFFFFF" points="512.11,446.18,504.9123,446.6196,502.5497,453.4326,509.7474,452.9931,512.11,446.18" style="stroke:#A80036;stroke-width:1.0;"/><!--MD5=[dbbe94031ce551aebe6dc52ae1f57bf7]
reverse link entities.creatures.Player to gfx.DrawManager--><path codeLine="136" d="M545,459.42 C545,479.66 545,504.24 545,521.85 " fill="none" id="entities.creatures.Player-backto-gfx.DrawManager" style="stroke:#A80036;stroke-width:1.0;"/><polygon fill="#FFFFFF" points="545,446.23,541,452.23,545,458.23,549,452.23,545,446.23" style="stroke:#A80036;stroke-width:1.0;"/><!--MD5=[992167aa91069c83fccfdba82f6392d8]
reverse link gfx.Animation to gfx.TextureManager--><path codeLine="139" d="M396.18,581.94 C389.08,597.61 380.9,615.68 374.56,629.68 " fill="none" id="gfx.Animation-backto-gfx.TextureManager" style="stroke:#A80036;stroke-width:1.0;"/><polygon fill="#FFFFFF" points="401.58,570,395.4627,573.8181,396.6342,580.9334,402.7516,577.1153,401.58,570" style="stroke:#A80036;stroke-width:1.0;"/><!--MD5=[23cd05996af9d076982a26ce4bae3957]
reverse link world.TileLayer to world.Tileset--><path codeLine="142" d="M913,459.42 C913,479.66 913,504.24 913,521.85 " fill="none" id="world.TileLayer-backto-world.Tileset" style="stroke:#A80036;stroke-width:1.0;"/><polygon fill="#A80036" points="913,446.23,909,452.23,913,458.23,917,452.23,913,446.23" style="stroke:#A80036;stroke-width:1.0;"/><!--MD5=[be58c174d7b68f8674e95bf4b668ff4a]
link utils.Board to utils.IOHandler--><!--MD5=[7b2be74666691fb96aa7abc4b31b18f8]
link utils.Board to utils.ItemTimer--><!--MD5=[f3345530dbd87563367c57c8bb76f44d]
@startuml
/' Objects '/
abstract class entities.Entity {
}

abstract class entities.items.Item {
}

class entities.items.BombCollectable {
}


class entities.items.BombPlanted {
}


abstract class entities.creatures.Creature {
}

class entities.creatures.Player {
}

class gfx.Animation {
}


class gfx.DrawManager {
}

abstract class world.Layer {
}


class world.MapParser {
}


class states.Menu {
}

class gfx.TextureManager {
}


class gfx.Transform {
}


class gfx.Vector2D {
}

class entities.Properties {
}

class states.Game {
}

class utils.Board {
}


class world.GameMap {
}

class gfx.UILabel {
}

class world.Tile {
}


class world.TileLayer {
}

class world.Tileset {
}

class utils.IOHandler {
}


abstract class utils.IOObject {
}

class utils.ItemTimer {
}

/' Inheritance relationships '/

.entities.creatures.Creature <|- - .entities.creatures.Player


.entities.Entity <|- - .entities.creatures.Creature


.entities.Entity <|- - .entities.items.Item


.utils.IOObject <|- - .entities.Entity


.entities.items.Item <|- - .entities.items.BombCollectable


.entities.items.Item <|- - .entities.items.BombPlanted


.world.Layer <|- - .world.TileLayer

/' Aggregation relationships '/


.entities.items.BombCollectable o- - .gfx.TextureManager


.entities.items.BombPlanted o- - .gfx.Animation


.gfx.DrawManager o- - .gfx.Vector2D


.entities.Entity o- - .gfx.Transform


.states.Game o- - .world.GameMap


.world.GameMap o- - .world.Layer


.world.MapParser o- - .world.GameMap


.entities.creatures.Player o- - .gfx.Animation


.entities.creatures.Player o- - .gfx.DrawManager


.gfx.Animation o- - .gfx.TextureManager


.world.TileLayer *- - .world.Tileset


/' Nested objects '/


@enduml

@startuml
abstract class entities.Entity {
}

abstract class entities.items.Item {
}

class entities.items.BombCollectable {
}


class entities.items.BombPlanted {
}


abstract class entities.creatures.Creature {
}

class entities.creatures.Player {
}

class gfx.Animation {
}


class gfx.DrawManager {
}

abstract class world.Layer {
}


class world.MapParser {
}


class states.Menu {
}

class gfx.TextureManager {
}


class gfx.Transform {
}


class gfx.Vector2D {
}

class entities.Properties {
}

class states.Game {
}

class utils.Board {
}


class world.GameMap {
}

class gfx.UILabel {
}

class world.Tile {
}


class world.TileLayer {
}

class world.Tileset {
}

class utils.IOHandler {
}


abstract class utils.IOObject {
}

class utils.ItemTimer {
}


.entities.creatures.Creature <|- - .entities.creatures.Player


.entities.Entity <|- - .entities.creatures.Creature


.entities.Entity <|- - .entities.items.Item


.utils.IOObject <|- - .entities.Entity


.entities.items.Item <|- - .entities.items.BombCollectable


.entities.items.Item <|- - .entities.items.BombPlanted


.world.Layer <|- - .world.TileLayer



.entities.items.BombCollectable o- - .gfx.TextureManager


.entities.items.BombPlanted o- - .gfx.Animation


.gfx.DrawManager o- - .gfx.Vector2D


.entities.Entity o- - .gfx.Transform


.states.Game o- - .world.GameMap


.world.GameMap o- - .world.Layer


.world.MapParser o- - .world.GameMap


.entities.creatures.Player o- - .gfx.Animation


.entities.creatures.Player o- - .gfx.DrawManager


.gfx.Animation o- - .gfx.TextureManager


.world.TileLayer *- - .world.Tileset




@enduml

PlantUML version 1.2021.01(Tue Feb 02 15:55:08 SGT 2021)
(GPL source distribution)
Java Runtime: OpenJDK Runtime Environment
JVM: OpenJDK 64-Bit Server VM
Default Encoding: Cp1252
Language: en
Country: SG
--></g></svg>