<?xml version="1.0" encoding="UTF-8" standalone="no"?><svg xmlns="http://www.w3.org/2000/svg" xmlns:xlink="http://www.w3.org/1999/xlink" contentScriptType="application/ecmascript" contentStyleType="text/css" height="701px" preserveAspectRatio="none" style="width:1182px;height:701px;" version="1.1" viewBox="0 0 1182 701" width="1182px" zoomAndPan="magnify"><defs><filter height="300%" id="fblzanwlpl854" width="300%" x="-1" y="-1"><feGaussianBlur result="blurOut" stdDeviation="2.0"/><feColorMatrix in="blurOut" result="blurOut2" type="matrix" values="0 0 0 0 0 0 0 0 0 0 0 0 0 0 0 0 0 0 .4 0"/><feOffset dx="4.0" dy="4.0" in="blurOut2" result="blurOut3"/><feBlend in="SourceGraphic" in2="blurOut3" mode="normal"/></filter></defs><g><!--MD5=[2a013135f1f90689be40a3c084fed702]
cluster entities--><polygon fill="#FFFFFF" filter="url(#fblzanwlpl854)" points="226,130,285,130,292,153.6094,445,153.6094,445,230,226,230,226,130" style="stroke:#000000;stroke-width:1.5;"/><line style="stroke:#000000;stroke-width:1.5;" x1="226" x2="292" y1="153.6094" y2="153.6094"/><text fill="#000000" font-family="sans-serif" font-size="14" font-weight="bold" lengthAdjust="spacing" textLength="53" x="230" y="146.5332">entities</text><!--MD5=[1cda01132c61fe02d01ee0e1238bf64b]
cluster entities.items--><polygon fill="#FFFFFF" filter="url(#fblzanwlpl854)" points="16,254,117,254,124,277.6094,318,277.6094,318,462,16,462,16,254" style="stroke:#000000;stroke-width:1.5;"/><line style="stroke:#000000;stroke-width:1.5;" x1="16" x2="124" y1="277.6094" y2="277.6094"/><text fill="#000000" font-family="sans-serif" font-size="14" font-weight="bold" lengthAdjust="spacing" textLength="95" x="20" y="270.5332">entities.items</text><!--MD5=[b47934f7eddf50b05bebba079a2d5c33]
cluster entities.creatures--><polygon fill="#FFFFFF" filter="url(#fblzanwlpl854)" points="342,254,473,254,480,277.6094,483,277.6094,483,462,342,462,342,254" style="stroke:#000000;stroke-width:1.5;"/><line style="stroke:#000000;stroke-width:1.5;" x1="342" x2="480" y1="277.6094" y2="277.6094"/><text fill="#000000" font-family="sans-serif" font-size="14" font-weight="bold" lengthAdjust="spacing" textLength="125" x="346" y="270.5332">entities.creatures</text><!--MD5=[67f236fd0af0b11b2ef5a832d8415319]
cluster gfx--><polygon fill="#FFFFFF" filter="url(#fblzanwlpl854)" points="91,486,119,486,126,509.6094,589,509.6094,589,694,91,694,91,486" style="stroke:#000000;stroke-width:1.5;"/><line style="stroke:#000000;stroke-width:1.5;" x1="91" x2="126" y1="509.6094" y2="509.6094"/><text fill="#000000" font-family="sans-serif" font-size="14" font-weight="bold" lengthAdjust="spacing" textLength="22" x="95" y="502.5332">gfx</text><!--MD5=[38fe1c859229b9f23ba24ebfd54228a3]
cluster world--><polygon fill="#FFFFFF" filter="url(#fblzanwlpl854)" points="613,6,658,6,665,29.6094,824,29.6094,824,586,613,586,613,6" style="stroke:#000000;stroke-width:1.5;"/><line style="stroke:#000000;stroke-width:1.5;" x1="613" x2="665" y1="29.6094" y2="29.6094"/><text fill="#000000" font-family="sans-serif" font-size="14" font-weight="bold" lengthAdjust="spacing" textLength="39" x="617" y="22.5332">world</text><!--MD5=[61ef0e7cedb036059990bfe942fe9360]
cluster states--><polygon fill="#FFFFFF" filter="url(#fblzanwlpl854)" points="848,6,897,6,904,29.6094,1043,29.6094,1043,106,848,106,848,6" style="stroke:#000000;stroke-width:1.5;"/><line style="stroke:#000000;stroke-width:1.5;" x1="848" x2="904" y1="29.6094" y2="29.6094"/><text fill="#000000" font-family="sans-serif" font-size="14" font-weight="bold" lengthAdjust="spacing" textLength="43" x="852" y="22.5332">states</text><!--MD5=[e25d2abf3c472b89b03b52c7e4262e29]
cluster interfaces--><polygon fill="#FFFFFF" filter="url(#fblzanwlpl854)" points="1067,6,1144,6,1151,29.6094,1165,29.6094,1165,106,1067,106,1067,6" style="stroke:#000000;stroke-width:1.5;"/><line style="stroke:#000000;stroke-width:1.5;" x1="1067" x2="1151" y1="29.6094" y2="29.6094"/><text fill="#000000" font-family="sans-serif" font-size="14" font-weight="bold" lengthAdjust="spacing" textLength="71" x="1071" y="22.5332">interfaces</text><!--MD5=[c52f45833d539af9e29a9d34b8b7302b]
cluster utils--><polygon fill="#FFFFFF" filter="url(#fblzanwlpl854)" points="218,6,254,6,261,29.6094,578,29.6094,578,106,218,106,218,6" style="stroke:#000000;stroke-width:1.5;"/><line style="stroke:#000000;stroke-width:1.5;" x1="218" x2="261" y1="29.6094" y2="29.6094"/><text fill="#000000" font-family="sans-serif" font-size="14" font-weight="bold" lengthAdjust="spacing" textLength="30" x="222" y="22.5332">utils</text><!--MD5=[6ea7ee656260804a75c4cf9e9f7baa9f]
class entities.Entity--><rect codeLine="2" fill="#FEFECE" filter="url(#fblzanwlpl854)" height="48" id="entities.Entity" style="stroke:#A80036;stroke-width:1.5;" width="62" x="367" y="166"/><ellipse cx="382" cy="182" fill="#A9DCDF" rx="11" ry="11" style="stroke:#A80036;stroke-width:1.0;"/><path d="M383.75,183.5 L380.4531,183.5 L380.0156,184.5 L380.0156,184.5 L380.4844,184.5 L381,185.125 L381,185.5 L381,185.875 L380.4844,186.5 L380.0156,186.5 L378.125,186.5 L377.5156,186.5 L377,185.875 L377,185.5 L377,185.125 L377.5156,184.5 L378.125,184.5 L380.4375,178.5 L379.5625,178.5 L378.5156,178.5 L378,177.875 L378,177.5 L378,177.125 L378.5156,176.5 L379.5625,176.5 L383.2344,176.5 L385.9219,184.5 L386.4844,184.5 L386.4844,184.5 L387,185.125 L387,185.5 L387,185.875 L386.4844,186.5 L385.9219,186.5 L384.0313,186.5 L383.5156,186.5 L383,185.875 L383,185.5 L383,185.125 L383.5156,184.5 L384.0313,184.5 L384.0313,184.5 L383.75,183.5 Z M383.2031,181.5 L382,177.9219 L380.9688,181.5 L383.2031,181.5 Z " fill="#000000"/><text fill="#000000" font-family="sans-serif" font-size="12" font-style="italic" lengthAdjust="spacing" textLength="30" x="396" y="186.9102">Entity</text><line style="stroke:#A80036;stroke-width:1.5;" x1="368" x2="428" y1="198" y2="198"/><line style="stroke:#A80036;stroke-width:1.5;" x1="368" x2="428" y1="206" y2="206"/><!--MD5=[70e37a7b411d2923c69276d426f1144b]
class entities.Properties--><rect codeLine="51" fill="#FEFECE" filter="url(#fblzanwlpl854)" height="48" id="entities.Properties" style="stroke:#A80036;stroke-width:1.5;" width="89" x="242.5" y="166"/><ellipse cx="257.5" cy="182" fill="#ADD1B2" rx="11" ry="11" style="stroke:#A80036;stroke-width:1.0;"/><path d="M259.5,178.5 Q259.7031,178 259.9375,177.75 Q260.1719,177.5 260.4375,177.5 Q260.9063,177.5 261.2031,177.7813 Q261.5,178.0625 261.5,178.7188 L261.5,180.2813 Q261.5,180.9375 261.2188,181.2188 Q260.9375,181.5 260.5,181.5 Q260.1094,181.5 259.8594,181.3281 Q259.6094,181.1563 259.5,180.7031 Q259.4531,180.3906 259.2813,180.2188 Q258.9688,179.8906 258.4063,179.7031 Q257.8438,179.5 257.2813,179.5 Q256.5781,179.5 255.9844,179.7813 Q255.4063,180.0625 254.9531,180.6875 Q254.5,181.3125 254.5,182.1719 L254.5,183.0938 Q254.5,184.125 255.3438,184.8125 Q256.1875,185.5 257.6875,185.5 Q258.5781,185.5 259.2031,185.2969 Q259.5625,185.1875 259.9688,184.8281 Q260.2344,184.625 260.375,184.5625 Q260.5156,184.5 260.6875,184.5 Q261.0156,184.5 261.25,184.7656 Q261.5,185.0156 261.5,185.375 Q261.5,185.7188 261.1563,186.125 Q260.6563,186.7188 259.8594,187.0469 Q258.8125,187.5 257.5313,187.5 Q256.0313,187.5 254.8281,186.9063 Q253.8594,186.4375 253.1719,185.4219 Q252.5,184.4063 252.5,183.2031 L252.5,182.1094 Q252.5,180.8594 253.0938,179.7656 Q253.7031,178.6719 254.75,178.0938 Q255.8125,177.5 257,177.5 Q257.7188,177.5 258.3438,177.75 Q258.9688,178 259.5,178.5 Z " fill="#000000"/><text fill="#000000" font-family="sans-serif" font-size="12" lengthAdjust="spacing" textLength="57" x="271.5" y="186.9102">Properties</text><line style="stroke:#A80036;stroke-width:1.5;" x1="243.5" x2="330.5" y1="198" y2="198"/><line style="stroke:#A80036;stroke-width:1.5;" x1="243.5" x2="330.5" y1="206" y2="206"/><!--MD5=[940610cbb1f849f08cd09d0d13097334]
class entities.items.Item--><rect codeLine="5" fill="#FEFECE" filter="url(#fblzanwlpl854)" height="48" id="entities.items.Item" style="stroke:#A80036;stroke-width:1.5;" width="57" x="219.5" y="290"/><ellipse cx="234.5" cy="306" fill="#A9DCDF" rx="11" ry="11" style="stroke:#A80036;stroke-width:1.0;"/><path d="M236.25,307.5 L232.9531,307.5 L232.5156,308.5 L232.5156,308.5 L232.9844,308.5 L233.5,309.125 L233.5,309.5 L233.5,309.875 L232.9844,310.5 L232.5156,310.5 L230.625,310.5 L230.0156,310.5 L229.5,309.875 L229.5,309.5 L229.5,309.125 L230.0156,308.5 L230.625,308.5 L232.9375,302.5 L232.0625,302.5 L231.0156,302.5 L230.5,301.875 L230.5,301.5 L230.5,301.125 L231.0156,300.5 L232.0625,300.5 L235.7344,300.5 L238.4219,308.5 L238.9844,308.5 L238.9844,308.5 L239.5,309.125 L239.5,309.5 L239.5,309.875 L238.9844,310.5 L238.4219,310.5 L236.5313,310.5 L236.0156,310.5 L235.5,309.875 L235.5,309.5 L235.5,309.125 L236.0156,308.5 L236.5313,308.5 L236.5313,308.5 L236.25,307.5 Z M235.7031,305.5 L234.5,301.9219 L233.4688,305.5 L235.7031,305.5 Z " fill="#000000"/><text fill="#000000" font-family="sans-serif" font-size="12" font-style="italic" lengthAdjust="spacing" textLength="25" x="248.5" y="310.9102">Item</text><line style="stroke:#A80036;stroke-width:1.5;" x1="220.5" x2="275.5" y1="322" y2="322"/><line style="stroke:#A80036;stroke-width:1.5;" x1="220.5" x2="275.5" y1="330" y2="330"/><!--MD5=[20708c2183c059c6e7611171a8a57f32]
class entities.items.BombCollectable--><rect codeLine="8" fill="#FEFECE" filter="url(#fblzanwlpl854)" height="48" id="entities.items.BombCollectable" style="stroke:#A80036;stroke-width:1.5;" width="127" x="32.5" y="398"/><ellipse cx="47.5" cy="414" fill="#ADD1B2" rx="11" ry="11" style="stroke:#A80036;stroke-width:1.0;"/><path d="M49.5,410.5 Q49.7031,410 49.9375,409.75 Q50.1719,409.5 50.4375,409.5 Q50.9063,409.5 51.2031,409.7813 Q51.5,410.0625 51.5,410.7188 L51.5,412.2813 Q51.5,412.9375 51.2188,413.2188 Q50.9375,413.5 50.5,413.5 Q50.1094,413.5 49.8594,413.3281 Q49.6094,413.1563 49.5,412.7031 Q49.4531,412.3906 49.2813,412.2188 Q48.9688,411.8906 48.4063,411.7031 Q47.8438,411.5 47.2813,411.5 Q46.5781,411.5 45.9844,411.7813 Q45.4063,412.0625 44.9531,412.6875 Q44.5,413.3125 44.5,414.1719 L44.5,415.0938 Q44.5,416.125 45.3438,416.8125 Q46.1875,417.5 47.6875,417.5 Q48.5781,417.5 49.2031,417.2969 Q49.5625,417.1875 49.9688,416.8281 Q50.2344,416.625 50.375,416.5625 Q50.5156,416.5 50.6875,416.5 Q51.0156,416.5 51.25,416.7656 Q51.5,417.0156 51.5,417.375 Q51.5,417.7188 51.1563,418.125 Q50.6563,418.7188 49.8594,419.0469 Q48.8125,419.5 47.5313,419.5 Q46.0313,419.5 44.8281,418.9063 Q43.8594,418.4375 43.1719,417.4219 Q42.5,416.4063 42.5,415.2031 L42.5,414.1094 Q42.5,412.8594 43.0938,411.7656 Q43.7031,410.6719 44.75,410.0938 Q45.8125,409.5 47,409.5 Q47.7188,409.5 48.3438,409.75 Q48.9688,410 49.5,410.5 Z " fill="#000000"/><text fill="#000000" font-family="sans-serif" font-size="12" lengthAdjust="spacing" textLength="95" x="61.5" y="418.9102">BombCollectable</text><line style="stroke:#A80036;stroke-width:1.5;" x1="33.5" x2="158.5" y1="430" y2="430"/><line style="stroke:#A80036;stroke-width:1.5;" x1="33.5" x2="158.5" y1="438" y2="438"/><!--MD5=[165d5a49fb56ee5d873275063b7611fd]
class entities.items.BombPlanted--><rect codeLine="12" fill="#FEFECE" filter="url(#fblzanwlpl854)" height="48" id="entities.items.BombPlanted" style="stroke:#A80036;stroke-width:1.5;" width="107" x="194.5" y="398"/><ellipse cx="209.5" cy="414" fill="#ADD1B2" rx="11" ry="11" style="stroke:#A80036;stroke-width:1.0;"/><path d="M211.5,410.5 Q211.7031,410 211.9375,409.75 Q212.1719,409.5 212.4375,409.5 Q212.9063,409.5 213.2031,409.7813 Q213.5,410.0625 213.5,410.7188 L213.5,412.2813 Q213.5,412.9375 213.2188,413.2188 Q212.9375,413.5 212.5,413.5 Q212.1094,413.5 211.8594,413.3281 Q211.6094,413.1563 211.5,412.7031 Q211.4531,412.3906 211.2813,412.2188 Q210.9688,411.8906 210.4063,411.7031 Q209.8438,411.5 209.2813,411.5 Q208.5781,411.5 207.9844,411.7813 Q207.4063,412.0625 206.9531,412.6875 Q206.5,413.3125 206.5,414.1719 L206.5,415.0938 Q206.5,416.125 207.3438,416.8125 Q208.1875,417.5 209.6875,417.5 Q210.5781,417.5 211.2031,417.2969 Q211.5625,417.1875 211.9688,416.8281 Q212.2344,416.625 212.375,416.5625 Q212.5156,416.5 212.6875,416.5 Q213.0156,416.5 213.25,416.7656 Q213.5,417.0156 213.5,417.375 Q213.5,417.7188 213.1563,418.125 Q212.6563,418.7188 211.8594,419.0469 Q210.8125,419.5 209.5313,419.5 Q208.0313,419.5 206.8281,418.9063 Q205.8594,418.4375 205.1719,417.4219 Q204.5,416.4063 204.5,415.2031 L204.5,414.1094 Q204.5,412.8594 205.0938,411.7656 Q205.7031,410.6719 206.75,410.0938 Q207.8125,409.5 209,409.5 Q209.7188,409.5 210.3438,409.75 Q210.9688,410 211.5,410.5 Z " fill="#000000"/><text fill="#000000" font-family="sans-serif" font-size="12" lengthAdjust="spacing" textLength="75" x="223.5" y="418.9102">BombPlanted</text><line style="stroke:#A80036;stroke-width:1.5;" x1="195.5" x2="300.5" y1="430" y2="430"/><line style="stroke:#A80036;stroke-width:1.5;" x1="195.5" x2="300.5" y1="438" y2="438"/><!--MD5=[fff4fbefb74200d5cc792fdc24d62f59]
class entities.creatures.Creature--><rect codeLine="16" fill="#FEFECE" filter="url(#fblzanwlpl854)" height="48" id="entities.creatures.Creature" style="stroke:#A80036;stroke-width:1.5;" width="80" x="358" y="290"/><ellipse cx="373" cy="306" fill="#A9DCDF" rx="11" ry="11" style="stroke:#A80036;stroke-width:1.0;"/><path d="M374.75,307.5 L371.4531,307.5 L371.0156,308.5 L371.0156,308.5 L371.4844,308.5 L372,309.125 L372,309.5 L372,309.875 L371.4844,310.5 L371.0156,310.5 L369.125,310.5 L368.5156,310.5 L368,309.875 L368,309.5 L368,309.125 L368.5156,308.5 L369.125,308.5 L371.4375,302.5 L370.5625,302.5 L369.5156,302.5 L369,301.875 L369,301.5 L369,301.125 L369.5156,300.5 L370.5625,300.5 L374.2344,300.5 L376.9219,308.5 L377.4844,308.5 L377.4844,308.5 L378,309.125 L378,309.5 L378,309.875 L377.4844,310.5 L376.9219,310.5 L375.0313,310.5 L374.5156,310.5 L374,309.875 L374,309.5 L374,309.125 L374.5156,308.5 L375.0313,308.5 L375.0313,308.5 L374.75,307.5 Z M374.2031,305.5 L373,301.9219 L371.9688,305.5 L374.2031,305.5 Z " fill="#000000"/><text fill="#000000" font-family="sans-serif" font-size="12" font-style="italic" lengthAdjust="spacing" textLength="48" x="387" y="310.9102">Creature</text><line style="stroke:#A80036;stroke-width:1.5;" x1="359" x2="437" y1="322" y2="322"/><line style="stroke:#A80036;stroke-width:1.5;" x1="359" x2="437" y1="330" y2="330"/><!--MD5=[79e611175aab30d878e28b1060269c5b]
class entities.creatures.Player--><rect codeLine="19" fill="#FEFECE" filter="url(#fblzanwlpl854)" height="48" id="entities.creatures.Player" style="stroke:#A80036;stroke-width:1.5;" width="66" x="361" y="398"/><ellipse cx="376" cy="414" fill="#ADD1B2" rx="11" ry="11" style="stroke:#A80036;stroke-width:1.0;"/><path d="M378,410.5 Q378.2031,410 378.4375,409.75 Q378.6719,409.5 378.9375,409.5 Q379.4063,409.5 379.7031,409.7813 Q380,410.0625 380,410.7188 L380,412.2813 Q380,412.9375 379.7188,413.2188 Q379.4375,413.5 379,413.5 Q378.6094,413.5 378.3594,413.3281 Q378.1094,413.1563 378,412.7031 Q377.9531,412.3906 377.7813,412.2188 Q377.4688,411.8906 376.9063,411.7031 Q376.3438,411.5 375.7813,411.5 Q375.0781,411.5 374.4844,411.7813 Q373.9063,412.0625 373.4531,412.6875 Q373,413.3125 373,414.1719 L373,415.0938 Q373,416.125 373.8438,416.8125 Q374.6875,417.5 376.1875,417.5 Q377.0781,417.5 377.7031,417.2969 Q378.0625,417.1875 378.4688,416.8281 Q378.7344,416.625 378.875,416.5625 Q379.0156,416.5 379.1875,416.5 Q379.5156,416.5 379.75,416.7656 Q380,417.0156 380,417.375 Q380,417.7188 379.6563,418.125 Q379.1563,418.7188 378.3594,419.0469 Q377.3125,419.5 376.0313,419.5 Q374.5313,419.5 373.3281,418.9063 Q372.3594,418.4375 371.6719,417.4219 Q371,416.4063 371,415.2031 L371,414.1094 Q371,412.8594 371.5938,411.7656 Q372.2031,410.6719 373.25,410.0938 Q374.3125,409.5 375.5,409.5 Q376.2188,409.5 376.8438,409.75 Q377.4688,410 378,410.5 Z " fill="#000000"/><text fill="#000000" font-family="sans-serif" font-size="12" lengthAdjust="spacing" textLength="34" x="390" y="418.9102">Player</text><line style="stroke:#A80036;stroke-width:1.5;" x1="362" x2="426" y1="430" y2="430"/><line style="stroke:#A80036;stroke-width:1.5;" x1="362" x2="426" y1="438" y2="438"/><!--MD5=[31b39ed9b6cb36778e2b2be9841862c5]
class gfx.Animation--><rect codeLine="22" fill="#FEFECE" filter="url(#fblzanwlpl854)" height="48" id="gfx.Animation" style="stroke:#A80036;stroke-width:1.5;" width="87" x="217.5" y="522"/><ellipse cx="232.5" cy="538" fill="#ADD1B2" rx="11" ry="11" style="stroke:#A80036;stroke-width:1.0;"/><path d="M234.5,534.5 Q234.7031,534 234.9375,533.75 Q235.1719,533.5 235.4375,533.5 Q235.9063,533.5 236.2031,533.7813 Q236.5,534.0625 236.5,534.7188 L236.5,536.2813 Q236.5,536.9375 236.2188,537.2188 Q235.9375,537.5 235.5,537.5 Q235.1094,537.5 234.8594,537.3281 Q234.6094,537.1563 234.5,536.7031 Q234.4531,536.3906 234.2813,536.2188 Q233.9688,535.8906 233.4063,535.7031 Q232.8438,535.5 232.2813,535.5 Q231.5781,535.5 230.9844,535.7813 Q230.4063,536.0625 229.9531,536.6875 Q229.5,537.3125 229.5,538.1719 L229.5,539.0938 Q229.5,540.125 230.3438,540.8125 Q231.1875,541.5 232.6875,541.5 Q233.5781,541.5 234.2031,541.2969 Q234.5625,541.1875 234.9688,540.8281 Q235.2344,540.625 235.375,540.5625 Q235.5156,540.5 235.6875,540.5 Q236.0156,540.5 236.25,540.7656 Q236.5,541.0156 236.5,541.375 Q236.5,541.7188 236.1563,542.125 Q235.6563,542.7188 234.8594,543.0469 Q233.8125,543.5 232.5313,543.5 Q231.0313,543.5 229.8281,542.9063 Q228.8594,542.4375 228.1719,541.4219 Q227.5,540.4063 227.5,539.2031 L227.5,538.1094 Q227.5,536.8594 228.0938,535.7656 Q228.7031,534.6719 229.75,534.0938 Q230.8125,533.5 232,533.5 Q232.7188,533.5 233.3438,533.75 Q233.9688,534 234.5,534.5 Z " fill="#000000"/><text fill="#000000" font-family="sans-serif" font-size="12" lengthAdjust="spacing" textLength="55" x="246.5" y="542.9102">Animation</text><line style="stroke:#A80036;stroke-width:1.5;" x1="218.5" x2="303.5" y1="554" y2="554"/><line style="stroke:#A80036;stroke-width:1.5;" x1="218.5" x2="303.5" y1="562" y2="562"/><!--MD5=[61c3fa5585ca85434ecfc87dbde0af51]
class gfx.DrawManager--><rect codeLine="26" fill="#FEFECE" filter="url(#fblzanwlpl854)" height="48" id="gfx.DrawManager" style="stroke:#A80036;stroke-width:1.5;" width="109" x="339.5" y="522"/><ellipse cx="354.5" cy="538" fill="#ADD1B2" rx="11" ry="11" style="stroke:#A80036;stroke-width:1.0;"/><path d="M356.5,534.5 Q356.7031,534 356.9375,533.75 Q357.1719,533.5 357.4375,533.5 Q357.9063,533.5 358.2031,533.7813 Q358.5,534.0625 358.5,534.7188 L358.5,536.2813 Q358.5,536.9375 358.2188,537.2188 Q357.9375,537.5 357.5,537.5 Q357.1094,537.5 356.8594,537.3281 Q356.6094,537.1563 356.5,536.7031 Q356.4531,536.3906 356.2813,536.2188 Q355.9688,535.8906 355.4063,535.7031 Q354.8438,535.5 354.2813,535.5 Q353.5781,535.5 352.9844,535.7813 Q352.4063,536.0625 351.9531,536.6875 Q351.5,537.3125 351.5,538.1719 L351.5,539.0938 Q351.5,540.125 352.3438,540.8125 Q353.1875,541.5 354.6875,541.5 Q355.5781,541.5 356.2031,541.2969 Q356.5625,541.1875 356.9688,540.8281 Q357.2344,540.625 357.375,540.5625 Q357.5156,540.5 357.6875,540.5 Q358.0156,540.5 358.25,540.7656 Q358.5,541.0156 358.5,541.375 Q358.5,541.7188 358.1563,542.125 Q357.6563,542.7188 356.8594,543.0469 Q355.8125,543.5 354.5313,543.5 Q353.0313,543.5 351.8281,542.9063 Q350.8594,542.4375 350.1719,541.4219 Q349.5,540.4063 349.5,539.2031 L349.5,538.1094 Q349.5,536.8594 350.0938,535.7656 Q350.7031,534.6719 351.75,534.0938 Q352.8125,533.5 354,533.5 Q354.7188,533.5 355.3438,533.75 Q355.9688,534 356.5,534.5 Z " fill="#000000"/><text fill="#000000" font-family="sans-serif" font-size="12" lengthAdjust="spacing" textLength="77" x="368.5" y="542.9102">DrawManager</text><line style="stroke:#A80036;stroke-width:1.5;" x1="340.5" x2="447.5" y1="554" y2="554"/><line style="stroke:#A80036;stroke-width:1.5;" x1="340.5" x2="447.5" y1="562" y2="562"/><!--MD5=[15af45a6dbda0b46b9bcc7341b4758d2]
class gfx.TextureManager--><rect codeLine="40" fill="#FEFECE" filter="url(#fblzanwlpl854)" height="48" id="gfx.TextureManager" style="stroke:#A80036;stroke-width:1.5;" width="120" x="153" y="630"/><ellipse cx="168" cy="646" fill="#ADD1B2" rx="11" ry="11" style="stroke:#A80036;stroke-width:1.0;"/><path d="M170,642.5 Q170.2031,642 170.4375,641.75 Q170.6719,641.5 170.9375,641.5 Q171.4063,641.5 171.7031,641.7813 Q172,642.0625 172,642.7188 L172,644.2813 Q172,644.9375 171.7188,645.2188 Q171.4375,645.5 171,645.5 Q170.6094,645.5 170.3594,645.3281 Q170.1094,645.1563 170,644.7031 Q169.9531,644.3906 169.7813,644.2188 Q169.4688,643.8906 168.9063,643.7031 Q168.3438,643.5 167.7813,643.5 Q167.0781,643.5 166.4844,643.7813 Q165.9063,644.0625 165.4531,644.6875 Q165,645.3125 165,646.1719 L165,647.0938 Q165,648.125 165.8438,648.8125 Q166.6875,649.5 168.1875,649.5 Q169.0781,649.5 169.7031,649.2969 Q170.0625,649.1875 170.4688,648.8281 Q170.7344,648.625 170.875,648.5625 Q171.0156,648.5 171.1875,648.5 Q171.5156,648.5 171.75,648.7656 Q172,649.0156 172,649.375 Q172,649.7188 171.6563,650.125 Q171.1563,650.7188 170.3594,651.0469 Q169.3125,651.5 168.0313,651.5 Q166.5313,651.5 165.3281,650.9063 Q164.3594,650.4375 163.6719,649.4219 Q163,648.4063 163,647.2031 L163,646.1094 Q163,644.8594 163.5938,643.7656 Q164.2031,642.6719 165.25,642.0938 Q166.3125,641.5 167.5,641.5 Q168.2188,641.5 168.8438,641.75 Q169.4688,642 170,642.5 Z " fill="#000000"/><text fill="#000000" font-family="sans-serif" font-size="12" lengthAdjust="spacing" textLength="88" x="182" y="650.9102">TextureManager</text><line style="stroke:#A80036;stroke-width:1.5;" x1="154" x2="272" y1="662" y2="662"/><line style="stroke:#A80036;stroke-width:1.5;" x1="154" x2="272" y1="670" y2="670"/><!--MD5=[4c7c7f33a1ec25f7be8040bd6777f2d6]
class gfx.Transform--><rect codeLine="44" fill="#FEFECE" filter="url(#fblzanwlpl854)" height="48" id="gfx.Transform" style="stroke:#A80036;stroke-width:1.5;" width="89" x="483.5" y="522"/><ellipse cx="498.5" cy="538" fill="#ADD1B2" rx="11" ry="11" style="stroke:#A80036;stroke-width:1.0;"/><path d="M500.5,534.5 Q500.7031,534 500.9375,533.75 Q501.1719,533.5 501.4375,533.5 Q501.9063,533.5 502.2031,533.7813 Q502.5,534.0625 502.5,534.7188 L502.5,536.2813 Q502.5,536.9375 502.2188,537.2188 Q501.9375,537.5 501.5,537.5 Q501.1094,537.5 500.8594,537.3281 Q500.6094,537.1563 500.5,536.7031 Q500.4531,536.3906 500.2813,536.2188 Q499.9688,535.8906 499.4063,535.7031 Q498.8438,535.5 498.2813,535.5 Q497.5781,535.5 496.9844,535.7813 Q496.4063,536.0625 495.9531,536.6875 Q495.5,537.3125 495.5,538.1719 L495.5,539.0938 Q495.5,540.125 496.3438,540.8125 Q497.1875,541.5 498.6875,541.5 Q499.5781,541.5 500.2031,541.2969 Q500.5625,541.1875 500.9688,540.8281 Q501.2344,540.625 501.375,540.5625 Q501.5156,540.5 501.6875,540.5 Q502.0156,540.5 502.25,540.7656 Q502.5,541.0156 502.5,541.375 Q502.5,541.7188 502.1563,542.125 Q501.6563,542.7188 500.8594,543.0469 Q499.8125,543.5 498.5313,543.5 Q497.0313,543.5 495.8281,542.9063 Q494.8594,542.4375 494.1719,541.4219 Q493.5,540.4063 493.5,539.2031 L493.5,538.1094 Q493.5,536.8594 494.0938,535.7656 Q494.7031,534.6719 495.75,534.0938 Q496.8125,533.5 498,533.5 Q498.7188,533.5 499.3438,533.75 Q499.9688,534 500.5,534.5 Z " fill="#000000"/><text fill="#000000" font-family="sans-serif" font-size="12" lengthAdjust="spacing" textLength="57" x="512.5" y="542.9102">Transform</text><line style="stroke:#A80036;stroke-width:1.5;" x1="484.5" x2="571.5" y1="554" y2="554"/><line style="stroke:#A80036;stroke-width:1.5;" x1="484.5" x2="571.5" y1="562" y2="562"/><!--MD5=[408c1a95a6004acb5e587067bbcd0af8]
class gfx.Vector2D--><rect codeLine="48" fill="#FEFECE" filter="url(#fblzanwlpl854)" height="48" id="gfx.Vector2D" style="stroke:#A80036;stroke-width:1.5;" width="82" x="353" y="630"/><ellipse cx="368" cy="646" fill="#ADD1B2" rx="11" ry="11" style="stroke:#A80036;stroke-width:1.0;"/><path d="M370,642.5 Q370.2031,642 370.4375,641.75 Q370.6719,641.5 370.9375,641.5 Q371.4063,641.5 371.7031,641.7813 Q372,642.0625 372,642.7188 L372,644.2813 Q372,644.9375 371.7188,645.2188 Q371.4375,645.5 371,645.5 Q370.6094,645.5 370.3594,645.3281 Q370.1094,645.1563 370,644.7031 Q369.9531,644.3906 369.7813,644.2188 Q369.4688,643.8906 368.9063,643.7031 Q368.3438,643.5 367.7813,643.5 Q367.0781,643.5 366.4844,643.7813 Q365.9063,644.0625 365.4531,644.6875 Q365,645.3125 365,646.1719 L365,647.0938 Q365,648.125 365.8438,648.8125 Q366.6875,649.5 368.1875,649.5 Q369.0781,649.5 369.7031,649.2969 Q370.0625,649.1875 370.4688,648.8281 Q370.7344,648.625 370.875,648.5625 Q371.0156,648.5 371.1875,648.5 Q371.5156,648.5 371.75,648.7656 Q372,649.0156 372,649.375 Q372,649.7188 371.6563,650.125 Q371.1563,650.7188 370.3594,651.0469 Q369.3125,651.5 368.0313,651.5 Q366.5313,651.5 365.3281,650.9063 Q364.3594,650.4375 363.6719,649.4219 Q363,648.4063 363,647.2031 L363,646.1094 Q363,644.8594 363.5938,643.7656 Q364.2031,642.6719 365.25,642.0938 Q366.3125,641.5 367.5,641.5 Q368.2188,641.5 368.8438,641.75 Q369.4688,642 370,642.5 Z " fill="#000000"/><text fill="#000000" font-family="sans-serif" font-size="12" lengthAdjust="spacing" textLength="50" x="382" y="650.9102">Vector2D</text><line style="stroke:#A80036;stroke-width:1.5;" x1="354" x2="434" y1="662" y2="662"/><line style="stroke:#A80036;stroke-width:1.5;" x1="354" x2="434" y1="670" y2="670"/><!--MD5=[57210c06e20415b9d54619e815cd0c71]
class gfx.UILabel--><rect codeLine="64" fill="#FEFECE" filter="url(#fblzanwlpl854)" height="48" id="gfx.UILabel" style="stroke:#A80036;stroke-width:1.5;" width="75" x="107.5" y="522"/><ellipse cx="122.5" cy="538" fill="#ADD1B2" rx="11" ry="11" style="stroke:#A80036;stroke-width:1.0;"/><path d="M124.5,534.5 Q124.7031,534 124.9375,533.75 Q125.1719,533.5 125.4375,533.5 Q125.9063,533.5 126.2031,533.7813 Q126.5,534.0625 126.5,534.7188 L126.5,536.2813 Q126.5,536.9375 126.2188,537.2188 Q125.9375,537.5 125.5,537.5 Q125.1094,537.5 124.8594,537.3281 Q124.6094,537.1563 124.5,536.7031 Q124.4531,536.3906 124.2813,536.2188 Q123.9688,535.8906 123.4063,535.7031 Q122.8438,535.5 122.2813,535.5 Q121.5781,535.5 120.9844,535.7813 Q120.4063,536.0625 119.9531,536.6875 Q119.5,537.3125 119.5,538.1719 L119.5,539.0938 Q119.5,540.125 120.3438,540.8125 Q121.1875,541.5 122.6875,541.5 Q123.5781,541.5 124.2031,541.2969 Q124.5625,541.1875 124.9688,540.8281 Q125.2344,540.625 125.375,540.5625 Q125.5156,540.5 125.6875,540.5 Q126.0156,540.5 126.25,540.7656 Q126.5,541.0156 126.5,541.375 Q126.5,541.7188 126.1563,542.125 Q125.6563,542.7188 124.8594,543.0469 Q123.8125,543.5 122.5313,543.5 Q121.0313,543.5 119.8281,542.9063 Q118.8594,542.4375 118.1719,541.4219 Q117.5,540.4063 117.5,539.2031 L117.5,538.1094 Q117.5,536.8594 118.0938,535.7656 Q118.7031,534.6719 119.75,534.0938 Q120.8125,533.5 122,533.5 Q122.7188,533.5 123.3438,533.75 Q123.9688,534 124.5,534.5 Z " fill="#000000"/><text fill="#000000" font-family="sans-serif" font-size="12" lengthAdjust="spacing" textLength="43" x="136.5" y="542.9102">UILabel</text><line style="stroke:#A80036;stroke-width:1.5;" x1="108.5" x2="181.5" y1="554" y2="554"/><line style="stroke:#A80036;stroke-width:1.5;" x1="108.5" x2="181.5" y1="562" y2="562"/><!--MD5=[032b4da80d473f4495ac8a06202750d4]
class world.Layer--><rect codeLine="29" fill="#FEFECE" filter="url(#fblzanwlpl854)" height="48" id="world.Layer" style="stroke:#A80036;stroke-width:1.5;" width="63" x="730.5" y="290"/><ellipse cx="745.5" cy="306" fill="#A9DCDF" rx="11" ry="11" style="stroke:#A80036;stroke-width:1.0;"/><path d="M747.25,307.5 L743.9531,307.5 L743.5156,308.5 L743.5156,308.5 L743.9844,308.5 L744.5,309.125 L744.5,309.5 L744.5,309.875 L743.9844,310.5 L743.5156,310.5 L741.625,310.5 L741.0156,310.5 L740.5,309.875 L740.5,309.5 L740.5,309.125 L741.0156,308.5 L741.625,308.5 L743.9375,302.5 L743.0625,302.5 L742.0156,302.5 L741.5,301.875 L741.5,301.5 L741.5,301.125 L742.0156,300.5 L743.0625,300.5 L746.7344,300.5 L749.4219,308.5 L749.9844,308.5 L749.9844,308.5 L750.5,309.125 L750.5,309.5 L750.5,309.875 L749.9844,310.5 L749.4219,310.5 L747.5313,310.5 L747.0156,310.5 L746.5,309.875 L746.5,309.5 L746.5,309.125 L747.0156,308.5 L747.5313,308.5 L747.5313,308.5 L747.25,307.5 Z M746.7031,305.5 L745.5,301.9219 L744.4688,305.5 L746.7031,305.5 Z " fill="#000000"/><text fill="#000000" font-family="sans-serif" font-size="12" font-style="italic" lengthAdjust="spacing" textLength="31" x="759.5" y="310.9102">Layer</text><line style="stroke:#A80036;stroke-width:1.5;" x1="731.5" x2="792.5" y1="322" y2="322"/><line style="stroke:#A80036;stroke-width:1.5;" x1="731.5" x2="792.5" y1="330" y2="330"/><!--MD5=[058b60769bf24e6f858063701ad81ab7]
class world.MapParser--><rect codeLine="33" fill="#FEFECE" filter="url(#fblzanwlpl854)" height="48" id="world.MapParser" style="stroke:#A80036;stroke-width:1.5;" width="92" x="716" y="42"/><ellipse cx="731" cy="58" fill="#ADD1B2" rx="11" ry="11" style="stroke:#A80036;stroke-width:1.0;"/><path d="M733,54.5 Q733.2031,54 733.4375,53.75 Q733.6719,53.5 733.9375,53.5 Q734.4063,53.5 734.7031,53.7813 Q735,54.0625 735,54.7188 L735,56.2813 Q735,56.9375 734.7188,57.2188 Q734.4375,57.5 734,57.5 Q733.6094,57.5 733.3594,57.3281 Q733.1094,57.1563 733,56.7031 Q732.9531,56.3906 732.7813,56.2188 Q732.4688,55.8906 731.9063,55.7031 Q731.3438,55.5 730.7813,55.5 Q730.0781,55.5 729.4844,55.7813 Q728.9063,56.0625 728.4531,56.6875 Q728,57.3125 728,58.1719 L728,59.0938 Q728,60.125 728.8438,60.8125 Q729.6875,61.5 731.1875,61.5 Q732.0781,61.5 732.7031,61.2969 Q733.0625,61.1875 733.4688,60.8281 Q733.7344,60.625 733.875,60.5625 Q734.0156,60.5 734.1875,60.5 Q734.5156,60.5 734.75,60.7656 Q735,61.0156 735,61.375 Q735,61.7188 734.6563,62.125 Q734.1563,62.7188 733.3594,63.0469 Q732.3125,63.5 731.0313,63.5 Q729.5313,63.5 728.3281,62.9063 Q727.3594,62.4375 726.6719,61.4219 Q726,60.4063 726,59.2031 L726,58.1094 Q726,56.8594 726.5938,55.7656 Q727.2031,54.6719 728.25,54.0938 Q729.3125,53.5 730.5,53.5 Q731.2188,53.5 731.8438,53.75 Q732.4688,54 733,54.5 Z " fill="#000000"/><text fill="#000000" font-family="sans-serif" font-size="12" lengthAdjust="spacing" textLength="60" x="745" y="62.9102">MapParser</text><line style="stroke:#A80036;stroke-width:1.5;" x1="717" x2="807" y1="74" y2="74"/><line style="stroke:#A80036;stroke-width:1.5;" x1="717" x2="807" y1="82" y2="82"/><!--MD5=[3558dd23c0f3351bc17b27f38620e6cf]
class world.GameMap--><rect codeLine="61" fill="#FEFECE" filter="url(#fblzanwlpl854)" height="48" id="world.GameMap" style="stroke:#A80036;stroke-width:1.5;" width="89" x="717.5" y="166"/><ellipse cx="732.5" cy="182" fill="#ADD1B2" rx="11" ry="11" style="stroke:#A80036;stroke-width:1.0;"/><path d="M734.5,178.5 Q734.7031,178 734.9375,177.75 Q735.1719,177.5 735.4375,177.5 Q735.9063,177.5 736.2031,177.7813 Q736.5,178.0625 736.5,178.7188 L736.5,180.2813 Q736.5,180.9375 736.2188,181.2188 Q735.9375,181.5 735.5,181.5 Q735.1094,181.5 734.8594,181.3281 Q734.6094,181.1563 734.5,180.7031 Q734.4531,180.3906 734.2813,180.2188 Q733.9688,179.8906 733.4063,179.7031 Q732.8438,179.5 732.2813,179.5 Q731.5781,179.5 730.9844,179.7813 Q730.4063,180.0625 729.9531,180.6875 Q729.5,181.3125 729.5,182.1719 L729.5,183.0938 Q729.5,184.125 730.3438,184.8125 Q731.1875,185.5 732.6875,185.5 Q733.5781,185.5 734.2031,185.2969 Q734.5625,185.1875 734.9688,184.8281 Q735.2344,184.625 735.375,184.5625 Q735.5156,184.5 735.6875,184.5 Q736.0156,184.5 736.25,184.7656 Q736.5,185.0156 736.5,185.375 Q736.5,185.7188 736.1563,186.125 Q735.6563,186.7188 734.8594,187.0469 Q733.8125,187.5 732.5313,187.5 Q731.0313,187.5 729.8281,186.9063 Q728.8594,186.4375 728.1719,185.4219 Q727.5,184.4063 727.5,183.2031 L727.5,182.1094 Q727.5,180.8594 728.0938,179.7656 Q728.7031,178.6719 729.75,178.0938 Q730.8125,177.5 732,177.5 Q732.7188,177.5 733.3438,177.75 Q733.9688,178 734.5,178.5 Z " fill="#000000"/><text fill="#000000" font-family="sans-serif" font-size="12" lengthAdjust="spacing" textLength="57" x="746.5" y="186.9102">GameMap</text><line style="stroke:#A80036;stroke-width:1.5;" x1="718.5" x2="805.5" y1="198" y2="198"/><line style="stroke:#A80036;stroke-width:1.5;" x1="718.5" x2="805.5" y1="206" y2="206"/><!--MD5=[48516c7a7bc1f05290f510d0ff4cfebc]
class world.Tile--><rect codeLine="67" fill="#FEFECE" filter="url(#fblzanwlpl854)" height="48" id="world.Tile" style="stroke:#A80036;stroke-width:1.5;" width="52" x="629" y="42"/><ellipse cx="644" cy="58" fill="#ADD1B2" rx="11" ry="11" style="stroke:#A80036;stroke-width:1.0;"/><path d="M646,54.5 Q646.2031,54 646.4375,53.75 Q646.6719,53.5 646.9375,53.5 Q647.4063,53.5 647.7031,53.7813 Q648,54.0625 648,54.7188 L648,56.2813 Q648,56.9375 647.7188,57.2188 Q647.4375,57.5 647,57.5 Q646.6094,57.5 646.3594,57.3281 Q646.1094,57.1563 646,56.7031 Q645.9531,56.3906 645.7813,56.2188 Q645.4688,55.8906 644.9063,55.7031 Q644.3438,55.5 643.7813,55.5 Q643.0781,55.5 642.4844,55.7813 Q641.9063,56.0625 641.4531,56.6875 Q641,57.3125 641,58.1719 L641,59.0938 Q641,60.125 641.8438,60.8125 Q642.6875,61.5 644.1875,61.5 Q645.0781,61.5 645.7031,61.2969 Q646.0625,61.1875 646.4688,60.8281 Q646.7344,60.625 646.875,60.5625 Q647.0156,60.5 647.1875,60.5 Q647.5156,60.5 647.75,60.7656 Q648,61.0156 648,61.375 Q648,61.7188 647.6563,62.125 Q647.1563,62.7188 646.3594,63.0469 Q645.3125,63.5 644.0313,63.5 Q642.5313,63.5 641.3281,62.9063 Q640.3594,62.4375 639.6719,61.4219 Q639,60.4063 639,59.2031 L639,58.1094 Q639,56.8594 639.5938,55.7656 Q640.2031,54.6719 641.25,54.0938 Q642.3125,53.5 643.5,53.5 Q644.2188,53.5 644.8438,53.75 Q645.4688,54 646,54.5 Z " fill="#000000"/><text fill="#000000" font-family="sans-serif" font-size="12" lengthAdjust="spacing" textLength="20" x="658" y="62.9102">Tile</text><line style="stroke:#A80036;stroke-width:1.5;" x1="630" x2="680" y1="74" y2="74"/><line style="stroke:#A80036;stroke-width:1.5;" x1="630" x2="680" y1="82" y2="82"/><!--MD5=[664963052afdfdad2e4e93f6abfb1c33]
class world.TileLayer--><rect codeLine="71" fill="#FEFECE" filter="url(#fblzanwlpl854)" height="48" id="world.TileLayer" style="stroke:#A80036;stroke-width:1.5;" width="82" x="721" y="398"/><ellipse cx="736" cy="414" fill="#ADD1B2" rx="11" ry="11" style="stroke:#A80036;stroke-width:1.0;"/><path d="M738,410.5 Q738.2031,410 738.4375,409.75 Q738.6719,409.5 738.9375,409.5 Q739.4063,409.5 739.7031,409.7813 Q740,410.0625 740,410.7188 L740,412.2813 Q740,412.9375 739.7188,413.2188 Q739.4375,413.5 739,413.5 Q738.6094,413.5 738.3594,413.3281 Q738.1094,413.1563 738,412.7031 Q737.9531,412.3906 737.7813,412.2188 Q737.4688,411.8906 736.9063,411.7031 Q736.3438,411.5 735.7813,411.5 Q735.0781,411.5 734.4844,411.7813 Q733.9063,412.0625 733.4531,412.6875 Q733,413.3125 733,414.1719 L733,415.0938 Q733,416.125 733.8438,416.8125 Q734.6875,417.5 736.1875,417.5 Q737.0781,417.5 737.7031,417.2969 Q738.0625,417.1875 738.4688,416.8281 Q738.7344,416.625 738.875,416.5625 Q739.0156,416.5 739.1875,416.5 Q739.5156,416.5 739.75,416.7656 Q740,417.0156 740,417.375 Q740,417.7188 739.6563,418.125 Q739.1563,418.7188 738.3594,419.0469 Q737.3125,419.5 736.0313,419.5 Q734.5313,419.5 733.3281,418.9063 Q732.3594,418.4375 731.6719,417.4219 Q731,416.4063 731,415.2031 L731,414.1094 Q731,412.8594 731.5938,411.7656 Q732.2031,410.6719 733.25,410.0938 Q734.3125,409.5 735.5,409.5 Q736.2188,409.5 736.8438,409.75 Q737.4688,410 738,410.5 Z " fill="#000000"/><text fill="#000000" font-family="sans-serif" font-size="12" lengthAdjust="spacing" textLength="50" x="750" y="418.9102">TileLayer</text><line style="stroke:#A80036;stroke-width:1.5;" x1="722" x2="802" y1="430" y2="430"/><line style="stroke:#A80036;stroke-width:1.5;" x1="722" x2="802" y1="438" y2="438"/><!--MD5=[16a2a2eaaa6a5cc5f4df8c56f6e29488]
class world.Tileset--><rect codeLine="74" fill="#FEFECE" filter="url(#fblzanwlpl854)" height="48" id="world.Tileset" style="stroke:#A80036;stroke-width:1.5;" width="69" x="727.5" y="522"/><ellipse cx="742.5" cy="538" fill="#ADD1B2" rx="11" ry="11" style="stroke:#A80036;stroke-width:1.0;"/><path d="M744.5,534.5 Q744.7031,534 744.9375,533.75 Q745.1719,533.5 745.4375,533.5 Q745.9063,533.5 746.2031,533.7813 Q746.5,534.0625 746.5,534.7188 L746.5,536.2813 Q746.5,536.9375 746.2188,537.2188 Q745.9375,537.5 745.5,537.5 Q745.1094,537.5 744.8594,537.3281 Q744.6094,537.1563 744.5,536.7031 Q744.4531,536.3906 744.2813,536.2188 Q743.9688,535.8906 743.4063,535.7031 Q742.8438,535.5 742.2813,535.5 Q741.5781,535.5 740.9844,535.7813 Q740.4063,536.0625 739.9531,536.6875 Q739.5,537.3125 739.5,538.1719 L739.5,539.0938 Q739.5,540.125 740.3438,540.8125 Q741.1875,541.5 742.6875,541.5 Q743.5781,541.5 744.2031,541.2969 Q744.5625,541.1875 744.9688,540.8281 Q745.2344,540.625 745.375,540.5625 Q745.5156,540.5 745.6875,540.5 Q746.0156,540.5 746.25,540.7656 Q746.5,541.0156 746.5,541.375 Q746.5,541.7188 746.1563,542.125 Q745.6563,542.7188 744.8594,543.0469 Q743.8125,543.5 742.5313,543.5 Q741.0313,543.5 739.8281,542.9063 Q738.8594,542.4375 738.1719,541.4219 Q737.5,540.4063 737.5,539.2031 L737.5,538.1094 Q737.5,536.8594 738.0938,535.7656 Q738.7031,534.6719 739.75,534.0938 Q740.8125,533.5 742,533.5 Q742.7188,533.5 743.3438,533.75 Q743.9688,534 744.5,534.5 Z " fill="#000000"/><text fill="#000000" font-family="sans-serif" font-size="12" lengthAdjust="spacing" textLength="37" x="756.5" y="542.9102">Tileset</text><line style="stroke:#A80036;stroke-width:1.5;" x1="728.5" x2="795.5" y1="554" y2="554"/><line style="stroke:#A80036;stroke-width:1.5;" x1="728.5" x2="795.5" y1="562" y2="562"/><!--MD5=[9b15561b5a79df87694001dece61cd3f]
class states.Menu--><rect codeLine="37" fill="#FEFECE" filter="url(#fblzanwlpl854)" height="48" id="states.Menu" style="stroke:#A80036;stroke-width:1.5;" width="62" x="965" y="42"/><ellipse cx="980" cy="58" fill="#ADD1B2" rx="11" ry="11" style="stroke:#A80036;stroke-width:1.0;"/><path d="M982,54.5 Q982.2031,54 982.4375,53.75 Q982.6719,53.5 982.9375,53.5 Q983.4063,53.5 983.7031,53.7813 Q984,54.0625 984,54.7188 L984,56.2813 Q984,56.9375 983.7188,57.2188 Q983.4375,57.5 983,57.5 Q982.6094,57.5 982.3594,57.3281 Q982.1094,57.1563 982,56.7031 Q981.9531,56.3906 981.7813,56.2188 Q981.4688,55.8906 980.9063,55.7031 Q980.3438,55.5 979.7813,55.5 Q979.0781,55.5 978.4844,55.7813 Q977.9063,56.0625 977.4531,56.6875 Q977,57.3125 977,58.1719 L977,59.0938 Q977,60.125 977.8438,60.8125 Q978.6875,61.5 980.1875,61.5 Q981.0781,61.5 981.7031,61.2969 Q982.0625,61.1875 982.4688,60.8281 Q982.7344,60.625 982.875,60.5625 Q983.0156,60.5 983.1875,60.5 Q983.5156,60.5 983.75,60.7656 Q984,61.0156 984,61.375 Q984,61.7188 983.6563,62.125 Q983.1563,62.7188 982.3594,63.0469 Q981.3125,63.5 980.0313,63.5 Q978.5313,63.5 977.3281,62.9063 Q976.3594,62.4375 975.6719,61.4219 Q975,60.4063 975,59.2031 L975,58.1094 Q975,56.8594 975.5938,55.7656 Q976.2031,54.6719 977.25,54.0938 Q978.3125,53.5 979.5,53.5 Q980.2188,53.5 980.8438,53.75 Q981.4688,54 982,54.5 Z " fill="#000000"/><text fill="#000000" font-family="sans-serif" font-size="12" lengthAdjust="spacing" textLength="30" x="994" y="62.9102">Menu</text><line style="stroke:#A80036;stroke-width:1.5;" x1="966" x2="1026" y1="74" y2="74"/><line style="stroke:#A80036;stroke-width:1.5;" x1="966" x2="1026" y1="82" y2="82"/><!--MD5=[161adf73dd9d2b0eaa5a51b7c8d9fcc3]
class states.Game--><rect codeLine="54" fill="#FEFECE" filter="url(#fblzanwlpl854)" height="48" id="states.Game" style="stroke:#A80036;stroke-width:1.5;" width="66" x="864" y="42"/><ellipse cx="879" cy="58" fill="#ADD1B2" rx="11" ry="11" style="stroke:#A80036;stroke-width:1.0;"/><path d="M881,54.5 Q881.2031,54 881.4375,53.75 Q881.6719,53.5 881.9375,53.5 Q882.4063,53.5 882.7031,53.7813 Q883,54.0625 883,54.7188 L883,56.2813 Q883,56.9375 882.7188,57.2188 Q882.4375,57.5 882,57.5 Q881.6094,57.5 881.3594,57.3281 Q881.1094,57.1563 881,56.7031 Q880.9531,56.3906 880.7813,56.2188 Q880.4688,55.8906 879.9063,55.7031 Q879.3438,55.5 878.7813,55.5 Q878.0781,55.5 877.4844,55.7813 Q876.9063,56.0625 876.4531,56.6875 Q876,57.3125 876,58.1719 L876,59.0938 Q876,60.125 876.8438,60.8125 Q877.6875,61.5 879.1875,61.5 Q880.0781,61.5 880.7031,61.2969 Q881.0625,61.1875 881.4688,60.8281 Q881.7344,60.625 881.875,60.5625 Q882.0156,60.5 882.1875,60.5 Q882.5156,60.5 882.75,60.7656 Q883,61.0156 883,61.375 Q883,61.7188 882.6563,62.125 Q882.1563,62.7188 881.3594,63.0469 Q880.3125,63.5 879.0313,63.5 Q877.5313,63.5 876.3281,62.9063 Q875.3594,62.4375 874.6719,61.4219 Q874,60.4063 874,59.2031 L874,58.1094 Q874,56.8594 874.5938,55.7656 Q875.2031,54.6719 876.25,54.0938 Q877.3125,53.5 878.5,53.5 Q879.2188,53.5 879.8438,53.75 Q880.4688,54 881,54.5 Z " fill="#000000"/><text fill="#000000" font-family="sans-serif" font-size="12" lengthAdjust="spacing" textLength="34" x="893" y="62.9102">Game</text><line style="stroke:#A80036;stroke-width:1.5;" x1="865" x2="929" y1="74" y2="74"/><line style="stroke:#A80036;stroke-width:1.5;" x1="865" x2="929" y1="82" y2="82"/><!--MD5=[5aa411387f1ac4e94a30f54c7c993f84]
class interfaces.Board--><rect codeLine="57" fill="#FEFECE" filter="url(#fblzanwlpl854)" height="48" id="interfaces.Board" style="stroke:#A80036;stroke-width:1.5;" width="65" x="1083.5" y="42"/><ellipse cx="1098.5" cy="58" fill="#ADD1B2" rx="11" ry="11" style="stroke:#A80036;stroke-width:1.0;"/><path d="M1100.5,54.5 Q1100.7031,54 1100.9375,53.75 Q1101.1719,53.5 1101.4375,53.5 Q1101.9063,53.5 1102.2031,53.7813 Q1102.5,54.0625 1102.5,54.7188 L1102.5,56.2813 Q1102.5,56.9375 1102.2188,57.2188 Q1101.9375,57.5 1101.5,57.5 Q1101.1094,57.5 1100.8594,57.3281 Q1100.6094,57.1563 1100.5,56.7031 Q1100.4531,56.3906 1100.2813,56.2188 Q1099.9688,55.8906 1099.4063,55.7031 Q1098.8438,55.5 1098.2813,55.5 Q1097.5781,55.5 1096.9844,55.7813 Q1096.4063,56.0625 1095.9531,56.6875 Q1095.5,57.3125 1095.5,58.1719 L1095.5,59.0938 Q1095.5,60.125 1096.3438,60.8125 Q1097.1875,61.5 1098.6875,61.5 Q1099.5781,61.5 1100.2031,61.2969 Q1100.5625,61.1875 1100.9688,60.8281 Q1101.2344,60.625 1101.375,60.5625 Q1101.5156,60.5 1101.6875,60.5 Q1102.0156,60.5 1102.25,60.7656 Q1102.5,61.0156 1102.5,61.375 Q1102.5,61.7188 1102.1563,62.125 Q1101.6563,62.7188 1100.8594,63.0469 Q1099.8125,63.5 1098.5313,63.5 Q1097.0313,63.5 1095.8281,62.9063 Q1094.8594,62.4375 1094.1719,61.4219 Q1093.5,60.4063 1093.5,59.2031 L1093.5,58.1094 Q1093.5,56.8594 1094.0938,55.7656 Q1094.7031,54.6719 1095.75,54.0938 Q1096.8125,53.5 1098,53.5 Q1098.7188,53.5 1099.3438,53.75 Q1099.9688,54 1100.5,54.5 Z " fill="#000000"/><text fill="#000000" font-family="sans-serif" font-size="12" lengthAdjust="spacing" textLength="33" x="1112.5" y="62.9102">Board</text><line style="stroke:#A80036;stroke-width:1.5;" x1="1084.5" x2="1147.5" y1="74" y2="74"/><line style="stroke:#A80036;stroke-width:1.5;" x1="1084.5" x2="1147.5" y1="82" y2="82"/><!--MD5=[629c6d17119cecbb56307adb03ce148e]
class utils.IOHandler--><rect codeLine="77" fill="#FEFECE" filter="url(#fblzanwlpl854)" height="48" id="utils.IOHandler" style="stroke:#A80036;stroke-width:1.5;" width="88" x="474" y="42"/><ellipse cx="489" cy="58" fill="#ADD1B2" rx="11" ry="11" style="stroke:#A80036;stroke-width:1.0;"/><path d="M491,54.5 Q491.2031,54 491.4375,53.75 Q491.6719,53.5 491.9375,53.5 Q492.4063,53.5 492.7031,53.7813 Q493,54.0625 493,54.7188 L493,56.2813 Q493,56.9375 492.7188,57.2188 Q492.4375,57.5 492,57.5 Q491.6094,57.5 491.3594,57.3281 Q491.1094,57.1563 491,56.7031 Q490.9531,56.3906 490.7813,56.2188 Q490.4688,55.8906 489.9063,55.7031 Q489.3438,55.5 488.7813,55.5 Q488.0781,55.5 487.4844,55.7813 Q486.9063,56.0625 486.4531,56.6875 Q486,57.3125 486,58.1719 L486,59.0938 Q486,60.125 486.8438,60.8125 Q487.6875,61.5 489.1875,61.5 Q490.0781,61.5 490.7031,61.2969 Q491.0625,61.1875 491.4688,60.8281 Q491.7344,60.625 491.875,60.5625 Q492.0156,60.5 492.1875,60.5 Q492.5156,60.5 492.75,60.7656 Q493,61.0156 493,61.375 Q493,61.7188 492.6563,62.125 Q492.1563,62.7188 491.3594,63.0469 Q490.3125,63.5 489.0313,63.5 Q487.5313,63.5 486.3281,62.9063 Q485.3594,62.4375 484.6719,61.4219 Q484,60.4063 484,59.2031 L484,58.1094 Q484,56.8594 484.5938,55.7656 Q485.2031,54.6719 486.25,54.0938 Q487.3125,53.5 488.5,53.5 Q489.2188,53.5 489.8438,53.75 Q490.4688,54 491,54.5 Z " fill="#000000"/><text fill="#000000" font-family="sans-serif" font-size="12" lengthAdjust="spacing" textLength="56" x="503" y="62.9102">IOHandler</text><line style="stroke:#A80036;stroke-width:1.5;" x1="475" x2="561" y1="74" y2="74"/><line style="stroke:#A80036;stroke-width:1.5;" x1="475" x2="561" y1="82" y2="82"/><!--MD5=[c94bf9e2a94e1f74890cbcf91aab3a62]
class utils.IOObject--><rect codeLine="81" fill="#FEFECE" filter="url(#fblzanwlpl854)" height="48" id="utils.IOObject" style="stroke:#A80036;stroke-width:1.5;" width="81" x="357.5" y="42"/><ellipse cx="372.5" cy="58" fill="#A9DCDF" rx="11" ry="11" style="stroke:#A80036;stroke-width:1.0;"/><path d="M374.25,59.5 L370.9531,59.5 L370.5156,60.5 L370.5156,60.5 L370.9844,60.5 L371.5,61.125 L371.5,61.5 L371.5,61.875 L370.9844,62.5 L370.5156,62.5 L368.625,62.5 L368.0156,62.5 L367.5,61.875 L367.5,61.5 L367.5,61.125 L368.0156,60.5 L368.625,60.5 L370.9375,54.5 L370.0625,54.5 L369.0156,54.5 L368.5,53.875 L368.5,53.5 L368.5,53.125 L369.0156,52.5 L370.0625,52.5 L373.7344,52.5 L376.4219,60.5 L376.9844,60.5 L376.9844,60.5 L377.5,61.125 L377.5,61.5 L377.5,61.875 L376.9844,62.5 L376.4219,62.5 L374.5313,62.5 L374.0156,62.5 L373.5,61.875 L373.5,61.5 L373.5,61.125 L374.0156,60.5 L374.5313,60.5 L374.5313,60.5 L374.25,59.5 Z M373.7031,57.5 L372.5,53.9219 L371.4688,57.5 L373.7031,57.5 Z " fill="#000000"/><text fill="#000000" font-family="sans-serif" font-size="12" font-style="italic" lengthAdjust="spacing" textLength="49" x="386.5" y="62.9102">IOObject</text><line style="stroke:#A80036;stroke-width:1.5;" x1="358.5" x2="437.5" y1="74" y2="74"/><line style="stroke:#A80036;stroke-width:1.5;" x1="358.5" x2="437.5" y1="82" y2="82"/><!--MD5=[e7d94b46357b5bc331758902d85e5c6c]
class utils.ItemTimer--><rect codeLine="84" fill="#FEFECE" filter="url(#fblzanwlpl854)" height="48" id="utils.ItemTimer" style="stroke:#A80036;stroke-width:1.5;" width="88" x="234" y="42"/><ellipse cx="249" cy="58" fill="#ADD1B2" rx="11" ry="11" style="stroke:#A80036;stroke-width:1.0;"/><path d="M251,54.5 Q251.2031,54 251.4375,53.75 Q251.6719,53.5 251.9375,53.5 Q252.4063,53.5 252.7031,53.7813 Q253,54.0625 253,54.7188 L253,56.2813 Q253,56.9375 252.7188,57.2188 Q252.4375,57.5 252,57.5 Q251.6094,57.5 251.3594,57.3281 Q251.1094,57.1563 251,56.7031 Q250.9531,56.3906 250.7813,56.2188 Q250.4688,55.8906 249.9063,55.7031 Q249.3438,55.5 248.7813,55.5 Q248.0781,55.5 247.4844,55.7813 Q246.9063,56.0625 246.4531,56.6875 Q246,57.3125 246,58.1719 L246,59.0938 Q246,60.125 246.8438,60.8125 Q247.6875,61.5 249.1875,61.5 Q250.0781,61.5 250.7031,61.2969 Q251.0625,61.1875 251.4688,60.8281 Q251.7344,60.625 251.875,60.5625 Q252.0156,60.5 252.1875,60.5 Q252.5156,60.5 252.75,60.7656 Q253,61.0156 253,61.375 Q253,61.7188 252.6563,62.125 Q252.1563,62.7188 251.3594,63.0469 Q250.3125,63.5 249.0313,63.5 Q247.5313,63.5 246.3281,62.9063 Q245.3594,62.4375 244.6719,61.4219 Q244,60.4063 244,59.2031 L244,58.1094 Q244,56.8594 244.5938,55.7656 Q245.2031,54.6719 246.25,54.0938 Q247.3125,53.5 248.5,53.5 Q249.2188,53.5 249.8438,53.75 Q250.4688,54 251,54.5 Z " fill="#000000"/><text fill="#000000" font-family="sans-serif" font-size="12" lengthAdjust="spacing" textLength="56" x="263" y="62.9102">ItemTimer</text><line style="stroke:#A80036;stroke-width:1.5;" x1="235" x2="321" y1="74" y2="74"/><line style="stroke:#A80036;stroke-width:1.5;" x1="235" x2="321" y1="82" y2="82"/><!--MD5=[10f778e5ada94756d417f03c09e3f7bc]
reverse link entities.creatures.Creature to entities.creatures.Player--><path codeLine="89" d="M396.38,358.02 C395.86,371.58 395.32,386.04 394.88,397.68 " fill="none" id="entities.creatures.Creature-backto-entities.creatures.Player" style="stroke:#A80036;stroke-width:1.0;"/><polygon fill="none" points="389.38,357.72,397.13,338,403.37,358.25,389.38,357.72" style="stroke:#A80036;stroke-width:1.0;"/><!--MD5=[a835d6e75637d0a35a79f17d88e81d24]
reverse link entities.Entity to entities.creatures.Creature--><path codeLine="92" d="M398,234.27 C398,253.01 398,274.18 398,289.85 " fill="none" id="entities.Entity-backto-entities.creatures.Creature" style="stroke:#A80036;stroke-width:1.0;"/><polygon fill="none" points="391,234.23,398,214.23,405,234.23,391,234.23" style="stroke:#A80036;stroke-width:1.0;"/><!--MD5=[04317c9b876fc3e4a5c0fa61d8f86068]
reverse link entities.Entity to entities.items.Item--><path codeLine="95" d="M360.27,228.08 C356.52,231.5 352.72,234.85 349,238 C325.48,257.88 297.23,278.61 276.59,293.23 " fill="none" id="entities.Entity-backto-entities.items.Item" style="stroke:#A80036;stroke-width:1.0;"/><polygon fill="none" points="355.77,222.71,375.13,214.09,365.37,232.9,355.77,222.71" style="stroke:#A80036;stroke-width:1.0;"/><!--MD5=[16d80ee4e8157af449c78820c72f45ec]
reverse link utils.IOObject to entities.Entity--><path codeLine="98" d="M398,110.27 C398,129.01 398,150.18 398,165.85 " fill="none" id="utils.IOObject-backto-entities.Entity" style="stroke:#A80036;stroke-width:1.0;"/><polygon fill="none" points="391,110.23,398,90.23,405,110.23,391,110.23" style="stroke:#A80036;stroke-width:1.0;"/><!--MD5=[099af974e4d8c4930944301d06aadd20]
reverse link entities.items.Item to entities.items.BombCollectable--><path codeLine="101" d="M202.85,346.49 C179.22,362.96 150.81,382.78 129.22,397.83 " fill="none" id="entities.items.Item-backto-entities.items.BombCollectable" style="stroke:#A80036;stroke-width:1.0;"/><polygon fill="none" points="199,340.64,219.41,334.94,207.01,352.12,199,340.64" style="stroke:#A80036;stroke-width:1.0;"/><!--MD5=[6684e57e27f659cc4f7d8353e9c665cd]
reverse link entities.items.Item to entities.items.BombPlanted--><path codeLine="104" d="M248,358.02 C248,371.58 248,386.04 248,397.68 " fill="none" id="entities.items.Item-backto-entities.items.BombPlanted" style="stroke:#A80036;stroke-width:1.0;"/><polygon fill="none" points="241,358,248,338,255,358,241,358" style="stroke:#A80036;stroke-width:1.0;"/><!--MD5=[17096a5022e9768a8096a03d462e8eef]
reverse link world.Layer to world.TileLayer--><path codeLine="107" d="M762,358.02 C762,371.58 762,386.04 762,397.68 " fill="none" id="world.Layer-backto-world.TileLayer" style="stroke:#A80036;stroke-width:1.0;"/><polygon fill="none" points="755,358,762,338,769,358,755,358" style="stroke:#A80036;stroke-width:1.0;"/><!--MD5=[8d2db7110221b90f4d8ef6a899383274]
reverse link entities.items.BombCollectable to gfx.TextureManager--><path codeLine="112" d="M83.82,458.7 C73.59,495.55 64.35,553.25 90,594 C104,616.25 128.99,630.3 152.8,639.07 " fill="none" id="entities.items.BombCollectable-backto-gfx.TextureManager" style="stroke:#A80036;stroke-width:1.0;"/><polygon fill="#FFFFFF" points="87.57,446.13,82.0224,450.7369,84.1412,457.6297,89.6888,453.0228,87.57,446.13" style="stroke:#A80036;stroke-width:1.0;"/><!--MD5=[7b43d8d9c5e321060e85453c7686acf2]
reverse link entities.items.BombPlanted to gfx.Animation--><path codeLine="115" d="M251.88,459.42 C254.04,479.66 256.66,504.24 258.53,521.85 " fill="none" id="entities.items.BombPlanted-backto-gfx.Animation" style="stroke:#A80036;stroke-width:1.0;"/><polygon fill="#FFFFFF" points="250.48,446.23,247.1352,452.6185,251.7458,458.1631,255.0906,451.7746,250.48,446.23" style="stroke:#A80036;stroke-width:1.0;"/><!--MD5=[1033a3e59b607c4d0988c914c9ff53e9]
reverse link gfx.DrawManager to gfx.Vector2D--><path codeLine="118" d="M394,583.34 C394,598.68 394,616.1 394,629.68 " fill="none" id="gfx.DrawManager-backto-gfx.Vector2D" style="stroke:#A80036;stroke-width:1.0;"/><polygon fill="#FFFFFF" points="394,570,390,576,394,582,398,576,394,570" style="stroke:#A80036;stroke-width:1.0;"/><!--MD5=[06c8f4031f32bc58dc0f9b17d595e51a]
reverse link entities.Entity to gfx.Transform--><path codeLine="121" d="M437.05,223.65 C443.45,230.48 449.46,238.05 454,246 C507,338.89 522.36,469.14 526.54,521.67 " fill="none" id="entities.Entity-backto-gfx.Transform" style="stroke:#A80036;stroke-width:1.0;"/><polygon fill="#FFFFFF" points="427.52,214.19,428.9617,221.2555,436.0382,222.6423,434.5965,215.5767,427.52,214.19" style="stroke:#A80036;stroke-width:1.0;"/><!--MD5=[e6c69a633ed1049a0e7609d1d310e69c]
reverse link states.Game to world.GameMap--><path codeLine="124" d="M861.47,99.11 C838.27,120.08 808.51,146.97 787.61,165.85 " fill="none" id="states.Game-backto-world.GameMap" style="stroke:#A80036;stroke-width:1.0;"/><polygon fill="#FFFFFF" points="871.29,90.23,864.1566,91.2857,862.3875,98.2765,869.5209,97.2207,871.29,90.23" style="stroke:#A80036;stroke-width:1.0;"/><!--MD5=[46ac167ed1ddf2cf564eff04ea1b5b2a]
reverse link world.GameMap to world.Layer--><path codeLine="127" d="M762,227.42 C762,247.66 762,272.24 762,289.85 " fill="none" id="world.GameMap-backto-world.Layer" style="stroke:#A80036;stroke-width:1.0;"/><polygon fill="#FFFFFF" points="762,214.23,758,220.23,762,226.23,766,220.23,762,214.23" style="stroke:#A80036;stroke-width:1.0;"/><!--MD5=[93f83c5ab99c1d2280c924b910bccc7b]
reverse link world.MapParser to world.GameMap--><path codeLine="130" d="M762,103.42 C762,123.66 762,148.24 762,165.85 " fill="none" id="world.MapParser-backto-world.GameMap" style="stroke:#A80036;stroke-width:1.0;"/><polygon fill="#FFFFFF" points="762,90.23,758,96.23,762,102.23,766,96.23,762,90.23" style="stroke:#A80036;stroke-width:1.0;"/><!--MD5=[a7cc82530030d4968bd2040d06b31cef]
reverse link entities.creatures.Player to gfx.Animation--><path codeLine="133" d="M350.45,454.27 C340.81,461.73 330.84,469.89 322,478 C307.16,491.61 291.91,508.36 280.37,521.71 " fill="none" id="entities.creatures.Player-backto-gfx.Animation" style="stroke:#A80036;stroke-width:1.0;"/><polygon fill="#FFFFFF" points="361.11,446.18,353.9123,446.6196,351.5497,453.4326,358.7474,452.9931,361.11,446.18" style="stroke:#A80036;stroke-width:1.0;"/><!--MD5=[dbbe94031ce551aebe6dc52ae1f57bf7]
reverse link entities.creatures.Player to gfx.DrawManager--><path codeLine="136" d="M394,459.42 C394,479.66 394,504.24 394,521.85 " fill="none" id="entities.creatures.Player-backto-gfx.DrawManager" style="stroke:#A80036;stroke-width:1.0;"/><polygon fill="#FFFFFF" points="394,446.23,390,452.23,394,458.23,398,452.23,394,446.23" style="stroke:#A80036;stroke-width:1.0;"/><!--MD5=[992167aa91069c83fccfdba82f6392d8]
reverse link gfx.Animation to gfx.TextureManager--><path codeLine="139" d="M245.18,581.94 C238.08,597.61 229.9,615.68 223.56,629.68 " fill="none" id="gfx.Animation-backto-gfx.TextureManager" style="stroke:#A80036;stroke-width:1.0;"/><polygon fill="#FFFFFF" points="250.58,570,244.4627,573.8181,245.6342,580.9334,251.7516,577.1153,250.58,570" style="stroke:#A80036;stroke-width:1.0;"/><!--MD5=[23cd05996af9d076982a26ce4bae3957]
reverse link world.TileLayer to world.Tileset--><path codeLine="142" d="M762,459.42 C762,479.66 762,504.24 762,521.85 " fill="none" id="world.TileLayer-backto-world.Tileset" style="stroke:#A80036;stroke-width:1.0;"/><polygon fill="#A80036" points="762,446.23,758,452.23,762,458.23,766,452.23,762,446.23" style="stroke:#A80036;stroke-width:1.0;"/><!--MD5=[e7e7d528996e7c553e880a6b45506edd]
@startuml
/' Objects '/
abstract class entities.Entity {
}

abstract class entities.items.Item {
}

class entities.items.BombCollectable {
}


class entities.items.BombPlanted {
}


abstract class entities.creatures.Creature {
}

class entities.creatures.Player {
}

class gfx.Animation {
}


class gfx.DrawManager {
}

abstract class world.Layer {
}


class world.MapParser {
}


class states.Menu {
}

class gfx.TextureManager {
}


class gfx.Transform {
}


class gfx.Vector2D {
}

class entities.Properties {
}

class states.Game {
}

class interfaces.Board {
}


class world.GameMap {
}

class gfx.UILabel {
}

class world.Tile {
}


class world.TileLayer {
}

class world.Tileset {
}

class utils.IOHandler {
}


abstract class utils.IOObject {
}

class utils.ItemTimer {
}

/' Inheritance relationships '/

.entities.creatures.Creature <|- - .entities.creatures.Player


.entities.Entity <|- - .entities.creatures.Creature


.entities.Entity <|- - .entities.items.Item


.utils.IOObject <|- - .entities.Entity


.entities.items.Item <|- - .entities.items.BombCollectable


.entities.items.Item <|- - .entities.items.BombPlanted


.world.Layer <|- - .world.TileLayer

/' Aggregation relationships '/


.entities.items.BombCollectable o- - .gfx.TextureManager


.entities.items.BombPlanted o- - .gfx.Animation


.gfx.DrawManager o- - .gfx.Vector2D


.entities.Entity o- - .gfx.Transform


.states.Game o- - .world.GameMap


.world.GameMap o- - .world.Layer


.world.MapParser o- - .world.GameMap


.entities.creatures.Player o- - .gfx.Animation


.entities.creatures.Player o- - .gfx.DrawManager


.gfx.Animation o- - .gfx.TextureManager


.world.TileLayer *- - .world.Tileset


/' Nested objects '/


@enduml

@startuml
abstract class entities.Entity {
}

abstract class entities.items.Item {
}

class entities.items.BombCollectable {
}


class entities.items.BombPlanted {
}


abstract class entities.creatures.Creature {
}

class entities.creatures.Player {
}

class gfx.Animation {
}


class gfx.DrawManager {
}

abstract class world.Layer {
}


class world.MapParser {
}


class states.Menu {
}

class gfx.TextureManager {
}


class gfx.Transform {
}


class gfx.Vector2D {
}

class entities.Properties {
}

class states.Game {
}

class interfaces.Board {
}


class world.GameMap {
}

class gfx.UILabel {
}

class world.Tile {
}


class world.TileLayer {
}

class world.Tileset {
}

class utils.IOHandler {
}


abstract class utils.IOObject {
}

class utils.ItemTimer {
}


.entities.creatures.Creature <|- - .entities.creatures.Player


.entities.Entity <|- - .entities.creatures.Creature


.entities.Entity <|- - .entities.items.Item


.utils.IOObject <|- - .entities.Entity


.entities.items.Item <|- - .entities.items.BombCollectable


.entities.items.Item <|- - .entities.items.BombPlanted


.world.Layer <|- - .world.TileLayer



.entities.items.BombCollectable o- - .gfx.TextureManager


.entities.items.BombPlanted o- - .gfx.Animation


.gfx.DrawManager o- - .gfx.Vector2D


.entities.Entity o- - .gfx.Transform


.states.Game o- - .world.GameMap


.world.GameMap o- - .world.Layer


.world.MapParser o- - .world.GameMap


.entities.creatures.Player o- - .gfx.Animation


.entities.creatures.Player o- - .gfx.DrawManager


.gfx.Animation o- - .gfx.TextureManager


.world.TileLayer *- - .world.Tileset




@enduml

PlantUML version 1.2021.01(Tue Feb 02 15:55:08 SGT 2021)
(GPL source distribution)
Java Runtime: OpenJDK Runtime Environment
JVM: OpenJDK 64-Bit Server VM
Default Encoding: Cp1252
Language: en
Country: SG
--></g></svg>