<?xml version="1.0" encoding="UTF-8" standalone="no"?><svg xmlns="http://www.w3.org/2000/svg" xmlns:xlink="http://www.w3.org/1999/xlink" contentScriptType="application/ecmascript" contentStyleType="text/css" height="609.87px" preserveAspectRatio="none" style="width:1028px;height:609px;" version="1.1" viewBox="0 0 1028 609" width="1028.34px" zoomAndPan="magnify"><defs><filter height="300%" id="fe9c7s4vh3y1p" width="300%" x="-1" y="-1"><feGaussianBlur result="blurOut" stdDeviation="1.74"/><feColorMatrix in="blurOut" result="blurOut2" type="matrix" values="0 0 0 0 0 0 0 0 0 0 0 0 0 0 0 0 0 0 .4 0"/><feOffset dx="3.48" dy="3.48" in="blurOut2" result="blurOut3"/><feBlend in="SourceGraphic" in2="blurOut3" mode="normal"/></filter></defs><g><!--MD5=[2a013135f1f90689be40a3c084fed702]
cluster entities--><polygon fill="#FFFFFF" filter="url(#fe9c7s4vh3y1p)" points="196.62,113.1,247.95,113.1,254.04,133.6402,387.15,133.6402,387.15,200.1,196.62,200.1,196.62,113.1" style="stroke:#000000;stroke-width:1.305;"/><line style="stroke:#000000;stroke-width:1.305;" x1="196.62" x2="254.04" y1="133.6402" y2="133.6402"/><text fill="#000000" font-family="sans-serif" font-size="12.18" font-weight="bold" lengthAdjust="spacing" textLength="46.11" x="200.1" y="127.4839">entities</text><!--MD5=[1cda01132c61fe02d01ee0e1238bf64b]
cluster entities.items--><polygon fill="#FFFFFF" filter="url(#fe9c7s4vh3y1p)" points="13.92,220.98,101.79,220.98,107.88,241.5202,276.66,241.5202,276.66,401.94,13.92,401.94,13.92,220.98" style="stroke:#000000;stroke-width:1.305;"/><line style="stroke:#000000;stroke-width:1.305;" x1="13.92" x2="107.88" y1="241.5202" y2="241.5202"/><text fill="#000000" font-family="sans-serif" font-size="12.18" font-weight="bold" lengthAdjust="spacing" textLength="82.65" x="17.4" y="235.3639">entities.items</text><!--MD5=[b47934f7eddf50b05bebba079a2d5c33]
cluster entities.creatures--><polygon fill="#FFFFFF" filter="url(#fe9c7s4vh3y1p)" points="297.54,220.98,411.51,220.98,417.6,241.5202,420.21,241.5202,420.21,401.94,297.54,401.94,297.54,220.98" style="stroke:#000000;stroke-width:1.305;"/><line style="stroke:#000000;stroke-width:1.305;" x1="297.54" x2="417.6" y1="241.5202" y2="241.5202"/><text fill="#000000" font-family="sans-serif" font-size="12.18" font-weight="bold" lengthAdjust="spacing" textLength="108.75" x="301.02" y="235.3639">entities.creatures</text><!--MD5=[67f236fd0af0b11b2ef5a832d8415319]
cluster gfx--><polygon fill="#FFFFFF" filter="url(#fe9c7s4vh3y1p)" points="79.17,422.82,103.53,422.82,109.62,443.3602,512.43,443.3602,512.43,603.78,79.17,603.78,79.17,422.82" style="stroke:#000000;stroke-width:1.305;"/><line style="stroke:#000000;stroke-width:1.305;" x1="79.17" x2="109.62" y1="443.3602" y2="443.3602"/><text fill="#000000" font-family="sans-serif" font-size="12.18" font-weight="bold" lengthAdjust="spacing" textLength="19.14" x="82.65" y="437.2039">gfx</text><!--MD5=[38fe1c859229b9f23ba24ebfd54228a3]
cluster world--><polygon fill="#FFFFFF" filter="url(#fe9c7s4vh3y1p)" points="533.31,5.22,572.46,5.22,578.55,25.7602,716.88,25.7602,716.88,509.82,533.31,509.82,533.31,5.22" style="stroke:#000000;stroke-width:1.305;"/><line style="stroke:#000000;stroke-width:1.305;" x1="533.31" x2="578.55" y1="25.7602" y2="25.7602"/><text fill="#000000" font-family="sans-serif" font-size="12.18" font-weight="bold" lengthAdjust="spacing" textLength="33.93" x="536.79" y="19.6039">world</text><!--MD5=[61ef0e7cedb036059990bfe942fe9360]
cluster states--><polygon fill="#FFFFFF" filter="url(#fe9c7s4vh3y1p)" points="737.76,5.22,780.39,5.22,786.48,25.7602,907.41,25.7602,907.41,92.22,737.76,92.22,737.76,5.22" style="stroke:#000000;stroke-width:1.305;"/><line style="stroke:#000000;stroke-width:1.305;" x1="737.76" x2="786.48" y1="25.7602" y2="25.7602"/><text fill="#000000" font-family="sans-serif" font-size="12.18" font-weight="bold" lengthAdjust="spacing" textLength="37.41" x="741.24" y="19.6039">states</text><!--MD5=[e25d2abf3c472b89b03b52c7e4262e29]
cluster interfaces--><polygon fill="#FFFFFF" filter="url(#fe9c7s4vh3y1p)" points="928.29,5.22,995.28,5.22,1001.37,25.7602,1013.55,25.7602,1013.55,92.22,928.29,92.22,928.29,5.22" style="stroke:#000000;stroke-width:1.305;"/><line style="stroke:#000000;stroke-width:1.305;" x1="928.29" x2="1001.37" y1="25.7602" y2="25.7602"/><text fill="#000000" font-family="sans-serif" font-size="12.18" font-weight="bold" lengthAdjust="spacing" textLength="61.77" x="931.77" y="19.6039">interfaces</text><!--MD5=[c52f45833d539af9e29a9d34b8b7302b]
cluster utils--><polygon fill="#FFFFFF" filter="url(#fe9c7s4vh3y1p)" points="85.26,5.22,116.58,5.22,122.67,25.7602,398.46,25.7602,398.46,92.22,85.26,92.22,85.26,5.22" style="stroke:#000000;stroke-width:1.305;"/><line style="stroke:#000000;stroke-width:1.305;" x1="85.26" x2="122.67" y1="25.7602" y2="25.7602"/><text fill="#000000" font-family="sans-serif" font-size="12.18" font-weight="bold" lengthAdjust="spacing" textLength="26.1" x="88.74" y="19.6039">utils</text><!--MD5=[6ea7ee656260804a75c4cf9e9f7baa9f]
class entities.Entity--><rect codeLine="2" fill="#FEFECE" filter="url(#fe9c7s4vh3y1p)" height="41.76" id="entities.Entity" style="stroke:#A80036;stroke-width:1.305;" width="53.94" x="319.29" y="144.42"/><ellipse cx="332.34" cy="158.34" fill="#A9DCDF" rx="9.57" ry="9.57" style="stroke:#A80036;stroke-width:0.87;"/><path d="M333.8625,159.645 L330.9942,159.645 L330.6136,160.515 L330.6136,160.515 L331.0214,160.515 L331.47,161.0588 L331.47,161.385 L331.47,161.7113 L331.0214,162.255 L330.6136,162.255 L328.9688,162.255 L328.4386,162.255 L327.99,161.7113 L327.99,161.385 L327.99,161.0588 L328.4386,160.515 L328.9688,160.515 L330.9806,155.295 L330.2194,155.295 L329.3086,155.295 L328.86,154.7513 L328.86,154.425 L328.86,154.0988 L329.3086,153.555 L330.2194,153.555 L333.4139,153.555 L335.752,160.515 L336.2414,160.515 L336.2414,160.515 L336.69,161.0588 L336.69,161.385 L336.69,161.7113 L336.2414,162.255 L335.752,162.255 L334.1072,162.255 L333.6586,162.255 L333.21,161.7113 L333.21,161.385 L333.21,161.0588 L333.6586,160.515 L334.1072,160.515 L334.1072,160.515 L333.8625,159.645 Z M333.3867,157.905 L332.34,154.792 L331.4428,157.905 L333.3867,157.905 Z " fill="#000000"/><text fill="#000000" font-family="sans-serif" font-size="10.44" font-style="italic" lengthAdjust="spacing" textLength="26.1" x="344.52" y="162.6118">Entity</text><line style="stroke:#A80036;stroke-width:1.305;" x1="320.16" x2="372.36" y1="172.26" y2="172.26"/><line style="stroke:#A80036;stroke-width:1.305;" x1="320.16" x2="372.36" y1="179.22" y2="179.22"/><!--MD5=[70e37a7b411d2923c69276d426f1144b]
class entities.Properties--><rect codeLine="51" fill="#FEFECE" filter="url(#fe9c7s4vh3y1p)" height="41.76" id="entities.Properties" style="stroke:#A80036;stroke-width:1.305;" width="77.43" x="210.975" y="144.42"/><ellipse cx="224.025" cy="158.34" fill="#ADD1B2" rx="9.57" ry="9.57" style="stroke:#A80036;stroke-width:0.87;"/><path d="M225.765,155.295 Q225.9417,154.86 226.1456,154.6425 Q226.3495,154.425 226.5806,154.425 Q226.9884,154.425 227.2467,154.6697 Q227.505,154.9144 227.505,155.4853 L227.505,156.8447 Q227.505,157.4156 227.2603,157.6603 Q227.0156,157.905 226.635,157.905 Q226.2952,157.905 226.0777,157.7555 Q225.8602,157.6059 225.765,157.2117 Q225.7242,156.9398 225.5747,156.7903 Q225.3028,156.5048 224.8134,156.3417 Q224.3241,156.165 223.8347,156.165 Q223.223,156.165 222.7064,156.4097 Q222.2034,156.6544 221.8092,157.1981 Q221.415,157.7419 221.415,158.4895 L221.415,159.2916 Q221.415,160.1888 222.1491,160.7869 Q222.8831,161.385 224.1881,161.385 Q224.963,161.385 225.5067,161.2083 Q225.8194,161.1131 226.1728,160.8005 Q226.4039,160.6238 226.5263,160.5694 Q226.6486,160.515 226.7981,160.515 Q227.0836,160.515 227.2875,160.7461 Q227.505,160.9636 227.505,161.2763 Q227.505,161.5753 227.2059,161.9288 Q226.7709,162.4453 226.0777,162.7308 Q225.1669,163.125 224.0522,163.125 Q222.7472,163.125 221.7005,162.6084 Q220.8577,162.2006 220.2595,161.317 Q219.675,160.4334 219.675,159.3867 L219.675,158.4352 Q219.675,157.3477 220.1916,156.3961 Q220.7217,155.4445 221.6325,154.9416 Q222.5569,154.425 223.59,154.425 Q224.2153,154.425 224.7591,154.6425 Q225.3028,154.86 225.765,155.295 Z " fill="#000000"/><text fill="#000000" font-family="sans-serif" font-size="10.44" lengthAdjust="spacing" textLength="49.59" x="236.205" y="162.6118">Properties</text><line style="stroke:#A80036;stroke-width:1.305;" x1="211.845" x2="287.535" y1="172.26" y2="172.26"/><line style="stroke:#A80036;stroke-width:1.305;" x1="211.845" x2="287.535" y1="179.22" y2="179.22"/><!--MD5=[940610cbb1f849f08cd09d0d13097334]
class entities.items.Item--><rect codeLine="5" fill="#FEFECE" filter="url(#fe9c7s4vh3y1p)" height="41.76" id="entities.items.Item" style="stroke:#A80036;stroke-width:1.305;" width="49.59" x="190.965" y="252.3"/><ellipse cx="204.015" cy="266.22" fill="#A9DCDF" rx="9.57" ry="9.57" style="stroke:#A80036;stroke-width:0.87;"/><path d="M205.5375,267.525 L202.6692,267.525 L202.2886,268.395 L202.2886,268.395 L202.6964,268.395 L203.145,268.9387 L203.145,269.265 L203.145,269.5913 L202.6964,270.135 L202.2886,270.135 L200.6438,270.135 L200.1136,270.135 L199.665,269.5913 L199.665,269.265 L199.665,268.9387 L200.1136,268.395 L200.6438,268.395 L202.6556,263.175 L201.8944,263.175 L200.9836,263.175 L200.535,262.6313 L200.535,262.305 L200.535,261.9788 L200.9836,261.435 L201.8944,261.435 L205.0889,261.435 L207.427,268.395 L207.9164,268.395 L207.9164,268.395 L208.365,268.9387 L208.365,269.265 L208.365,269.5913 L207.9164,270.135 L207.427,270.135 L205.7822,270.135 L205.3336,270.135 L204.885,269.5913 L204.885,269.265 L204.885,268.9387 L205.3336,268.395 L205.7822,268.395 L205.7822,268.395 L205.5375,267.525 Z M205.0617,265.785 L204.015,262.672 L203.1178,265.785 L205.0617,265.785 Z " fill="#000000"/><text fill="#000000" font-family="sans-serif" font-size="10.44" font-style="italic" lengthAdjust="spacing" textLength="21.75" x="216.195" y="270.4918">Item</text><line style="stroke:#A80036;stroke-width:1.305;" x1="191.835" x2="239.685" y1="280.14" y2="280.14"/><line style="stroke:#A80036;stroke-width:1.305;" x1="191.835" x2="239.685" y1="287.1" y2="287.1"/><!--MD5=[20708c2183c059c6e7611171a8a57f32]
class entities.items.BombCollectable--><rect codeLine="8" fill="#FEFECE" filter="url(#fe9c7s4vh3y1p)" height="41.76" id="entities.items.BombCollectable" style="stroke:#A80036;stroke-width:1.305;" width="110.49" x="28.275" y="346.26"/><ellipse cx="41.325" cy="360.18" fill="#ADD1B2" rx="9.57" ry="9.57" style="stroke:#A80036;stroke-width:0.87;"/><path d="M43.065,357.135 Q43.2417,356.7 43.4456,356.4825 Q43.6495,356.265 43.8806,356.265 Q44.2884,356.265 44.5467,356.5097 Q44.805,356.7544 44.805,357.3253 L44.805,358.6847 Q44.805,359.2556 44.5603,359.5003 Q44.3156,359.745 43.935,359.745 Q43.5952,359.745 43.3777,359.5955 Q43.1602,359.4459 43.065,359.0517 Q43.0242,358.7798 42.8747,358.6303 Q42.6028,358.3448 42.1134,358.1817 Q41.6241,358.005 41.1347,358.005 Q40.523,358.005 40.0064,358.2497 Q39.5034,358.4944 39.1092,359.0381 Q38.715,359.5819 38.715,360.3295 L38.715,361.1316 Q38.715,362.0288 39.4491,362.6269 Q40.1831,363.225 41.4881,363.225 Q42.263,363.225 42.8067,363.0483 Q43.1194,362.9531 43.4728,362.6405 Q43.7039,362.4638 43.8263,362.4094 Q43.9486,362.355 44.0981,362.355 Q44.3836,362.355 44.5875,362.5861 Q44.805,362.8036 44.805,363.1163 Q44.805,363.4153 44.5059,363.7688 Q44.0709,364.2853 43.3777,364.5708 Q42.4669,364.965 41.3522,364.965 Q40.0472,364.965 39.0005,364.4484 Q38.1577,364.0406 37.5595,363.157 Q36.975,362.2734 36.975,361.2267 L36.975,360.2752 Q36.975,359.1877 37.4916,358.2361 Q38.0217,357.2845 38.9325,356.7816 Q39.8569,356.265 40.89,356.265 Q41.5153,356.265 42.0591,356.4825 Q42.6028,356.7 43.065,357.135 Z " fill="#000000"/><text fill="#000000" font-family="sans-serif" font-size="10.44" lengthAdjust="spacing" textLength="82.65" x="53.505" y="364.4518">BombCollectable</text><line style="stroke:#A80036;stroke-width:1.305;" x1="29.145" x2="137.895" y1="374.1" y2="374.1"/><line style="stroke:#A80036;stroke-width:1.305;" x1="29.145" x2="137.895" y1="381.06" y2="381.06"/><!--MD5=[165d5a49fb56ee5d873275063b7611fd]
class entities.items.BombPlanted--><rect codeLine="12" fill="#FEFECE" filter="url(#fe9c7s4vh3y1p)" height="41.76" id="entities.items.BombPlanted" style="stroke:#A80036;stroke-width:1.305;" width="93.09" x="169.215" y="346.26"/><ellipse cx="182.265" cy="360.18" fill="#ADD1B2" rx="9.57" ry="9.57" style="stroke:#A80036;stroke-width:0.87;"/><path d="M184.005,357.135 Q184.1817,356.7 184.3856,356.4825 Q184.5895,356.265 184.8206,356.265 Q185.2284,356.265 185.4867,356.5097 Q185.745,356.7544 185.745,357.3253 L185.745,358.6847 Q185.745,359.2556 185.5003,359.5003 Q185.2556,359.745 184.875,359.745 Q184.5352,359.745 184.3177,359.5955 Q184.1002,359.4459 184.005,359.0517 Q183.9642,358.7798 183.8147,358.6303 Q183.5428,358.3448 183.0534,358.1817 Q182.5641,358.005 182.0747,358.005 Q181.463,358.005 180.9464,358.2497 Q180.4434,358.4944 180.0492,359.0381 Q179.655,359.5819 179.655,360.3295 L179.655,361.1316 Q179.655,362.0288 180.3891,362.6269 Q181.1231,363.225 182.4281,363.225 Q183.203,363.225 183.7467,363.0483 Q184.0594,362.9531 184.4128,362.6405 Q184.6439,362.4638 184.7662,362.4094 Q184.8886,362.355 185.0381,362.355 Q185.3236,362.355 185.5275,362.5861 Q185.745,362.8036 185.745,363.1163 Q185.745,363.4153 185.4459,363.7688 Q185.0109,364.2853 184.3177,364.5708 Q183.4069,364.965 182.2922,364.965 Q180.9872,364.965 179.9405,364.4484 Q179.0977,364.0406 178.4995,363.157 Q177.915,362.2734 177.915,361.2267 L177.915,360.2752 Q177.915,359.1877 178.4316,358.2361 Q178.9617,357.2845 179.8725,356.7816 Q180.7969,356.265 181.83,356.265 Q182.4553,356.265 182.9991,356.4825 Q183.5428,356.7 184.005,357.135 Z " fill="#000000"/><text fill="#000000" font-family="sans-serif" font-size="10.44" lengthAdjust="spacing" textLength="65.25" x="194.445" y="364.4518">BombPlanted</text><line style="stroke:#A80036;stroke-width:1.305;" x1="170.085" x2="261.435" y1="374.1" y2="374.1"/><line style="stroke:#A80036;stroke-width:1.305;" x1="170.085" x2="261.435" y1="381.06" y2="381.06"/><!--MD5=[fff4fbefb74200d5cc792fdc24d62f59]
class entities.creatures.Creature--><rect codeLine="16" fill="#FEFECE" filter="url(#fe9c7s4vh3y1p)" height="41.76" id="entities.creatures.Creature" style="stroke:#A80036;stroke-width:1.305;" width="69.6" x="311.46" y="252.3"/><ellipse cx="324.51" cy="266.22" fill="#A9DCDF" rx="9.57" ry="9.57" style="stroke:#A80036;stroke-width:0.87;"/><path d="M326.0325,267.525 L323.1642,267.525 L322.7836,268.395 L322.7836,268.395 L323.1914,268.395 L323.64,268.9387 L323.64,269.265 L323.64,269.5913 L323.1914,270.135 L322.7836,270.135 L321.1388,270.135 L320.6086,270.135 L320.16,269.5913 L320.16,269.265 L320.16,268.9387 L320.6086,268.395 L321.1388,268.395 L323.1506,263.175 L322.3894,263.175 L321.4786,263.175 L321.03,262.6313 L321.03,262.305 L321.03,261.9788 L321.4786,261.435 L322.3894,261.435 L325.5839,261.435 L327.922,268.395 L328.4114,268.395 L328.4114,268.395 L328.86,268.9387 L328.86,269.265 L328.86,269.5913 L328.4114,270.135 L327.922,270.135 L326.2772,270.135 L325.8286,270.135 L325.38,269.5913 L325.38,269.265 L325.38,268.9387 L325.8286,268.395 L326.2772,268.395 L326.2772,268.395 L326.0325,267.525 Z M325.5567,265.785 L324.51,262.672 L323.6128,265.785 L325.5567,265.785 Z " fill="#000000"/><text fill="#000000" font-family="sans-serif" font-size="10.44" font-style="italic" lengthAdjust="spacing" textLength="41.76" x="336.69" y="270.4918">Creature</text><line style="stroke:#A80036;stroke-width:1.305;" x1="312.33" x2="380.19" y1="280.14" y2="280.14"/><line style="stroke:#A80036;stroke-width:1.305;" x1="312.33" x2="380.19" y1="287.1" y2="287.1"/><!--MD5=[79e611175aab30d878e28b1060269c5b]
class entities.creatures.Player--><rect codeLine="19" fill="#FEFECE" filter="url(#fe9c7s4vh3y1p)" height="41.76" id="entities.creatures.Player" style="stroke:#A80036;stroke-width:1.305;" width="57.42" x="314.07" y="346.26"/><ellipse cx="327.12" cy="360.18" fill="#ADD1B2" rx="9.57" ry="9.57" style="stroke:#A80036;stroke-width:0.87;"/><path d="M328.86,357.135 Q329.0367,356.7 329.2406,356.4825 Q329.4445,356.265 329.6756,356.265 Q330.0834,356.265 330.3417,356.5097 Q330.6,356.7544 330.6,357.3253 L330.6,358.6847 Q330.6,359.2556 330.3553,359.5003 Q330.1106,359.745 329.73,359.745 Q329.3902,359.745 329.1727,359.5955 Q328.9552,359.4459 328.86,359.0517 Q328.8192,358.7798 328.6697,358.6303 Q328.3978,358.3448 327.9084,358.1817 Q327.4191,358.005 326.9297,358.005 Q326.318,358.005 325.8014,358.2497 Q325.2984,358.4944 324.9042,359.0381 Q324.51,359.5819 324.51,360.3295 L324.51,361.1316 Q324.51,362.0288 325.2441,362.6269 Q325.9781,363.225 327.2831,363.225 Q328.058,363.225 328.6017,363.0483 Q328.9144,362.9531 329.2678,362.6405 Q329.4989,362.4638 329.6213,362.4094 Q329.7436,362.355 329.8931,362.355 Q330.1786,362.355 330.3825,362.5861 Q330.6,362.8036 330.6,363.1163 Q330.6,363.4153 330.3009,363.7688 Q329.8659,364.2853 329.1727,364.5708 Q328.2619,364.965 327.1472,364.965 Q325.8422,364.965 324.7955,364.4484 Q323.9527,364.0406 323.3545,363.157 Q322.77,362.2734 322.77,361.2267 L322.77,360.2752 Q322.77,359.1877 323.2866,358.2361 Q323.8167,357.2845 324.7275,356.7816 Q325.6519,356.265 326.685,356.265 Q327.3103,356.265 327.8541,356.4825 Q328.3978,356.7 328.86,357.135 Z " fill="#000000"/><text fill="#000000" font-family="sans-serif" font-size="10.44" lengthAdjust="spacing" textLength="29.58" x="339.3" y="364.4518">Player</text><line style="stroke:#A80036;stroke-width:1.305;" x1="314.94" x2="370.62" y1="374.1" y2="374.1"/><line style="stroke:#A80036;stroke-width:1.305;" x1="314.94" x2="370.62" y1="381.06" y2="381.06"/><!--MD5=[31b39ed9b6cb36778e2b2be9841862c5]
class gfx.Animation--><rect codeLine="22" fill="#FEFECE" filter="url(#fe9c7s4vh3y1p)" height="41.76" id="gfx.Animation" style="stroke:#A80036;stroke-width:1.305;" width="75.69" x="189.225" y="454.14"/><ellipse cx="202.275" cy="468.06" fill="#ADD1B2" rx="9.57" ry="9.57" style="stroke:#A80036;stroke-width:0.87;"/><path d="M204.015,465.015 Q204.1917,464.58 204.3956,464.3625 Q204.5995,464.145 204.8306,464.145 Q205.2384,464.145 205.4967,464.3897 Q205.755,464.6344 205.755,465.2053 L205.755,466.5647 Q205.755,467.1356 205.5103,467.3803 Q205.2656,467.625 204.885,467.625 Q204.5452,467.625 204.3277,467.4755 Q204.1102,467.3259 204.015,466.9317 Q203.9742,466.6598 203.8247,466.5103 Q203.5528,466.2248 203.0634,466.0617 Q202.5741,465.885 202.0847,465.885 Q201.473,465.885 200.9564,466.1297 Q200.4534,466.3744 200.0592,466.9181 Q199.665,467.4619 199.665,468.2095 L199.665,469.0116 Q199.665,469.9088 200.3991,470.5069 Q201.1331,471.105 202.4381,471.105 Q203.213,471.105 203.7567,470.9283 Q204.0694,470.8331 204.4228,470.5205 Q204.6539,470.3438 204.7763,470.2894 Q204.8986,470.235 205.0481,470.235 Q205.3336,470.235 205.5375,470.4661 Q205.755,470.6836 205.755,470.9963 Q205.755,471.2953 205.4559,471.6488 Q205.0209,472.1653 204.3277,472.4508 Q203.4169,472.845 202.3022,472.845 Q200.9972,472.845 199.9505,472.3284 Q199.1077,471.9206 198.5095,471.037 Q197.925,470.1534 197.925,469.1067 L197.925,468.1552 Q197.925,467.0677 198.4416,466.1161 Q198.9717,465.1645 199.8825,464.6616 Q200.8069,464.145 201.84,464.145 Q202.4653,464.145 203.0091,464.3625 Q203.5528,464.58 204.015,465.015 Z " fill="#000000"/><text fill="#000000" font-family="sans-serif" font-size="10.44" lengthAdjust="spacing" textLength="47.85" x="214.455" y="472.3318">Animation</text><line style="stroke:#A80036;stroke-width:1.305;" x1="190.095" x2="264.045" y1="481.98" y2="481.98"/><line style="stroke:#A80036;stroke-width:1.305;" x1="190.095" x2="264.045" y1="488.94" y2="488.94"/><!--MD5=[61c3fa5585ca85434ecfc87dbde0af51]
class gfx.DrawManager--><rect codeLine="26" fill="#FEFECE" filter="url(#fe9c7s4vh3y1p)" height="41.76" id="gfx.DrawManager" style="stroke:#A80036;stroke-width:1.305;" width="94.83" x="295.365" y="454.14"/><ellipse cx="308.415" cy="468.06" fill="#ADD1B2" rx="9.57" ry="9.57" style="stroke:#A80036;stroke-width:0.87;"/><path d="M310.155,465.015 Q310.3317,464.58 310.5356,464.3625 Q310.7395,464.145 310.9706,464.145 Q311.3784,464.145 311.6367,464.3897 Q311.895,464.6344 311.895,465.2053 L311.895,466.5647 Q311.895,467.1356 311.6503,467.3803 Q311.4056,467.625 311.025,467.625 Q310.6852,467.625 310.4677,467.4755 Q310.2502,467.3259 310.155,466.9317 Q310.1142,466.6598 309.9647,466.5103 Q309.6928,466.2248 309.2034,466.0617 Q308.7141,465.885 308.2247,465.885 Q307.613,465.885 307.0964,466.1297 Q306.5934,466.3744 306.1992,466.9181 Q305.805,467.4619 305.805,468.2095 L305.805,469.0116 Q305.805,469.9088 306.5391,470.5069 Q307.2731,471.105 308.5781,471.105 Q309.353,471.105 309.8967,470.9283 Q310.2094,470.8331 310.5628,470.5205 Q310.7939,470.3438 310.9163,470.2894 Q311.0386,470.235 311.1881,470.235 Q311.4736,470.235 311.6775,470.4661 Q311.895,470.6836 311.895,470.9963 Q311.895,471.2953 311.5959,471.6488 Q311.1609,472.1653 310.4677,472.4508 Q309.5569,472.845 308.4422,472.845 Q307.1372,472.845 306.0905,472.3284 Q305.2477,471.9206 304.6495,471.037 Q304.065,470.1534 304.065,469.1067 L304.065,468.1552 Q304.065,467.0677 304.5816,466.1161 Q305.1117,465.1645 306.0225,464.6616 Q306.9469,464.145 307.98,464.145 Q308.6053,464.145 309.1491,464.3625 Q309.6928,464.58 310.155,465.015 Z " fill="#000000"/><text fill="#000000" font-family="sans-serif" font-size="10.44" lengthAdjust="spacing" textLength="66.99" x="320.595" y="472.3318">DrawManager</text><line style="stroke:#A80036;stroke-width:1.305;" x1="296.235" x2="389.325" y1="481.98" y2="481.98"/><line style="stroke:#A80036;stroke-width:1.305;" x1="296.235" x2="389.325" y1="488.94" y2="488.94"/><!--MD5=[15af45a6dbda0b46b9bcc7341b4758d2]
class gfx.TextureManager--><rect codeLine="40" fill="#FEFECE" filter="url(#fe9c7s4vh3y1p)" height="41.76" id="gfx.TextureManager" style="stroke:#A80036;stroke-width:1.305;" width="104.4" x="133.11" y="548.1"/><ellipse cx="146.16" cy="562.02" fill="#ADD1B2" rx="9.57" ry="9.57" style="stroke:#A80036;stroke-width:0.87;"/><path d="M147.9,558.975 Q148.0767,558.54 148.2806,558.3225 Q148.4845,558.105 148.7156,558.105 Q149.1234,558.105 149.3817,558.3497 Q149.64,558.5944 149.64,559.1653 L149.64,560.5247 Q149.64,561.0956 149.3953,561.3403 Q149.1506,561.585 148.77,561.585 Q148.4302,561.585 148.2127,561.4355 Q147.9952,561.2859 147.9,560.8917 Q147.8592,560.6198 147.7097,560.4703 Q147.4378,560.1848 146.9484,560.0217 Q146.4591,559.845 145.9697,559.845 Q145.358,559.845 144.8414,560.0897 Q144.3384,560.3344 143.9442,560.8781 Q143.55,561.4219 143.55,562.1695 L143.55,562.9716 Q143.55,563.8688 144.2841,564.4669 Q145.0181,565.065 146.3231,565.065 Q147.098,565.065 147.6417,564.8883 Q147.9544,564.7931 148.3078,564.4805 Q148.5389,564.3038 148.6613,564.2494 Q148.7836,564.195 148.9331,564.195 Q149.2186,564.195 149.4225,564.4261 Q149.64,564.6436 149.64,564.9563 Q149.64,565.2553 149.3409,565.6088 Q148.9059,566.1253 148.2127,566.4108 Q147.3019,566.805 146.1872,566.805 Q144.8822,566.805 143.8355,566.2884 Q142.9927,565.8806 142.3945,564.997 Q141.81,564.1134 141.81,563.0667 L141.81,562.1152 Q141.81,561.0277 142.3266,560.0761 Q142.8567,559.1245 143.7675,558.6216 Q144.6919,558.105 145.725,558.105 Q146.3503,558.105 146.8941,558.3225 Q147.4378,558.54 147.9,558.975 Z " fill="#000000"/><text fill="#000000" font-family="sans-serif" font-size="10.44" lengthAdjust="spacing" textLength="76.56" x="158.34" y="566.2918">TextureManager</text><line style="stroke:#A80036;stroke-width:1.305;" x1="133.98" x2="236.64" y1="575.94" y2="575.94"/><line style="stroke:#A80036;stroke-width:1.305;" x1="133.98" x2="236.64" y1="582.9" y2="582.9"/><!--MD5=[4c7c7f33a1ec25f7be8040bd6777f2d6]
class gfx.Transform--><rect codeLine="44" fill="#FEFECE" filter="url(#fe9c7s4vh3y1p)" height="41.76" id="gfx.Transform" style="stroke:#A80036;stroke-width:1.305;" width="77.43" x="420.645" y="454.14"/><ellipse cx="433.695" cy="468.06" fill="#ADD1B2" rx="9.57" ry="9.57" style="stroke:#A80036;stroke-width:0.87;"/><path d="M435.435,465.015 Q435.6117,464.58 435.8156,464.3625 Q436.0195,464.145 436.2506,464.145 Q436.6584,464.145 436.9167,464.3897 Q437.175,464.6344 437.175,465.2053 L437.175,466.5647 Q437.175,467.1356 436.9303,467.3803 Q436.6856,467.625 436.305,467.625 Q435.9652,467.625 435.7477,467.4755 Q435.5302,467.3259 435.435,466.9317 Q435.3942,466.6598 435.2447,466.5103 Q434.9728,466.2248 434.4834,466.0617 Q433.9941,465.885 433.5047,465.885 Q432.893,465.885 432.3764,466.1297 Q431.8734,466.3744 431.4792,466.9181 Q431.085,467.4619 431.085,468.2095 L431.085,469.0116 Q431.085,469.9088 431.8191,470.5069 Q432.5531,471.105 433.8581,471.105 Q434.633,471.105 435.1767,470.9283 Q435.4894,470.8331 435.8428,470.5205 Q436.0739,470.3438 436.1963,470.2894 Q436.3186,470.235 436.4681,470.235 Q436.7536,470.235 436.9575,470.4661 Q437.175,470.6836 437.175,470.9963 Q437.175,471.2953 436.8759,471.6488 Q436.4409,472.1653 435.7477,472.4508 Q434.8369,472.845 433.7222,472.845 Q432.4172,472.845 431.3705,472.3284 Q430.5277,471.9206 429.9295,471.037 Q429.345,470.1534 429.345,469.1067 L429.345,468.1552 Q429.345,467.0677 429.8616,466.1161 Q430.3917,465.1645 431.3025,464.6616 Q432.2269,464.145 433.26,464.145 Q433.8853,464.145 434.4291,464.3625 Q434.9728,464.58 435.435,465.015 Z " fill="#000000"/><text fill="#000000" font-family="sans-serif" font-size="10.44" lengthAdjust="spacing" textLength="49.59" x="445.875" y="472.3318">Transform</text><line style="stroke:#A80036;stroke-width:1.305;" x1="421.515" x2="497.205" y1="481.98" y2="481.98"/><line style="stroke:#A80036;stroke-width:1.305;" x1="421.515" x2="497.205" y1="488.94" y2="488.94"/><!--MD5=[408c1a95a6004acb5e587067bbcd0af8]
class gfx.Vector2D--><rect codeLine="48" fill="#FEFECE" filter="url(#fe9c7s4vh3y1p)" height="41.76" id="gfx.Vector2D" style="stroke:#A80036;stroke-width:1.305;" width="71.34" x="307.11" y="548.1"/><ellipse cx="320.16" cy="562.02" fill="#ADD1B2" rx="9.57" ry="9.57" style="stroke:#A80036;stroke-width:0.87;"/><path d="M321.9,558.975 Q322.0767,558.54 322.2806,558.3225 Q322.4845,558.105 322.7156,558.105 Q323.1234,558.105 323.3817,558.3497 Q323.64,558.5944 323.64,559.1653 L323.64,560.5247 Q323.64,561.0956 323.3953,561.3403 Q323.1506,561.585 322.77,561.585 Q322.4302,561.585 322.2127,561.4355 Q321.9952,561.2859 321.9,560.8917 Q321.8592,560.6198 321.7097,560.4703 Q321.4378,560.1848 320.9484,560.0217 Q320.4591,559.845 319.9697,559.845 Q319.358,559.845 318.8414,560.0897 Q318.3384,560.3344 317.9442,560.8781 Q317.55,561.4219 317.55,562.1695 L317.55,562.9716 Q317.55,563.8688 318.2841,564.4669 Q319.0181,565.065 320.3231,565.065 Q321.098,565.065 321.6417,564.8883 Q321.9544,564.7931 322.3078,564.4805 Q322.5389,564.3038 322.6613,564.2494 Q322.7836,564.195 322.9331,564.195 Q323.2186,564.195 323.4225,564.4261 Q323.64,564.6436 323.64,564.9563 Q323.64,565.2553 323.3409,565.6088 Q322.9059,566.1253 322.2127,566.4108 Q321.3019,566.805 320.1872,566.805 Q318.8822,566.805 317.8355,566.2884 Q316.9927,565.8806 316.3945,564.997 Q315.81,564.1134 315.81,563.0667 L315.81,562.1152 Q315.81,561.0277 316.3266,560.0761 Q316.8567,559.1245 317.7675,558.6216 Q318.6919,558.105 319.725,558.105 Q320.3503,558.105 320.8941,558.3225 Q321.4378,558.54 321.9,558.975 Z " fill="#000000"/><text fill="#000000" font-family="sans-serif" font-size="10.44" lengthAdjust="spacing" textLength="43.5" x="332.34" y="566.2918">Vector2D</text><line style="stroke:#A80036;stroke-width:1.305;" x1="307.98" x2="377.58" y1="575.94" y2="575.94"/><line style="stroke:#A80036;stroke-width:1.305;" x1="307.98" x2="377.58" y1="582.9" y2="582.9"/><!--MD5=[57210c06e20415b9d54619e815cd0c71]
class gfx.UILabel--><rect codeLine="64" fill="#FEFECE" filter="url(#fe9c7s4vh3y1p)" height="41.76" id="gfx.UILabel" style="stroke:#A80036;stroke-width:1.305;" width="65.25" x="93.525" y="454.14"/><ellipse cx="106.575" cy="468.06" fill="#ADD1B2" rx="9.57" ry="9.57" style="stroke:#A80036;stroke-width:0.87;"/><path d="M108.315,465.015 Q108.4917,464.58 108.6956,464.3625 Q108.8995,464.145 109.1306,464.145 Q109.5384,464.145 109.7967,464.3897 Q110.055,464.6344 110.055,465.2053 L110.055,466.5647 Q110.055,467.1356 109.8103,467.3803 Q109.5656,467.625 109.185,467.625 Q108.8452,467.625 108.6277,467.4755 Q108.4102,467.3259 108.315,466.9317 Q108.2742,466.6598 108.1247,466.5103 Q107.8528,466.2248 107.3634,466.0617 Q106.8741,465.885 106.3847,465.885 Q105.773,465.885 105.2564,466.1297 Q104.7534,466.3744 104.3592,466.9181 Q103.965,467.4619 103.965,468.2095 L103.965,469.0116 Q103.965,469.9088 104.6991,470.5069 Q105.4331,471.105 106.7381,471.105 Q107.513,471.105 108.0567,470.9283 Q108.3694,470.8331 108.7228,470.5205 Q108.9539,470.3438 109.0763,470.2894 Q109.1986,470.235 109.3481,470.235 Q109.6336,470.235 109.8375,470.4661 Q110.055,470.6836 110.055,470.9963 Q110.055,471.2953 109.7559,471.6488 Q109.3209,472.1653 108.6277,472.4508 Q107.7169,472.845 106.6022,472.845 Q105.2972,472.845 104.2505,472.3284 Q103.4077,471.9206 102.8095,471.037 Q102.225,470.1534 102.225,469.1067 L102.225,468.1552 Q102.225,467.0677 102.7416,466.1161 Q103.2717,465.1645 104.1825,464.6616 Q105.1069,464.145 106.14,464.145 Q106.7653,464.145 107.3091,464.3625 Q107.8528,464.58 108.315,465.015 Z " fill="#000000"/><text fill="#000000" font-family="sans-serif" font-size="10.44" lengthAdjust="spacing" textLength="37.41" x="118.755" y="472.3318">UILabel</text><line style="stroke:#A80036;stroke-width:1.305;" x1="94.395" x2="157.905" y1="481.98" y2="481.98"/><line style="stroke:#A80036;stroke-width:1.305;" x1="94.395" x2="157.905" y1="488.94" y2="488.94"/><!--MD5=[032b4da80d473f4495ac8a06202750d4]
class world.Layer--><rect codeLine="29" fill="#FEFECE" filter="url(#fe9c7s4vh3y1p)" height="41.76" id="world.Layer" style="stroke:#A80036;stroke-width:1.305;" width="54.81" x="635.535" y="252.3"/><ellipse cx="648.585" cy="266.22" fill="#A9DCDF" rx="9.57" ry="9.57" style="stroke:#A80036;stroke-width:0.87;"/><path d="M650.1075,267.525 L647.2392,267.525 L646.8586,268.395 L646.8586,268.395 L647.2664,268.395 L647.715,268.9387 L647.715,269.265 L647.715,269.5913 L647.2664,270.135 L646.8586,270.135 L645.2138,270.135 L644.6836,270.135 L644.235,269.5913 L644.235,269.265 L644.235,268.9387 L644.6836,268.395 L645.2138,268.395 L647.2256,263.175 L646.4644,263.175 L645.5536,263.175 L645.105,262.6313 L645.105,262.305 L645.105,261.9788 L645.5536,261.435 L646.4644,261.435 L649.6589,261.435 L651.997,268.395 L652.4864,268.395 L652.4864,268.395 L652.935,268.9387 L652.935,269.265 L652.935,269.5913 L652.4864,270.135 L651.997,270.135 L650.3522,270.135 L649.9036,270.135 L649.455,269.5913 L649.455,269.265 L649.455,268.9387 L649.9036,268.395 L650.3522,268.395 L650.3522,268.395 L650.1075,267.525 Z M649.6317,265.785 L648.585,262.672 L647.6878,265.785 L649.6317,265.785 Z " fill="#000000"/><text fill="#000000" font-family="sans-serif" font-size="10.44" font-style="italic" lengthAdjust="spacing" textLength="26.97" x="660.765" y="270.4918">Layer</text><line style="stroke:#A80036;stroke-width:1.305;" x1="636.405" x2="689.475" y1="280.14" y2="280.14"/><line style="stroke:#A80036;stroke-width:1.305;" x1="636.405" x2="689.475" y1="287.1" y2="287.1"/><!--MD5=[058b60769bf24e6f858063701ad81ab7]
class world.MapParser--><rect codeLine="33" fill="#FEFECE" filter="url(#fe9c7s4vh3y1p)" height="41.76" id="world.MapParser" style="stroke:#A80036;stroke-width:1.305;" width="80.04" x="622.92" y="36.54"/><ellipse cx="635.97" cy="50.46" fill="#ADD1B2" rx="9.57" ry="9.57" style="stroke:#A80036;stroke-width:0.87;"/><path d="M637.71,47.415 Q637.8867,46.98 638.0906,46.7625 Q638.2945,46.545 638.5256,46.545 Q638.9334,46.545 639.1917,46.7897 Q639.45,47.0344 639.45,47.6053 L639.45,48.9647 Q639.45,49.5356 639.2053,49.7803 Q638.9606,50.025 638.58,50.025 Q638.2402,50.025 638.0227,49.8755 Q637.8052,49.7259 637.71,49.3317 Q637.6692,49.0598 637.5197,48.9103 Q637.2478,48.6248 636.7584,48.4617 Q636.2691,48.285 635.7797,48.285 Q635.168,48.285 634.6514,48.5297 Q634.1484,48.7744 633.7542,49.3181 Q633.36,49.8619 633.36,50.6095 L633.36,51.4116 Q633.36,52.3087 634.0941,52.9069 Q634.8281,53.505 636.1331,53.505 Q636.908,53.505 637.4517,53.3283 Q637.7644,53.2331 638.1178,52.9205 Q638.3489,52.7438 638.4712,52.6894 Q638.5936,52.635 638.7431,52.635 Q639.0286,52.635 639.2325,52.8661 Q639.45,53.0836 639.45,53.3963 Q639.45,53.6953 639.1509,54.0488 Q638.7159,54.5653 638.0227,54.8508 Q637.1119,55.245 635.9972,55.245 Q634.6922,55.245 633.6455,54.7284 Q632.8027,54.3206 632.2045,53.437 Q631.62,52.5534 631.62,51.5067 L631.62,50.5552 Q631.62,49.4677 632.1366,48.5161 Q632.6667,47.5645 633.5775,47.0616 Q634.5019,46.545 635.535,46.545 Q636.1603,46.545 636.7041,46.7625 Q637.2478,46.98 637.71,47.415 Z " fill="#000000"/><text fill="#000000" font-family="sans-serif" font-size="10.44" lengthAdjust="spacing" textLength="52.2" x="648.15" y="54.7318">MapParser</text><line style="stroke:#A80036;stroke-width:1.305;" x1="623.79" x2="702.09" y1="64.38" y2="64.38"/><line style="stroke:#A80036;stroke-width:1.305;" x1="623.79" x2="702.09" y1="71.34" y2="71.34"/><!--MD5=[3558dd23c0f3351bc17b27f38620e6cf]
class world.GameMap--><rect codeLine="61" fill="#FEFECE" filter="url(#fe9c7s4vh3y1p)" height="41.76" id="world.GameMap" style="stroke:#A80036;stroke-width:1.305;" width="77.43" x="624.225" y="144.42"/><ellipse cx="637.275" cy="158.34" fill="#ADD1B2" rx="9.57" ry="9.57" style="stroke:#A80036;stroke-width:0.87;"/><path d="M639.015,155.295 Q639.1917,154.86 639.3956,154.6425 Q639.5995,154.425 639.8306,154.425 Q640.2384,154.425 640.4967,154.6697 Q640.755,154.9144 640.755,155.4853 L640.755,156.8447 Q640.755,157.4156 640.5103,157.6603 Q640.2656,157.905 639.885,157.905 Q639.5452,157.905 639.3277,157.7555 Q639.1102,157.6059 639.015,157.2117 Q638.9742,156.9398 638.8247,156.7903 Q638.5528,156.5048 638.0634,156.3417 Q637.5741,156.165 637.0847,156.165 Q636.473,156.165 635.9564,156.4097 Q635.4534,156.6544 635.0592,157.1981 Q634.665,157.7419 634.665,158.4895 L634.665,159.2916 Q634.665,160.1888 635.3991,160.7869 Q636.1331,161.385 637.4381,161.385 Q638.213,161.385 638.7567,161.2083 Q639.0694,161.1131 639.4228,160.8005 Q639.6539,160.6238 639.7763,160.5694 Q639.8986,160.515 640.0481,160.515 Q640.3336,160.515 640.5375,160.7461 Q640.755,160.9636 640.755,161.2763 Q640.755,161.5753 640.4559,161.9288 Q640.0209,162.4453 639.3277,162.7308 Q638.4169,163.125 637.3022,163.125 Q635.9972,163.125 634.9505,162.6084 Q634.1077,162.2006 633.5095,161.317 Q632.925,160.4334 632.925,159.3867 L632.925,158.4352 Q632.925,157.3477 633.4416,156.3961 Q633.9717,155.4445 634.8825,154.9416 Q635.8069,154.425 636.84,154.425 Q637.4653,154.425 638.0091,154.6425 Q638.5528,154.86 639.015,155.295 Z " fill="#000000"/><text fill="#000000" font-family="sans-serif" font-size="10.44" lengthAdjust="spacing" textLength="49.59" x="649.455" y="162.6118">GameMap</text><line style="stroke:#A80036;stroke-width:1.305;" x1="625.095" x2="700.785" y1="172.26" y2="172.26"/><line style="stroke:#A80036;stroke-width:1.305;" x1="625.095" x2="700.785" y1="179.22" y2="179.22"/><!--MD5=[48516c7a7bc1f05290f510d0ff4cfebc]
class world.Tile--><rect codeLine="67" fill="#FEFECE" filter="url(#fe9c7s4vh3y1p)" height="41.76" id="world.Tile" style="stroke:#A80036;stroke-width:1.305;" width="45.24" x="547.23" y="36.54"/><ellipse cx="560.28" cy="50.46" fill="#ADD1B2" rx="9.57" ry="9.57" style="stroke:#A80036;stroke-width:0.87;"/><path d="M562.02,47.415 Q562.1967,46.98 562.4006,46.7625 Q562.6045,46.545 562.8356,46.545 Q563.2434,46.545 563.5017,46.7897 Q563.76,47.0344 563.76,47.6053 L563.76,48.9647 Q563.76,49.5356 563.5153,49.7803 Q563.2706,50.025 562.89,50.025 Q562.5502,50.025 562.3327,49.8755 Q562.1152,49.7259 562.02,49.3317 Q561.9792,49.0598 561.8297,48.9103 Q561.5578,48.6248 561.0684,48.4617 Q560.5791,48.285 560.0897,48.285 Q559.478,48.285 558.9614,48.5297 Q558.4584,48.7744 558.0642,49.3181 Q557.67,49.8619 557.67,50.6095 L557.67,51.4116 Q557.67,52.3087 558.4041,52.9069 Q559.1381,53.505 560.4431,53.505 Q561.218,53.505 561.7617,53.3283 Q562.0744,53.2331 562.4278,52.9205 Q562.6589,52.7438 562.7813,52.6894 Q562.9036,52.635 563.0531,52.635 Q563.3386,52.635 563.5425,52.8661 Q563.76,53.0836 563.76,53.3963 Q563.76,53.6953 563.4609,54.0488 Q563.0259,54.5653 562.3327,54.8508 Q561.4219,55.245 560.3072,55.245 Q559.0022,55.245 557.9555,54.7284 Q557.1127,54.3206 556.5145,53.437 Q555.93,52.5534 555.93,51.5067 L555.93,50.5552 Q555.93,49.4677 556.4466,48.5161 Q556.9767,47.5645 557.8875,47.0616 Q558.8119,46.545 559.845,46.545 Q560.4703,46.545 561.0141,46.7625 Q561.5578,46.98 562.02,47.415 Z " fill="#000000"/><text fill="#000000" font-family="sans-serif" font-size="10.44" lengthAdjust="spacing" textLength="17.4" x="572.46" y="54.7318">Tile</text><line style="stroke:#A80036;stroke-width:1.305;" x1="548.1" x2="591.6" y1="64.38" y2="64.38"/><line style="stroke:#A80036;stroke-width:1.305;" x1="548.1" x2="591.6" y1="71.34" y2="71.34"/><!--MD5=[664963052afdfdad2e4e93f6abfb1c33]
class world.TileLayer--><rect codeLine="71" fill="#FEFECE" filter="url(#fe9c7s4vh3y1p)" height="41.76" id="world.TileLayer" style="stroke:#A80036;stroke-width:1.305;" width="71.34" x="627.27" y="346.26"/><ellipse cx="640.32" cy="360.18" fill="#ADD1B2" rx="9.57" ry="9.57" style="stroke:#A80036;stroke-width:0.87;"/><path d="M642.06,357.135 Q642.2367,356.7 642.4406,356.4825 Q642.6445,356.265 642.8756,356.265 Q643.2834,356.265 643.5417,356.5097 Q643.8,356.7544 643.8,357.3253 L643.8,358.6847 Q643.8,359.2556 643.5553,359.5003 Q643.3106,359.745 642.93,359.745 Q642.5902,359.745 642.3727,359.5955 Q642.1552,359.4459 642.06,359.0517 Q642.0192,358.7798 641.8697,358.6303 Q641.5978,358.3448 641.1084,358.1817 Q640.6191,358.005 640.1297,358.005 Q639.518,358.005 639.0014,358.2497 Q638.4984,358.4944 638.1042,359.0381 Q637.71,359.5819 637.71,360.3295 L637.71,361.1316 Q637.71,362.0288 638.4441,362.6269 Q639.1781,363.225 640.4831,363.225 Q641.258,363.225 641.8017,363.0483 Q642.1144,362.9531 642.4678,362.6405 Q642.6989,362.4638 642.8213,362.4094 Q642.9436,362.355 643.0931,362.355 Q643.3786,362.355 643.5825,362.5861 Q643.8,362.8036 643.8,363.1163 Q643.8,363.4153 643.5009,363.7688 Q643.0659,364.2853 642.3727,364.5708 Q641.4619,364.965 640.3472,364.965 Q639.0422,364.965 637.9955,364.4484 Q637.1527,364.0406 636.5545,363.157 Q635.97,362.2734 635.97,361.2267 L635.97,360.2752 Q635.97,359.1877 636.4866,358.2361 Q637.0167,357.2845 637.9275,356.7816 Q638.8519,356.265 639.885,356.265 Q640.5103,356.265 641.0541,356.4825 Q641.5978,356.7 642.06,357.135 Z " fill="#000000"/><text fill="#000000" font-family="sans-serif" font-size="10.44" lengthAdjust="spacing" textLength="43.5" x="652.5" y="364.4518">TileLayer</text><line style="stroke:#A80036;stroke-width:1.305;" x1="628.14" x2="697.74" y1="374.1" y2="374.1"/><line style="stroke:#A80036;stroke-width:1.305;" x1="628.14" x2="697.74" y1="381.06" y2="381.06"/><!--MD5=[16a2a2eaaa6a5cc5f4df8c56f6e29488]
class world.Tileset--><rect codeLine="74" fill="#FEFECE" filter="url(#fe9c7s4vh3y1p)" height="41.76" id="world.Tileset" style="stroke:#A80036;stroke-width:1.305;" width="60.03" x="632.925" y="454.14"/><ellipse cx="645.975" cy="468.06" fill="#ADD1B2" rx="9.57" ry="9.57" style="stroke:#A80036;stroke-width:0.87;"/><path d="M647.715,465.015 Q647.8917,464.58 648.0956,464.3625 Q648.2995,464.145 648.5306,464.145 Q648.9384,464.145 649.1967,464.3897 Q649.455,464.6344 649.455,465.2053 L649.455,466.5647 Q649.455,467.1356 649.2103,467.3803 Q648.9656,467.625 648.585,467.625 Q648.2452,467.625 648.0277,467.4755 Q647.8102,467.3259 647.715,466.9317 Q647.6742,466.6598 647.5247,466.5103 Q647.2528,466.2248 646.7634,466.0617 Q646.2741,465.885 645.7847,465.885 Q645.173,465.885 644.6564,466.1297 Q644.1534,466.3744 643.7592,466.9181 Q643.365,467.4619 643.365,468.2095 L643.365,469.0116 Q643.365,469.9088 644.0991,470.5069 Q644.8331,471.105 646.1381,471.105 Q646.913,471.105 647.4567,470.9283 Q647.7694,470.8331 648.1228,470.5205 Q648.3539,470.3438 648.4763,470.2894 Q648.5986,470.235 648.7481,470.235 Q649.0336,470.235 649.2375,470.4661 Q649.455,470.6836 649.455,470.9963 Q649.455,471.2953 649.1559,471.6488 Q648.7209,472.1653 648.0277,472.4508 Q647.1169,472.845 646.0022,472.845 Q644.6972,472.845 643.6505,472.3284 Q642.8077,471.9206 642.2095,471.037 Q641.625,470.1534 641.625,469.1067 L641.625,468.1552 Q641.625,467.0677 642.1416,466.1161 Q642.6717,465.1645 643.5825,464.6616 Q644.5069,464.145 645.54,464.145 Q646.1653,464.145 646.7091,464.3625 Q647.2528,464.58 647.715,465.015 Z " fill="#000000"/><text fill="#000000" font-family="sans-serif" font-size="10.44" lengthAdjust="spacing" textLength="32.19" x="658.155" y="472.3318">Tileset</text><line style="stroke:#A80036;stroke-width:1.305;" x1="633.795" x2="692.085" y1="481.98" y2="481.98"/><line style="stroke:#A80036;stroke-width:1.305;" x1="633.795" x2="692.085" y1="488.94" y2="488.94"/><!--MD5=[9b15561b5a79df87694001dece61cd3f]
class states.Menu--><rect codeLine="37" fill="#FEFECE" filter="url(#fe9c7s4vh3y1p)" height="41.76" id="states.Menu" style="stroke:#A80036;stroke-width:1.305;" width="53.94" x="839.55" y="36.54"/><ellipse cx="852.6" cy="50.46" fill="#ADD1B2" rx="9.57" ry="9.57" style="stroke:#A80036;stroke-width:0.87;"/><path d="M854.34,47.415 Q854.5167,46.98 854.7206,46.7625 Q854.9245,46.545 855.1556,46.545 Q855.5634,46.545 855.8217,46.7897 Q856.08,47.0344 856.08,47.6053 L856.08,48.9647 Q856.08,49.5356 855.8353,49.7803 Q855.5906,50.025 855.21,50.025 Q854.8702,50.025 854.6527,49.8755 Q854.4352,49.7259 854.34,49.3317 Q854.2992,49.0598 854.1497,48.9103 Q853.8778,48.6248 853.3884,48.4617 Q852.8991,48.285 852.4097,48.285 Q851.798,48.285 851.2814,48.5297 Q850.7784,48.7744 850.3842,49.3181 Q849.99,49.8619 849.99,50.6095 L849.99,51.4116 Q849.99,52.3087 850.7241,52.9069 Q851.4581,53.505 852.7631,53.505 Q853.538,53.505 854.0817,53.3283 Q854.3944,53.2331 854.7478,52.9205 Q854.9789,52.7438 855.1013,52.6894 Q855.2236,52.635 855.3731,52.635 Q855.6586,52.635 855.8625,52.8661 Q856.08,53.0836 856.08,53.3963 Q856.08,53.6953 855.7809,54.0488 Q855.3459,54.5653 854.6527,54.8508 Q853.7419,55.245 852.6272,55.245 Q851.3222,55.245 850.2755,54.7284 Q849.4327,54.3206 848.8345,53.437 Q848.25,52.5534 848.25,51.5067 L848.25,50.5552 Q848.25,49.4677 848.7666,48.5161 Q849.2967,47.5645 850.2075,47.0616 Q851.1319,46.545 852.165,46.545 Q852.7903,46.545 853.3341,46.7625 Q853.8778,46.98 854.34,47.415 Z " fill="#000000"/><text fill="#000000" font-family="sans-serif" font-size="10.44" lengthAdjust="spacing" textLength="26.1" x="864.78" y="54.7318">Menu</text><line style="stroke:#A80036;stroke-width:1.305;" x1="840.42" x2="892.62" y1="64.38" y2="64.38"/><line style="stroke:#A80036;stroke-width:1.305;" x1="840.42" x2="892.62" y1="71.34" y2="71.34"/><!--MD5=[161adf73dd9d2b0eaa5a51b7c8d9fcc3]
class states.Game--><rect codeLine="54" fill="#FEFECE" filter="url(#fe9c7s4vh3y1p)" height="41.76" id="states.Game" style="stroke:#A80036;stroke-width:1.305;" width="57.42" x="751.68" y="36.54"/><ellipse cx="764.73" cy="50.46" fill="#ADD1B2" rx="9.57" ry="9.57" style="stroke:#A80036;stroke-width:0.87;"/><path d="M766.47,47.415 Q766.6467,46.98 766.8506,46.7625 Q767.0545,46.545 767.2856,46.545 Q767.6934,46.545 767.9517,46.7897 Q768.21,47.0344 768.21,47.6053 L768.21,48.9647 Q768.21,49.5356 767.9653,49.7803 Q767.7206,50.025 767.34,50.025 Q767.0002,50.025 766.7827,49.8755 Q766.5652,49.7259 766.47,49.3317 Q766.4292,49.0598 766.2797,48.9103 Q766.0078,48.6248 765.5184,48.4617 Q765.0291,48.285 764.5397,48.285 Q763.928,48.285 763.4114,48.5297 Q762.9084,48.7744 762.5142,49.3181 Q762.12,49.8619 762.12,50.6095 L762.12,51.4116 Q762.12,52.3087 762.8541,52.9069 Q763.5881,53.505 764.8931,53.505 Q765.668,53.505 766.2117,53.3283 Q766.5244,53.2331 766.8778,52.9205 Q767.1089,52.7438 767.2313,52.6894 Q767.3536,52.635 767.5031,52.635 Q767.7886,52.635 767.9925,52.8661 Q768.21,53.0836 768.21,53.3963 Q768.21,53.6953 767.9109,54.0488 Q767.4759,54.5653 766.7827,54.8508 Q765.8719,55.245 764.7572,55.245 Q763.4522,55.245 762.4055,54.7284 Q761.5627,54.3206 760.9645,53.437 Q760.38,52.5534 760.38,51.5067 L760.38,50.5552 Q760.38,49.4677 760.8966,48.5161 Q761.4267,47.5645 762.3375,47.0616 Q763.2619,46.545 764.295,46.545 Q764.9203,46.545 765.4641,46.7625 Q766.0078,46.98 766.47,47.415 Z " fill="#000000"/><text fill="#000000" font-family="sans-serif" font-size="10.44" lengthAdjust="spacing" textLength="29.58" x="776.91" y="54.7318">Game</text><line style="stroke:#A80036;stroke-width:1.305;" x1="752.55" x2="808.23" y1="64.38" y2="64.38"/><line style="stroke:#A80036;stroke-width:1.305;" x1="752.55" x2="808.23" y1="71.34" y2="71.34"/><!--MD5=[5aa411387f1ac4e94a30f54c7c993f84]
class interfaces.Board--><rect codeLine="57" fill="#FEFECE" filter="url(#fe9c7s4vh3y1p)" height="41.76" id="interfaces.Board" style="stroke:#A80036;stroke-width:1.305;" width="56.55" x="942.645" y="36.54"/><ellipse cx="955.695" cy="50.46" fill="#ADD1B2" rx="9.57" ry="9.57" style="stroke:#A80036;stroke-width:0.87;"/><path d="M957.435,47.415 Q957.6117,46.98 957.8156,46.7625 Q958.0195,46.545 958.2506,46.545 Q958.6584,46.545 958.9167,46.7897 Q959.175,47.0344 959.175,47.6053 L959.175,48.9647 Q959.175,49.5356 958.9303,49.7803 Q958.6856,50.025 958.305,50.025 Q957.9652,50.025 957.7477,49.8755 Q957.5302,49.7259 957.435,49.3317 Q957.3942,49.0598 957.2447,48.9103 Q956.9728,48.6248 956.4834,48.4617 Q955.9941,48.285 955.5047,48.285 Q954.893,48.285 954.3764,48.5297 Q953.8734,48.7744 953.4792,49.3181 Q953.085,49.8619 953.085,50.6095 L953.085,51.4116 Q953.085,52.3087 953.8191,52.9069 Q954.5531,53.505 955.8581,53.505 Q956.633,53.505 957.1767,53.3283 Q957.4894,53.2331 957.8428,52.9205 Q958.0739,52.7438 958.1963,52.6894 Q958.3186,52.635 958.4681,52.635 Q958.7536,52.635 958.9575,52.8661 Q959.175,53.0836 959.175,53.3963 Q959.175,53.6953 958.8759,54.0488 Q958.4409,54.5653 957.7477,54.8508 Q956.8369,55.245 955.7222,55.245 Q954.4172,55.245 953.3705,54.7284 Q952.5277,54.3206 951.9295,53.437 Q951.345,52.5534 951.345,51.5067 L951.345,50.5552 Q951.345,49.4677 951.8616,48.5161 Q952.3917,47.5645 953.3025,47.0616 Q954.2269,46.545 955.26,46.545 Q955.8853,46.545 956.4291,46.7625 Q956.9728,46.98 957.435,47.415 Z " fill="#000000"/><text fill="#000000" font-family="sans-serif" font-size="10.44" lengthAdjust="spacing" textLength="28.71" x="967.875" y="54.7318">Board</text><line style="stroke:#A80036;stroke-width:1.305;" x1="943.515" x2="998.325" y1="64.38" y2="64.38"/><line style="stroke:#A80036;stroke-width:1.305;" x1="943.515" x2="998.325" y1="71.34" y2="71.34"/><!--MD5=[629c6d17119cecbb56307adb03ce148e]
class utils.IOHandler--><rect codeLine="77" fill="#FEFECE" filter="url(#fe9c7s4vh3y1p)" height="41.76" id="utils.IOHandler" style="stroke:#A80036;stroke-width:1.305;" width="76.56" x="307.98" y="36.54"/><ellipse cx="321.03" cy="50.46" fill="#ADD1B2" rx="9.57" ry="9.57" style="stroke:#A80036;stroke-width:0.87;"/><path d="M322.77,47.415 Q322.9467,46.98 323.1506,46.7625 Q323.3545,46.545 323.5856,46.545 Q323.9934,46.545 324.2517,46.7897 Q324.51,47.0344 324.51,47.6053 L324.51,48.9647 Q324.51,49.5356 324.2653,49.7803 Q324.0206,50.025 323.64,50.025 Q323.3002,50.025 323.0827,49.8755 Q322.8652,49.7259 322.77,49.3317 Q322.7292,49.0598 322.5797,48.9103 Q322.3078,48.6248 321.8184,48.4617 Q321.3291,48.285 320.8397,48.285 Q320.228,48.285 319.7114,48.5297 Q319.2084,48.7744 318.8142,49.3181 Q318.42,49.8619 318.42,50.6095 L318.42,51.4116 Q318.42,52.3087 319.1541,52.9069 Q319.8881,53.505 321.1931,53.505 Q321.968,53.505 322.5117,53.3283 Q322.8244,53.2331 323.1778,52.9205 Q323.4089,52.7438 323.5313,52.6894 Q323.6536,52.635 323.8031,52.635 Q324.0886,52.635 324.2925,52.8661 Q324.51,53.0836 324.51,53.3963 Q324.51,53.6953 324.2109,54.0488 Q323.7759,54.5653 323.0827,54.8508 Q322.1719,55.245 321.0572,55.245 Q319.7522,55.245 318.7055,54.7284 Q317.8627,54.3206 317.2645,53.437 Q316.68,52.5534 316.68,51.5067 L316.68,50.5552 Q316.68,49.4677 317.1966,48.5161 Q317.7267,47.5645 318.6375,47.0616 Q319.5619,46.545 320.595,46.545 Q321.2203,46.545 321.7641,46.7625 Q322.3078,46.98 322.77,47.415 Z " fill="#000000"/><text fill="#000000" font-family="sans-serif" font-size="10.44" lengthAdjust="spacing" textLength="48.72" x="333.21" y="54.7318">IOHandler</text><line style="stroke:#A80036;stroke-width:1.305;" x1="308.85" x2="383.67" y1="64.38" y2="64.38"/><line style="stroke:#A80036;stroke-width:1.305;" x1="308.85" x2="383.67" y1="71.34" y2="71.34"/><!--MD5=[c94bf9e2a94e1f74890cbcf91aab3a62]
class utils.IOObject--><rect codeLine="81" fill="#FEFECE" filter="url(#fe9c7s4vh3y1p)" height="41.76" id="utils.IOObject" style="stroke:#A80036;stroke-width:1.305;" width="70.47" x="206.625" y="36.54"/><ellipse cx="219.675" cy="50.46" fill="#A9DCDF" rx="9.57" ry="9.57" style="stroke:#A80036;stroke-width:0.87;"/><path d="M221.1975,51.765 L218.3292,51.765 L217.9486,52.635 L217.9486,52.635 L218.3564,52.635 L218.805,53.1788 L218.805,53.505 L218.805,53.8313 L218.3564,54.375 L217.9486,54.375 L216.3038,54.375 L215.7736,54.375 L215.325,53.8313 L215.325,53.505 L215.325,53.1788 L215.7736,52.635 L216.3038,52.635 L218.3156,47.415 L217.5544,47.415 L216.6436,47.415 L216.195,46.8712 L216.195,46.545 L216.195,46.2188 L216.6436,45.675 L217.5544,45.675 L220.7489,45.675 L223.087,52.635 L223.5764,52.635 L223.5764,52.635 L224.025,53.1788 L224.025,53.505 L224.025,53.8313 L223.5764,54.375 L223.087,54.375 L221.4422,54.375 L220.9936,54.375 L220.545,53.8313 L220.545,53.505 L220.545,53.1788 L220.9936,52.635 L221.4422,52.635 L221.4422,52.635 L221.1975,51.765 Z M220.7217,50.025 L219.675,46.912 L218.7778,50.025 L220.7217,50.025 Z " fill="#000000"/><text fill="#000000" font-family="sans-serif" font-size="10.44" font-style="italic" lengthAdjust="spacing" textLength="42.63" x="231.855" y="54.7318">IOObject</text><line style="stroke:#A80036;stroke-width:1.305;" x1="207.495" x2="276.225" y1="64.38" y2="64.38"/><line style="stroke:#A80036;stroke-width:1.305;" x1="207.495" x2="276.225" y1="71.34" y2="71.34"/><!--MD5=[e7d94b46357b5bc331758902d85e5c6c]
class utils.ItemTimer--><rect codeLine="84" fill="#FEFECE" filter="url(#fe9c7s4vh3y1p)" height="41.76" id="utils.ItemTimer" style="stroke:#A80036;stroke-width:1.305;" width="76.56" x="99.18" y="36.54"/><ellipse cx="112.23" cy="50.46" fill="#ADD1B2" rx="9.57" ry="9.57" style="stroke:#A80036;stroke-width:0.87;"/><path d="M113.97,47.415 Q114.1467,46.98 114.3506,46.7625 Q114.5545,46.545 114.7856,46.545 Q115.1934,46.545 115.4517,46.7897 Q115.71,47.0344 115.71,47.6053 L115.71,48.9647 Q115.71,49.5356 115.4653,49.7803 Q115.2206,50.025 114.84,50.025 Q114.5002,50.025 114.2827,49.8755 Q114.0652,49.7259 113.97,49.3317 Q113.9292,49.0598 113.7797,48.9103 Q113.5078,48.6248 113.0184,48.4617 Q112.5291,48.285 112.0397,48.285 Q111.428,48.285 110.9114,48.5297 Q110.4084,48.7744 110.0142,49.3181 Q109.62,49.8619 109.62,50.6095 L109.62,51.4116 Q109.62,52.3087 110.3541,52.9069 Q111.0881,53.505 112.3931,53.505 Q113.168,53.505 113.7117,53.3283 Q114.0244,53.2331 114.3778,52.9205 Q114.6089,52.7438 114.7313,52.6894 Q114.8536,52.635 115.0031,52.635 Q115.2886,52.635 115.4925,52.8661 Q115.71,53.0836 115.71,53.3963 Q115.71,53.6953 115.4109,54.0488 Q114.9759,54.5653 114.2827,54.8508 Q113.3719,55.245 112.2572,55.245 Q110.9522,55.245 109.9055,54.7284 Q109.0627,54.3206 108.4645,53.437 Q107.88,52.5534 107.88,51.5067 L107.88,50.5552 Q107.88,49.4677 108.3966,48.5161 Q108.9267,47.5645 109.8375,47.0616 Q110.7619,46.545 111.795,46.545 Q112.4203,46.545 112.9641,46.7625 Q113.5078,46.98 113.97,47.415 Z " fill="#000000"/><text fill="#000000" font-family="sans-serif" font-size="10.44" lengthAdjust="spacing" textLength="48.72" x="124.41" y="54.7318">ItemTimer</text><line style="stroke:#A80036;stroke-width:1.305;" x1="100.05" x2="174.87" y1="64.38" y2="64.38"/><line style="stroke:#A80036;stroke-width:1.305;" x1="100.05" x2="174.87" y1="71.34" y2="71.34"/><!--MD5=[10f778e5ada94756d417f03c09e3f7bc]
reverse link entities.creatures.Creature to entities.creatures.Player--><path codeLine="89" d="M344.8506,311.4774 C344.3982,323.2746 343.9284,335.8548 343.5456,345.9816 " fill="none" id="entities.creatures.Creature-backto-entities.creatures.Player" style="stroke:#A80036;stroke-width:0.87;"/><polygon fill="none" points="338.7606,311.2164,345.5031,294.06,350.9319,311.6775,338.7606,311.2164" style="stroke:#A80036;stroke-width:0.87;"/><!--MD5=[a835d6e75637d0a35a79f17d88e81d24]
reverse link entities.Entity to entities.creatures.Creature--><path codeLine="92" d="M346.26,203.8149 C346.26,220.1187 346.26,238.5366 346.26,252.1695 " fill="none" id="entities.Entity-backto-entities.creatures.Creature" style="stroke:#A80036;stroke-width:0.87;"/><polygon fill="none" points="340.17,203.7801,346.26,186.3801,352.35,203.7801,340.17,203.7801" style="stroke:#A80036;stroke-width:0.87;"/><!--MD5=[04317c9b876fc3e4a5c0fa61d8f86068]
reverse link entities.Entity to entities.items.Item--><path codeLine="95" d="M313.4349,198.4296 C310.1724,201.405 306.8664,204.3195 303.63,207.06 C283.1676,224.3556 258.5901,242.3907 240.6333,255.1101 " fill="none" id="entities.Entity-backto-entities.items.Item" style="stroke:#A80036;stroke-width:0.87;"/><polygon fill="none" points="309.5199,193.7577,326.3631,186.2583,317.8719,202.623,309.5199,193.7577" style="stroke:#A80036;stroke-width:0.87;"/><!--MD5=[76b6cf506d2d0d21dd2c3f8929a75e85]
reverse link utils.IOHandler to entities.Entity--><path codeLine="98" d="M346.26,95.9349 C346.26,112.2387 346.26,130.6566 346.26,144.2895 " fill="none" id="utils.IOHandler-backto-entities.Entity" style="stroke:#A80036;stroke-width:0.87;"/><polygon fill="none" points="340.17,95.9001,346.26,78.5001,352.35,95.9001,340.17,95.9001" style="stroke:#A80036;stroke-width:0.87;"/><!--MD5=[099af974e4d8c4930944301d06aadd20]
reverse link entities.items.Item to entities.items.BombCollectable--><path codeLine="101" d="M176.4795,301.4463 C155.9214,315.7752 131.2047,333.0186 112.4214,346.1121 " fill="none" id="entities.items.Item-backto-entities.items.BombCollectable" style="stroke:#A80036;stroke-width:0.87;"/><polygon fill="none" points="173.13,296.3568,190.8867,291.3978,180.0987,306.3444,173.13,296.3568" style="stroke:#A80036;stroke-width:0.87;"/><!--MD5=[6684e57e27f659cc4f7d8353e9c665cd]
reverse link entities.items.Item to entities.items.BombPlanted--><path codeLine="104" d="M215.76,311.4774 C215.76,323.2746 215.76,335.8548 215.76,345.9816 " fill="none" id="entities.items.Item-backto-entities.items.BombPlanted" style="stroke:#A80036;stroke-width:0.87;"/><polygon fill="none" points="209.67,311.46,215.76,294.06,221.85,311.46,209.67,311.46" style="stroke:#A80036;stroke-width:0.87;"/><!--MD5=[17096a5022e9768a8096a03d462e8eef]
reverse link world.Layer to world.TileLayer--><path codeLine="107" d="M662.94,311.4774 C662.94,323.2746 662.94,335.8548 662.94,345.9816 " fill="none" id="world.Layer-backto-world.TileLayer" style="stroke:#A80036;stroke-width:0.87;"/><polygon fill="none" points="656.85,311.46,662.94,294.06,669.03,311.46,656.85,311.46" style="stroke:#A80036;stroke-width:0.87;"/><!--MD5=[8d2db7110221b90f4d8ef6a899383274]
reverse link entities.items.BombCollectable to gfx.TextureManager--><path codeLine="112" d="M72.9234,399.069 C64.0233,431.1285 55.9845,481.3275 78.3,516.78 C90.48,536.1375 112.2213,548.361 132.936,555.9909 " fill="none" id="entities.items.BombCollectable-backto-gfx.TextureManager" style="stroke:#A80036;stroke-width:0.87;"/><polygon fill="#FFFFFF" points="76.1859,388.1331,71.3595,392.1411,73.2028,398.1378,78.0293,394.1298,76.1859,388.1331" style="stroke:#A80036;stroke-width:0.87;"/><!--MD5=[7b43d8d9c5e321060e85453c7686acf2]
reverse link entities.items.BombPlanted to gfx.Animation--><path codeLine="115" d="M219.1356,399.6954 C221.0148,417.3042 223.2942,438.6888 224.9211,454.0095 " fill="none" id="entities.items.BombPlanted-backto-gfx.Animation" style="stroke:#A80036;stroke-width:0.87;"/><polygon fill="#FFFFFF" points="217.9176,388.2201,215.0076,393.7781,219.0189,398.6019,221.9288,393.0439,217.9176,388.2201" style="stroke:#A80036;stroke-width:0.87;"/><!--MD5=[1033a3e59b607c4d0988c914c9ff53e9]
reverse link gfx.DrawManager to gfx.Vector2D--><path codeLine="118" d="M342.78,507.5058 C342.78,520.8516 342.78,536.007 342.78,547.8216 " fill="none" id="gfx.DrawManager-backto-gfx.Vector2D" style="stroke:#A80036;stroke-width:0.87;"/><polygon fill="#FFFFFF" points="342.78,495.9,339.3,501.12,342.78,506.34,346.26,501.12,342.78,495.9" style="stroke:#A80036;stroke-width:0.87;"/><!--MD5=[06c8f4031f32bc58dc0f9b17d595e51a]
reverse link entities.Entity to gfx.Transform--><path codeLine="121" d="M380.2335,194.5755 C385.8015,200.5176 391.0302,207.1035 394.98,214.02 C441.09,294.8343 454.4532,408.1518 458.0898,453.8529 " fill="none" id="entities.Entity-backto-gfx.Transform" style="stroke:#A80036;stroke-width:0.87;"/><polygon fill="#FFFFFF" points="371.9424,186.3453,373.1967,192.4923,379.3532,193.6988,378.099,187.5518,371.9424,186.3453" style="stroke:#A80036;stroke-width:0.87;"/><!--MD5=[e6c69a633ed1049a0e7609d1d310e69c]
reverse link states.Game to world.GameMap--><path codeLine="124" d="M749.4789,86.2257 C729.2949,104.4696 703.4037,127.8639 685.2207,144.2895 " fill="none" id="states.Game-backto-world.GameMap" style="stroke:#A80036;stroke-width:0.87;"/><polygon fill="#FFFFFF" points="758.0223,78.5001,751.8162,79.4186,750.2771,85.5005,756.4832,84.582,758.0223,78.5001" style="stroke:#A80036;stroke-width:0.87;"/><!--MD5=[46ac167ed1ddf2cf564eff04ea1b5b2a]
reverse link world.GameMap to world.Layer--><path codeLine="127" d="M662.94,197.8554 C662.94,215.4642 662.94,236.8488 662.94,252.1695 " fill="none" id="world.GameMap-backto-world.Layer" style="stroke:#A80036;stroke-width:0.87;"/><polygon fill="#FFFFFF" points="662.94,186.3801,659.46,191.6001,662.94,196.8201,666.42,191.6001,662.94,186.3801" style="stroke:#A80036;stroke-width:0.87;"/><!--MD5=[93f83c5ab99c1d2280c924b910bccc7b]
reverse link world.MapParser to world.GameMap--><path codeLine="130" d="M662.94,89.9754 C662.94,107.5842 662.94,128.9688 662.94,144.2895 " fill="none" id="world.MapParser-backto-world.GameMap" style="stroke:#A80036;stroke-width:0.87;"/><polygon fill="#FFFFFF" points="662.94,78.5001,659.46,83.7201,662.94,88.9401,666.42,83.7201,662.94,78.5001" style="stroke:#A80036;stroke-width:0.87;"/><!--MD5=[a7cc82530030d4968bd2040d06b31cef]
reverse link entities.creatures.Player to gfx.Animation--><path codeLine="133" d="M304.8915,395.2149 C296.5047,401.7051 287.8308,408.8043 280.14,415.86 C267.2292,427.7007 253.9617,442.2732 243.9219,453.8877 " fill="none" id="entities.creatures.Player-backto-gfx.Animation" style="stroke:#A80036;stroke-width:0.87;"/><polygon fill="#FFFFFF" points="314.1657,388.1766,307.9037,388.559,305.8482,394.4864,312.1102,394.104,314.1657,388.1766" style="stroke:#A80036;stroke-width:0.87;"/><!--MD5=[dbbe94031ce551aebe6dc52ae1f57bf7]
reverse link entities.creatures.Player to gfx.DrawManager--><path codeLine="136" d="M342.78,399.6954 C342.78,417.3042 342.78,438.6888 342.78,454.0095 " fill="none" id="entities.creatures.Player-backto-gfx.DrawManager" style="stroke:#A80036;stroke-width:0.87;"/><polygon fill="#FFFFFF" points="342.78,388.2201,339.3,393.4401,342.78,398.6601,346.26,393.4401,342.78,388.2201" style="stroke:#A80036;stroke-width:0.87;"/><!--MD5=[992167aa91069c83fccfdba82f6392d8]
reverse link gfx.Animation to gfx.TextureManager--><path codeLine="139" d="M213.3066,506.2878 C207.1296,519.9207 200.013,535.6416 194.4972,547.8216 " fill="none" id="gfx.Animation-backto-gfx.TextureManager" style="stroke:#A80036;stroke-width:0.87;"/><polygon fill="#FFFFFF" points="218.0046,495.9,212.6825,499.2218,213.7018,505.4121,219.0239,502.0903,218.0046,495.9" style="stroke:#A80036;stroke-width:0.87;"/><!--MD5=[23cd05996af9d076982a26ce4bae3957]
reverse link world.TileLayer to world.Tileset--><path codeLine="142" d="M662.94,399.6954 C662.94,417.3042 662.94,438.6888 662.94,454.0095 " fill="none" id="world.TileLayer-backto-world.Tileset" style="stroke:#A80036;stroke-width:0.87;"/><polygon fill="#A80036" points="662.94,388.2201,659.46,393.4401,662.94,398.6601,666.42,393.4401,662.94,388.2201" style="stroke:#A80036;stroke-width:0.87;"/><!--MD5=[c6ca4a5bec25b8d73354c00da6e9e815]
@startuml
/' Objects '/
abstract class entities.Entity {
}

abstract class entities.items.Item {
}

class entities.items.BombCollectable {
}


class entities.items.BombPlanted {
}


abstract class entities.creatures.Creature {
}

class entities.creatures.Player {
}

class gfx.Animation {
}


class gfx.DrawManager {
}

abstract class world.Layer {
}


class world.MapParser {
}


class states.Menu {
}

class gfx.TextureManager {
}


class gfx.Transform {
}


class gfx.Vector2D {
}

class entities.Properties {
}

class states.Game {
}

class interfaces.Board {
}


class world.GameMap {
}

class gfx.UILabel {
}

class world.Tile {
}


class world.TileLayer {
}

class world.Tileset {
}

class utils.IOHandler {
}


abstract class utils.IOObject {
}

class utils.ItemTimer {
}

/' Inheritance relationships '/

.entities.creatures.Creature <|- - .entities.creatures.Player


.entities.Entity <|- - .entities.creatures.Creature


.entities.Entity <|- - .entities.items.Item


.utils.IOHandler <|- - .entities.Entity


.entities.items.Item <|- - .entities.items.BombCollectable


.entities.items.Item <|- - .entities.items.BombPlanted


.world.Layer <|- - .world.TileLayer

/' Aggregation relationships '/


.entities.items.BombCollectable o- - .gfx.TextureManager


.entities.items.BombPlanted o- - .gfx.Animation


.gfx.DrawManager o- - .gfx.Vector2D


.entities.Entity o- - .gfx.Transform


.states.Game o- - .world.GameMap


.world.GameMap o- - .world.Layer


.world.MapParser o- - .world.GameMap


.entities.creatures.Player o- - .gfx.Animation


.entities.creatures.Player o- - .gfx.DrawManager


.gfx.Animation o- - .gfx.TextureManager


.world.TileLayer *- - .world.Tileset


/' Nested objects '/


@enduml

@startuml
abstract class entities.Entity {
}

abstract class entities.items.Item {
}

class entities.items.BombCollectable {
}


class entities.items.BombPlanted {
}


abstract class entities.creatures.Creature {
}

class entities.creatures.Player {
}

class gfx.Animation {
}


class gfx.DrawManager {
}

abstract class world.Layer {
}


class world.MapParser {
}


class states.Menu {
}

class gfx.TextureManager {
}


class gfx.Transform {
}


class gfx.Vector2D {
}

class entities.Properties {
}

class states.Game {
}

class interfaces.Board {
}


class world.GameMap {
}

class gfx.UILabel {
}

class world.Tile {
}


class world.TileLayer {
}

class world.Tileset {
}

class utils.IOHandler {
}


abstract class utils.IOObject {
}

class utils.ItemTimer {
}


.entities.creatures.Creature <|- - .entities.creatures.Player


.entities.Entity <|- - .entities.creatures.Creature


.entities.Entity <|- - .entities.items.Item


.utils.IOHandler <|- - .entities.Entity


.entities.items.Item <|- - .entities.items.BombCollectable


.entities.items.Item <|- - .entities.items.BombPlanted


.world.Layer <|- - .world.TileLayer



.entities.items.BombCollectable o- - .gfx.TextureManager


.entities.items.BombPlanted o- - .gfx.Animation


.gfx.DrawManager o- - .gfx.Vector2D


.entities.Entity o- - .gfx.Transform


.states.Game o- - .world.GameMap


.world.GameMap o- - .world.Layer


.world.MapParser o- - .world.GameMap


.entities.creatures.Player o- - .gfx.Animation


.entities.creatures.Player o- - .gfx.DrawManager


.gfx.Animation o- - .gfx.TextureManager


.world.TileLayer *- - .world.Tileset




@enduml

PlantUML version 1.2021.00(Sun Jan 10 18:25:05 SGT 2021)
(GPL source distribution)
Java Runtime: OpenJDK Runtime Environment
JVM: OpenJDK 64-Bit Server VM
Default Encoding: Cp1252
Language: en
Country: SG
--></g></svg>